<svg id="a95e063f-4afe-4ff0-a3a5-00e147118727" data-name="e53cb9bf-00e0-49c4-add6-c6b85b785a94" xmlns="http://www.w3.org/2000/svg" xmlns:xlink="http://www.w3.org/1999/xlink" viewBox="0 0 657.55 83.82"><defs><style>.aeb9d45f-1e51-4115-b129-280acd9ba4d2{fill:#0098ff;}.f270859d-3ec8-4004-9b83-40925c8d8399{fill:url(#f0bbed06-c884-470c-b741-6c7a979c1f77);}.aa686515-2865-400d-aa4c-653b31d0f9a3{fill:url(#b265e83d-2e07-44eb-9149-2444032202de);}.a5c531d3-995d-4763-9c53-02defbb9058c{fill:url(#bd971e48-33c3-4e64-919d-c04a218dce68);}</style><linearGradient id="f0bbed06-c884-470c-b741-6c7a979c1f77" x1="374.55" y1="10.9" x2="437.74" y2="74.1" gradientTransform="matrix(1, 0, 0, -1, 0, 83.42)" gradientUnits="userSpaceOnUse"><stop offset="0.18" stop-color="#0042ff"/><stop offset="1" stop-color="#00dbff"/></linearGradient><linearGradient id="b265e83d-2e07-44eb-9149-2444032202de" x1="487.57" y1="-3.52" x2="547.41" y2="56.33" xlink:href="#f0bbed06-c884-470c-b741-6c7a979c1f77"/><linearGradient id="bd971e48-33c3-4e64-919d-c04a218dce68" x1="588.39" y1="13.34" x2="644.03" y2="68.98" xlink:href="#f0bbed06-c884-470c-b741-6c7a979c1f77"/></defs><path class="aeb9d45f-1e51-4115-b129-280acd9ba4d2" d="M68.51,29.92h0A26.92,26.92,0,0,1,41.59,56.84H31.46A5.43,5.43,0,0,1,26,51.43h0A5.42,5.42,0,0,1,31.46,46H41.59A16.09,16.09,0,0,0,57.68,29.92h0A16.09,16.09,0,0,0,41.59,13.83H13.09V76.36a5.42,5.42,0,0,1-5.42,5.42h0a5.42,5.42,0,0,1-5.38-5.42V3h39.3A26.92,26.92,0,0,1,68.51,29.92Z"/><path class="aeb9d45f-1e51-4115-b129-280acd9ba4d2" d="M155.23,79.94h0A5.42,5.42,0,0,1,148,77.53l-28.14-56-28.16,56a5.4,5.4,0,0,1-7.26,2.41h0A5.41,5.41,0,0,1,82,72.71l31.75-63.3,2.18-4a4.51,4.51,0,0,1,8,.08l2,3.93,31.76,63.29A5.41,5.41,0,0,1,155.23,79.94Z"/><path class="aeb9d45f-1e51-4115-b129-280acd9ba4d2" d="M333.41,8.42V76.36a5.42,5.42,0,1,1-10.83.47v-20H282V76.36a5.42,5.42,0,1,1-10.84,0V8.42a5.42,5.42,0,1,1,10.84,0V46h40.55V8.42a5.42,5.42,0,1,1,10.83,0Z"/><path class="aeb9d45f-1e51-4115-b129-280acd9ba4d2" d="M241.93,8.42a5.43,5.43,0,0,1-5.41,5.41h-26V76.36a5.42,5.42,0,1,1-10.82.47,3.69,3.69,0,0,1,0-.47V13.83H173.56A5.42,5.42,0,0,1,173.1,3h63.46A5.39,5.39,0,0,1,241.93,8.42Z"/><path class="f270859d-3ec8-4004-9b83-40925c8d8399" d="M454.36,42.31h0a39.5,39.5,0,0,1-39.51,39.51H387.68a9.24,9.24,0,0,1-9.23-9.24h0a9.24,9.24,0,0,1,9.23-9.24h27.17a21,21,0,0,0,21-21h0a21,21,0,0,0-21-21H396.74V40.61a9.24,9.24,0,0,1-9.23,9.24h0a9.25,9.25,0,0,1-9.22-9.24V2.8h36.6A39.51,39.51,0,0,1,454.36,42.31Z"/><path class="aa686515-2865-400d-aa4c-653b31d0f9a3" d="M551.64,81.29h0a9.21,9.21,0,0,1-11.28-4.72L517.54,29.79l-23,46.92a9.17,9.17,0,0,1-11.35,4.66h0a9.16,9.16,0,0,1-5.52-11.73,7.76,7.76,0,0,1,.34-.84L507.29,8.33h0A10.74,10.74,0,0,1,517,2.25h1.19a10.7,10.7,0,0,1,9.59,6.08h0L557,68.64a9.19,9.19,0,0,1-4.34,12.25A9,9,0,0,1,551.64,81.29Z"/><path class="a5c531d3-995d-4763-9c53-02defbb9058c" d="M577.16,41.83v.88a39,39,0,0,0,39,39h0A39,39,0,0,0,655.25,42.8v-1a39,39,0,0,0-39-39h0a39,39,0,0,0-39.09,38.91Zm18.48,1v-1a20.55,20.55,0,0,1,20.54-20.55h0a20.55,20.55,0,0,1,20.55,20.55v1a20.54,20.54,0,0,1-20.55,20.54h0a20.56,20.56,0,0,1-20.54-20.56h0Z"/></svg>