<?xml version="1.0" encoding="utf-8"?>
<!-- Generator: Adobe Illustrator 23.0.3, SVG Export Plug-In . SVG Version: 6.00 Build 0)  -->
<svg version="1.1" id="Layer_1" xmlns="http://www.w3.org/2000/svg" xmlns:xlink="http://www.w3.org/1999/xlink" x="0px" y="0px"
	 viewBox="0 0 314.5 178.3" style="enable-background:new 0 0 314.5 178.3;" xml:space="preserve">
<title>Asset 6</title>
<g>
	<g id="Layer_1-2">
		<path d="M7.8,151.4c0.5,0.8,1,1.9,1.6,3.1s1.2,2.6,1.9,4s1.3,2.9,1.9,4.4l1.8,4.2c0.6-1.3,1.1-2.7,1.8-4.2s1.3-3,1.9-4.4
			s1.3-2.8,1.9-4s1.1-2.3,1.6-3.1h5.4c0.3,1.7,0.5,3.7,0.7,5.9s0.4,4.4,0.6,6.8s0.3,4.7,0.5,7.1s0.3,4.6,0.4,6.6h-5.8
			c-0.1-2.6-0.2-5.3-0.3-8.4c-0.1-3-0.3-6.1-0.6-9.1c-0.5,1.1-1,2.2-1.5,3.5l-1.7,3.9c-0.5,1.3-1.1,2.5-1.6,3.7l-1.3,3h-4.1l-1.3-3
			c-0.5-1.2-1-2.4-1.6-3.7s-1.1-2.6-1.7-3.9s-1.1-2.5-1.5-3.5c-0.2,3.1-0.4,6.1-0.6,9.1c-0.1,3-0.2,5.8-0.3,8.4H0
			c0.1-2.1,0.2-4.3,0.4-6.6s0.3-4.7,0.5-7.1s0.4-4.6,0.6-6.8s0.5-4.1,0.7-5.9H7.8z"/>
		<path d="M52.5,177.8c-0.3-0.9-0.6-1.9-0.9-2.8s-0.7-1.9-1-2.9H40.3c-0.3,1-0.7,1.9-1,2.9s-0.6,1.9-0.9,2.8h-6.2
			c1-2.8,1.9-5.5,2.8-7.9s1.8-4.7,2.6-6.8c0.8-2.1,1.7-4.1,2.5-6.1s1.7-3.8,2.6-5.6h5.6c0.9,1.8,1.7,3.7,2.5,5.6
			c0.8,1.9,1.7,3.9,2.5,6.1c0.8,2.1,1.7,4.4,2.6,6.8s1.8,5,2.8,7.9L52.5,177.8z M45.4,157.4c-0.1,0.4-0.3,0.9-0.6,1.6l-0.9,2.3
			c-0.3,0.9-0.7,1.8-1.1,2.9s-0.8,2.1-1.2,3.3h7.5c-0.4-1.1-0.8-2.2-1.2-3.3s-0.7-2-1.1-2.9L46,159
			C45.8,158.3,45.5,157.8,45.4,157.4z"/>
		<path d="M70,151.1c4,0,7,0.7,9.1,2.1s3.2,3.6,3.2,6.6c0.1,1.6-0.4,3.2-1.3,4.5c-1,1.2-2.2,2.2-3.7,2.7c0.5,0.6,1.1,1.4,1.7,2.3
			s1.2,1.7,1.7,2.7s1.1,1.9,1.7,2.9s1,2,1.5,3h-6.6c-0.5-0.9-1-1.7-1.5-2.6s-1-1.8-1.5-2.6s-1-1.6-1.6-2.4c-0.5-0.7-1-1.4-1.5-2
			h-2.9v9.6h-5.9v-26c1.3-0.3,2.7-0.4,4-0.5C67.6,151.2,68.9,151.1,70,151.1z M70.3,156.2c-0.4,0-0.8,0-1.2,0l-1,0.1v7.1h1.7
			c1.6,0.1,3.3-0.2,4.8-0.8c1-0.6,1.6-1.7,1.4-2.9c0.1-1.1-0.5-2.2-1.5-2.7C73.3,156.4,71.8,156.1,70.3,156.2L70.3,156.2z"/>
		<path d="M103.1,177.8c-0.5-0.9-1.2-1.8-1.9-2.8s-1.5-2-2.3-3s-1.7-2-2.6-2.9c-0.9-0.9-1.8-1.7-2.7-2.4v11.1h-5.9v-26.3h5.9v9.9
			c1.5-1.6,3.1-3.3,4.6-5c1.6-1.8,3-3.4,4.4-4.9h7c-1.8,2.1-3.6,4.2-5.4,6.1s-3.7,4-5.7,5.9c2.2,1.9,4.3,4,6.1,6.3
			c2,2.5,3.9,5.2,5.6,8L103.1,177.8z"/>
		<path d="M113.6,177.8v-26.3h17.8v5h-11.9v5.2H130v4.9h-10.5v6.3h12.7v5L113.6,177.8z"/>
		<path d="M156.1,151.4v5.1h-7.9v21.3h-5.9v-21.3h-7.9v-5.1H156.1z"/>
		<path d="M186.7,177.8c-0.3-0.9-0.6-1.9-0.9-2.8l-1-2.9h-10.3c-0.3,1-0.7,1.9-1,2.9s-0.6,1.9-0.9,2.8h-6.2c1-2.8,1.9-5.5,2.8-7.9
			s1.8-4.7,2.6-6.8c0.9-2.1,1.7-4.1,2.5-6.1s1.7-3.8,2.6-5.6h5.6c0.9,1.8,1.7,3.7,2.6,5.6s1.7,3.9,2.5,6.1s1.7,4.4,2.6,6.8
			s1.8,5,2.8,7.9L186.7,177.8z M179.6,157.4c-0.1,0.4-0.3,0.9-0.6,1.6l-0.9,2.3c-0.3,0.9-0.7,1.8-1.1,2.9s-0.8,2.1-1.2,3.3h7.5
			c-0.4-1.1-0.8-2.2-1.2-3.3s-0.7-2-1.1-2.9s-0.6-1.6-0.9-2.3S179.8,157.8,179.6,157.4z"/>
		<path d="M207.5,178.3c-4.3,0-7.6-1.2-9.8-3.6s-3.4-5.8-3.4-10.1c0-2,0.3-4,1-5.8c0.6-1.6,1.6-3.1,2.8-4.3c1.2-1.2,2.7-2.1,4.3-2.7
			c1.7-0.6,3.5-0.9,5.4-0.9c1,0,2,0.1,3,0.2c0.8,0.1,1.6,0.3,2.4,0.6c0.6,0.2,1.2,0.4,1.7,0.7c0.5,0.2,0.8,0.4,1,0.5l-1.7,4.8
			c-0.9-0.5-1.8-0.8-2.8-1.1c-1.2-0.3-2.4-0.5-3.7-0.5c-0.9,0-1.8,0.2-2.7,0.5c-0.9,0.3-1.7,0.8-2.3,1.5c-0.7,0.7-1.3,1.6-1.6,2.6
			c-0.4,1.2-0.6,2.6-0.6,3.9c0,1.1,0.1,2.3,0.4,3.4c0.2,1,0.7,1.9,1.3,2.7c0.6,0.8,1.4,1.4,2.3,1.8c1.1,0.5,2.3,0.7,3.5,0.7
			c0.8,0,1.6,0,2.3-0.1c0.7-0.1,1.3-0.2,1.8-0.4c0.5-0.1,1-0.3,1.4-0.5l1.1-0.5l1.6,4.8c-1.1,0.6-2.3,1.1-3.5,1.4
			C211,178.1,209.3,178.3,207.5,178.3z"/>
		<path d="M227.9,151.1c4,0,7,0.7,9.1,2.1s3.1,3.6,3.1,6.6c0.1,1.6-0.4,3.2-1.3,4.5c-0.9,1.2-2.2,2.2-3.7,2.7
			c0.5,0.6,1.1,1.4,1.7,2.3s1.2,1.7,1.7,2.7s1.1,1.9,1.7,2.9s1,2,1.5,3H235c-0.5-0.9-1-1.7-1.5-2.6s-1-1.8-1.5-2.6s-1-1.6-1.6-2.4
			s-1-1.4-1.5-2h-2.9v9.6h-5.9v-26c1.3-0.3,2.7-0.4,4-0.5C225.5,151.2,226.8,151.1,227.9,151.1z M228.2,156.2c-0.4,0-0.8,0-1.2,0
			l-1,0.1v7.1h1.7c1.6,0.1,3.3-0.2,4.8-0.8c1-0.6,1.5-1.7,1.4-2.9c0.1-1.1-0.5-2.2-1.4-2.7C231.2,156.4,229.7,156.1,228.2,156.2z"/>
		<path d="M269.9,164.6c0,2-0.3,4-1,5.9c-0.6,1.6-1.5,3.1-2.8,4.3c-1.2,1.2-2.6,2.1-4.2,2.6c-1.7,0.6-3.4,0.9-5.2,0.9
			c-1.7,0-3.5-0.3-5.1-0.9c-1.6-0.6-3-1.5-4.2-2.6c-1.2-1.2-2.2-2.7-2.8-4.3c-0.7-1.9-1-3.9-1-5.9c0-2,0.3-4.1,1.1-5.9
			c0.6-1.6,1.6-3.1,2.9-4.3c1.2-1.2,2.6-2.1,4.2-2.6c1.6-0.6,3.3-0.9,5-0.9c1.7,0,3.5,0.3,5.1,0.9c1.6,0.6,3,1.5,4.2,2.6
			c1.2,1.2,2.2,2.7,2.8,4.3C269.6,160.5,269.9,162.6,269.9,164.6z M249.8,164.6c0,1.2,0.1,2.4,0.5,3.5c0.3,1,0.7,1.9,1.4,2.7
			c0.6,0.7,1.3,1.3,2.2,1.7c0.9,0.4,2,0.6,3,0.6c1,0,2-0.2,3-0.6c0.9-0.4,1.6-1,2.2-1.7c0.6-0.8,1.1-1.7,1.4-2.7
			c0.3-1.1,0.5-2.3,0.5-3.5c0-1.2-0.1-2.4-0.5-3.5c-0.3-1-0.7-1.9-1.4-2.7c-0.6-0.7-1.3-1.3-2.2-1.7c-0.9-0.4-1.9-0.6-3-0.6
			c-1,0-2.1,0.2-3,0.6c-0.9,0.4-1.6,1-2.2,1.8c-0.6,0.8-1.1,1.7-1.4,2.7C249.9,162.2,249.8,163.4,249.8,164.6L249.8,164.6z"/>
		<path d="M282,173.2c0.7,0,1.4-0.1,2.1-0.2c0.5-0.1,0.9-0.3,1.3-0.6c0.3-0.2,0.5-0.5,0.7-0.9c0.1-0.4,0.2-0.7,0.2-1.1
			c0-0.9-0.5-1.7-1.2-2.1c-1.3-0.8-2.7-1.4-4.2-1.8c-0.9-0.3-1.7-0.6-2.6-1c-0.8-0.4-1.6-0.9-2.3-1.5c-0.7-0.6-1.3-1.3-1.7-2.2
			c-0.5-1-0.7-2-0.6-3.1c0-1.1,0.2-2.3,0.7-3.3c0.4-1,1.1-1.8,1.9-2.5c0.9-0.7,1.9-1.3,3-1.6c1.3-0.4,2.6-0.6,4-0.6
			c1.5,0,3.1,0.2,4.6,0.6c1.1,0.3,2.2,0.7,3.2,1.3l-1.7,4.7c-0.8-0.4-1.6-0.7-2.5-1c-1.1-0.3-2.1-0.5-3.2-0.4
			c-1.1-0.1-2.1,0.1-3.1,0.6c-0.6,0.4-1,1.1-0.9,1.8c0,0.4,0.1,0.9,0.3,1.2c0.3,0.4,0.6,0.7,1,0.9c0.5,0.3,0.9,0.5,1.4,0.7
			c0.5,0.2,1.1,0.4,1.8,0.7c1.3,0.5,2.5,1,3.6,1.5c0.9,0.4,1.8,1,2.5,1.7c0.7,0.6,1.2,1.4,1.5,2.3c0.3,1,0.5,2.1,0.5,3.2
			c0.1,2.2-0.8,4.3-2.6,5.7c-1.7,1.4-4.3,2-7.8,2c-1.1,0-2.1-0.1-3.2-0.2c-0.8-0.1-1.7-0.3-2.5-0.5c-0.6-0.2-1.3-0.4-1.9-0.6
			c-0.4-0.2-0.9-0.4-1.3-0.6l1.7-4.7c0.9,0.5,1.9,0.9,2.9,1.1C279.1,173.1,280.6,173.3,282,173.2z"/>
		<path d="M304.1,173.2c0.7,0,1.4-0.1,2.1-0.2c0.5-0.1,0.9-0.3,1.3-0.6c0.3-0.2,0.5-0.5,0.7-0.9c0.1-0.4,0.2-0.7,0.2-1.1
			c0-0.9-0.5-1.7-1.2-2.1c-1.3-0.8-2.7-1.4-4.2-1.8c-0.9-0.3-1.7-0.6-2.6-1c-0.8-0.4-1.6-0.9-2.3-1.5c-0.7-0.6-1.3-1.3-1.7-2.2
			c-0.5-1-0.7-2-0.6-3.1c0-1.1,0.2-2.3,0.7-3.3c0.4-1,1.1-1.8,1.9-2.5c0.9-0.7,1.9-1.3,3-1.6c1.3-0.4,2.6-0.6,4-0.6
			c1.6,0,3.1,0.2,4.6,0.6c1.1,0.3,2.2,0.7,3.2,1.3l-1.7,4.7c-0.8-0.4-1.6-0.7-2.5-1c-1.1-0.3-2.2-0.5-3.3-0.4
			c-1.1-0.1-2.1,0.1-3.1,0.6c-0.6,0.4-1,1.1-0.9,1.8c0,0.4,0.1,0.9,0.3,1.2c0.3,0.4,0.6,0.7,1,0.9c0.5,0.3,0.9,0.5,1.5,0.7
			c0.5,0.2,1.1,0.4,1.8,0.7c1.4,0.5,2.6,1,3.6,1.5c0.9,0.4,1.8,1,2.5,1.7c0.7,0.7,1.2,1.4,1.5,2.3c0.4,1,0.5,2.1,0.5,3.2
			c0.1,2.2-0.9,4.3-2.6,5.7c-1.7,1.3-4.3,2-7.8,2c-1.1,0-2.1-0.1-3.1-0.2c-0.8-0.1-1.7-0.3-2.5-0.5c-1.1-0.3-2.2-0.7-3.2-1.3
			l1.7-4.7C299.1,172.8,301.6,173.3,304.1,173.2L304.1,173.2z"/>
		<path d="M269.1,52c-0.2-1-0.7-2-1.4-2.7C254.1,36.5,227.4,10.7,222.6,6c-0.6-0.6-2.5-2.5-2.5-2.5c-6.5-4.6-12.9-5.1-19.1,0.8
			l-45.2,45.6c-0.2-0.2-0.3-0.4-0.5-0.6C141.8,36.5,115,10.7,110.3,6c-0.6-0.6-2.4-2.5-2.4-2.5c-6.5-4.6-12.9-5.1-19.1,0.8l-87,87.9
			c-2,1.9-2,5.1,0,7.1c0,0,0.1,0.1,0.1,0.1c8.8,8.4,30.4,29,33.3,31.7c1.8,1.7,4.7,1.7,6.5-0.1L115,56.8c2.9-3,6.2-5.5,9.8-7.5
			c2.5-1.4,6.7-2.1,8.9-1.5c1.9,0.5,11,5.6,15.7,8.7l-35.3,35.7c-2,1.9-2,5.1,0,7.1c0,0,0.1,0.1,0.1,0.1c8.8,8.4,30.4,29,33.3,31.7
			c1.8,1.7,4.7,1.7,6.5-0.1l73.3-74.2c2.9-3,6.2-5.5,9.8-7.5c2.5-1.5,6.7-2.1,8.9-1.5c1.9,0.5,11.4,5.9,16,8.9
			c0.9,0.6,2,0.9,3.1,0.7h0.1C267.8,57,269.5,54.6,269.1,52z"/>
		<path d="M244.2,90.8l27.6-27.6c3.2-3.2,8.4-3.2,11.7,0L311,90.8c3.2,3.2,3.2,8.4,0,11.7L283.4,130c-3.2,3.2-8.4,3.2-11.7,0
			l-27.6-27.6C241,99.2,241,94,244.2,90.8z"/>
	</g>
</g>
</svg>
