<svg width="225" height="42" viewBox="0 0 225 42" fill="none" xmlns="http://www.w3.org/2000/svg">
<path d="M36.5829 0H225V42H0.348831L36.5829 0Z" fill="url(#paint0_linear_18_15)" fill-opacity="0.5"/>
<path d="M48.278 26.07C47.55 26.07 46.8873 25.93 46.29 25.65C45.702 25.3607 45.1933 24.978 44.764 24.502C44.344 24.026 44.0173 23.4893 43.784 22.892C43.5507 22.2853 43.434 21.6647 43.434 21.03C43.434 20.3673 43.5553 19.7373 43.798 19.14C44.0407 18.5333 44.3813 17.9967 44.82 17.53C45.2587 17.054 45.772 16.6807 46.36 16.41C46.9573 16.13 47.6107 15.99 48.32 15.99C49.0387 15.99 49.692 16.1347 50.28 16.424C50.8773 16.7133 51.386 17.1007 51.806 17.586C52.2353 18.0713 52.562 18.6173 52.786 19.224C53.0193 19.8213 53.136 20.4327 53.136 21.058C53.136 21.6927 53.0193 22.3087 52.786 22.906C52.562 23.494 52.2447 24.0167 51.834 24.474L53.192 26H51.372L50.784 25.356C50.4293 25.58 50.0373 25.7573 49.608 25.888C49.188 26.0093 48.7447 26.07 48.278 26.07ZM48.292 24.362C48.544 24.362 48.7773 24.334 48.992 24.278C49.216 24.2127 49.4213 24.1287 49.608 24.026L48.096 22.318H49.916L50.602 23.088C50.7887 22.7893 50.9333 22.4627 51.036 22.108C51.1387 21.7533 51.19 21.394 51.19 21.03C51.19 20.4513 51.0733 19.91 50.84 19.406C50.6067 18.902 50.2707 18.4913 49.832 18.174C49.4027 17.8567 48.8893 17.698 48.292 17.698C47.6667 17.698 47.1393 17.8613 46.71 18.188C46.2807 18.5147 45.954 18.9347 45.73 19.448C45.506 19.9613 45.394 20.4887 45.394 21.03C45.394 21.6087 45.506 22.15 45.73 22.654C45.9633 23.158 46.2947 23.5687 46.724 23.886C47.1627 24.2033 47.6853 24.362 48.292 24.362ZM60.1484 24.306V26H54.4644V24.306H56.4524V20.064C56.3404 20.204 56.149 20.3533 55.8784 20.512C55.617 20.6707 55.3277 20.806 55.0104 20.918C54.7024 21.03 54.427 21.086 54.1844 21.086V19.336C54.3524 19.336 54.553 19.2847 54.7864 19.182C55.029 19.07 55.267 18.9393 55.5004 18.79C55.743 18.6407 55.9484 18.496 56.1164 18.356C56.2937 18.2067 56.4057 18.09 56.4524 18.006H58.3704V24.306H60.1484ZM64.3816 26C64.3816 25.4493 64.4423 24.9593 64.5636 24.53C64.6943 24.1007 64.9183 23.7133 65.2356 23.368C65.5529 23.0227 66.0009 22.6867 66.5796 22.36C67.0929 22.0893 67.5223 21.8607 67.8676 21.674C68.2129 21.4873 68.4743 21.31 68.6516 21.142C68.8383 20.9647 68.9316 20.7593 68.9316 20.526C68.9316 20.246 68.8196 20.008 68.5956 19.812C68.3716 19.6067 68.0543 19.504 67.6436 19.504C67.1956 19.504 66.8083 19.6113 66.4816 19.826C66.1643 20.0407 65.8889 20.288 65.6556 20.568L64.4656 19.196C64.6336 19.0187 64.8856 18.8273 65.2216 18.622C65.5576 18.4167 65.9589 18.2393 66.4256 18.09C66.8923 17.9407 67.4056 17.866 67.9656 17.866C68.9176 17.866 69.6549 18.09 70.1776 18.538C70.7096 18.9767 70.9756 19.546 70.9756 20.246C70.9756 20.6847 70.8729 21.058 70.6676 21.366C70.4716 21.6647 70.2243 21.9213 69.9256 22.136C69.6363 22.3413 69.3563 22.5233 69.0856 22.682C68.4883 22.9807 68.0169 23.242 67.6716 23.466C67.3356 23.69 67.0649 23.97 66.8596 24.306H71.1296V26H64.3816ZM79.662 21.898C79.662 22.7193 79.5033 23.452 79.186 24.096C78.878 24.7307 78.4486 25.23 77.898 25.594C77.3566 25.958 76.7406 26.14 76.05 26.14C75.3593 26.14 74.7386 25.958 74.188 25.594C73.6466 25.23 73.2173 24.7307 72.9 24.096C72.592 23.452 72.438 22.7193 72.438 21.898C72.438 21.0767 72.592 20.3487 72.9 19.714C73.2173 19.07 73.6466 18.566 74.188 18.202C74.7386 17.8287 75.3593 17.642 76.05 17.642C76.7406 17.642 77.3566 17.8287 77.898 18.202C78.4486 18.566 78.878 19.07 79.186 19.714C79.5033 20.3487 79.662 21.0767 79.662 21.898ZM77.772 21.898C77.772 21.1513 77.6086 20.5447 77.282 20.078C76.9646 19.602 76.554 19.364 76.05 19.364C75.5273 19.364 75.1073 19.602 74.79 20.078C74.4726 20.5447 74.314 21.1513 74.314 21.898C74.314 22.6447 74.4726 23.2513 74.79 23.718C75.1073 24.1847 75.5273 24.418 76.05 24.418C76.554 24.418 76.9646 24.1847 77.282 23.718C77.6086 23.2513 77.772 22.6447 77.772 21.898ZM80.8836 26C80.8836 25.4493 80.9442 24.9593 81.0656 24.53C81.1962 24.1007 81.4202 23.7133 81.7376 23.368C82.0549 23.0227 82.5029 22.6867 83.0816 22.36C83.5949 22.0893 84.0242 21.8607 84.3696 21.674C84.7149 21.4873 84.9762 21.31 85.1536 21.142C85.3402 20.9647 85.4336 20.7593 85.4336 20.526C85.4336 20.246 85.3216 20.008 85.0976 19.812C84.8736 19.6067 84.5562 19.504 84.1456 19.504C83.6976 19.504 83.3102 19.6113 82.9836 19.826C82.6662 20.0407 82.3909 20.288 82.1576 20.568L80.9676 19.196C81.1356 19.0187 81.3876 18.8273 81.7236 18.622C82.0596 18.4167 82.4609 18.2393 82.9276 18.09C83.3942 17.9407 83.9076 17.866 84.4676 17.866C85.4196 17.866 86.1569 18.09 86.6796 18.538C87.2116 18.9767 87.4776 19.546 87.4776 20.246C87.4776 20.6847 87.3749 21.058 87.1696 21.366C86.9736 21.6647 86.7262 21.9213 86.4276 22.136C86.1382 22.3413 85.8582 22.5233 85.5876 22.682C84.9902 22.9807 84.5189 23.242 84.1736 23.466C83.8376 23.69 83.5669 23.97 83.3616 24.306H87.6316V26H80.8836ZM88.7859 26C88.7859 25.4493 88.8466 24.9593 88.9679 24.53C89.0986 24.1007 89.3226 23.7133 89.6399 23.368C89.9572 23.0227 90.4052 22.6867 90.9839 22.36C91.4972 22.0893 91.9266 21.8607 92.2719 21.674C92.6172 21.4873 92.8786 21.31 93.0559 21.142C93.2426 20.9647 93.3359 20.7593 93.3359 20.526C93.3359 20.246 93.2239 20.008 92.9999 19.812C92.7759 19.6067 92.4586 19.504 92.0479 19.504C91.5999 19.504 91.2126 19.6113 90.8859 19.826C90.5686 20.0407 90.2932 20.288 90.0599 20.568L88.8699 19.196C89.0379 19.0187 89.2899 18.8273 89.6259 18.622C89.9619 18.4167 90.3632 18.2393 90.8299 18.09C91.2966 17.9407 91.8099 17.866 92.3699 17.866C93.3219 17.866 94.0592 18.09 94.5819 18.538C95.1139 18.9767 95.3799 19.546 95.3799 20.246C95.3799 20.6847 95.2772 21.058 95.0719 21.366C94.8759 21.6647 94.6286 21.9213 94.3299 22.136C94.0406 22.3413 93.7606 22.5233 93.4899 22.682C92.8926 22.9807 92.4212 23.242 92.0759 23.466C91.7399 23.69 91.4692 23.97 91.2639 24.306H95.5339V26H88.7859ZM100.556 26V16.06H102.488V26H100.556ZM108.691 26.07C108.038 26.07 107.427 25.9393 106.857 25.678C106.288 25.4167 105.784 25.0573 105.345 24.6C104.916 24.1333 104.58 23.592 104.337 22.976C104.095 22.36 103.973 21.6927 103.973 20.974C103.973 20.2927 104.095 19.6533 104.337 19.056C104.58 18.4493 104.921 17.9173 105.359 17.46C105.798 17.0027 106.311 16.6433 106.899 16.382C107.487 16.1207 108.127 15.99 108.817 15.99C109.741 15.99 110.539 16.1907 111.211 16.592C111.883 16.984 112.387 17.5067 112.723 18.16L111.281 19.224C111.029 18.7387 110.675 18.3653 110.217 18.104C109.769 17.8333 109.279 17.698 108.747 17.698C108.187 17.698 107.693 17.852 107.263 18.16C106.843 18.468 106.512 18.874 106.269 19.378C106.036 19.882 105.919 20.4327 105.919 21.03C105.919 21.6553 106.045 22.22 106.297 22.724C106.549 23.228 106.895 23.6293 107.333 23.928C107.781 24.2173 108.29 24.362 108.859 24.362C109.821 24.362 110.689 23.9093 111.463 23.004V22.304H109.461V20.89H113.059V26H111.463V24.88C110.661 25.6733 109.737 26.07 108.691 26.07ZM118.948 26.07C118.22 26.07 117.557 25.93 116.96 25.65C116.372 25.37 115.863 24.992 115.434 24.516C115.014 24.0307 114.687 23.4893 114.454 22.892C114.221 22.2853 114.104 21.6647 114.104 21.03C114.104 20.3673 114.225 19.7373 114.468 19.14C114.711 18.5333 115.051 17.9967 115.49 17.53C115.929 17.054 116.442 16.6807 117.03 16.41C117.627 16.13 118.281 15.99 118.99 15.99C119.709 15.99 120.362 16.1347 120.95 16.424C121.547 16.7133 122.056 17.1007 122.476 17.586C122.905 18.0713 123.232 18.6173 123.456 19.224C123.689 19.8213 123.806 20.4327 123.806 21.058C123.806 21.7113 123.685 22.3413 123.442 22.948C123.199 23.5453 122.859 24.082 122.42 24.558C121.991 25.0247 121.477 25.3933 120.88 25.664C120.292 25.9347 119.648 26.07 118.948 26.07ZM116.064 21.03C116.064 21.6087 116.176 22.15 116.4 22.654C116.633 23.158 116.965 23.5687 117.394 23.886C117.833 24.2033 118.355 24.362 118.962 24.362C119.587 24.362 120.115 24.1987 120.544 23.872C120.973 23.5453 121.3 23.1253 121.524 22.612C121.748 22.0987 121.86 21.5713 121.86 21.03C121.86 20.4513 121.743 19.91 121.51 19.406C121.277 18.902 120.941 18.496 120.502 18.188C120.073 17.8707 119.559 17.712 118.962 17.712C118.337 17.712 117.809 17.8753 117.38 18.202C116.951 18.5287 116.624 18.9487 116.4 19.462C116.176 19.966 116.064 20.4887 116.064 21.03ZM131.857 26.14C131.055 26.14 130.364 25.9673 129.785 25.622C129.216 25.2673 128.777 24.8007 128.469 24.222C128.161 23.6433 128.007 23.018 128.007 22.346C128.007 21.6647 128.161 21.0347 128.469 20.456C128.787 19.8773 129.23 19.4153 129.799 19.07C130.378 18.7153 131.064 18.538 131.857 18.538C132.651 18.538 133.332 18.7153 133.901 19.07C134.48 19.4153 134.923 19.8773 135.231 20.456C135.539 21.0347 135.693 21.6647 135.693 22.346C135.693 23.018 135.539 23.6433 135.231 24.222C134.923 24.8007 134.48 25.2673 133.901 25.622C133.332 25.9673 132.651 26.14 131.857 26.14ZM129.939 22.346C129.939 22.7753 130.023 23.158 130.191 23.494C130.359 23.8207 130.588 24.0773 130.877 24.264C131.167 24.4507 131.493 24.544 131.857 24.544C132.212 24.544 132.534 24.4507 132.823 24.264C133.113 24.068 133.341 23.8067 133.509 23.48C133.687 23.144 133.775 22.7613 133.775 22.332C133.775 21.912 133.687 21.5387 133.509 21.212C133.341 20.876 133.113 20.6147 132.823 20.428C132.534 20.232 132.212 20.134 131.857 20.134C131.493 20.134 131.167 20.232 130.877 20.428C130.588 20.6147 130.359 20.876 130.191 21.212C130.023 21.5387 129.939 21.9167 129.939 22.346ZM143.777 26H141.901V21.884C141.901 21.296 141.799 20.8667 141.593 20.596C141.388 20.3253 141.103 20.19 140.739 20.19C140.487 20.19 140.231 20.2553 139.969 20.386C139.717 20.5167 139.489 20.6987 139.283 20.932C139.078 21.156 138.929 21.4173 138.835 21.716V26H136.959V18.664H138.653V20.022C138.924 19.5647 139.316 19.2053 139.829 18.944C140.343 18.6733 140.921 18.538 141.565 18.538C142.023 18.538 142.396 18.622 142.685 18.79C142.975 18.9487 143.199 19.168 143.357 19.448C143.516 19.7187 143.623 20.0267 143.679 20.372C143.745 20.7173 143.777 21.0673 143.777 21.422V26ZM156.962 23.438C156.962 23.998 156.817 24.4693 156.528 24.852C156.239 25.2253 155.847 25.51 155.352 25.706C154.867 25.902 154.335 26 153.756 26H148.954V16.06H154.274C154.741 16.06 155.142 16.186 155.478 16.438C155.814 16.6807 156.075 16.998 156.262 17.39C156.449 17.782 156.542 18.1833 156.542 18.594C156.542 19.0793 156.421 19.5367 156.178 19.966C155.935 20.386 155.581 20.6987 155.114 20.904C155.683 21.072 156.131 21.3753 156.458 21.814C156.794 22.2527 156.962 22.794 156.962 23.438ZM150.886 17.712V20.218H153.462C153.779 20.218 154.055 20.106 154.288 19.882C154.521 19.658 154.638 19.35 154.638 18.958C154.638 18.5847 154.531 18.286 154.316 18.062C154.111 17.8287 153.854 17.712 153.546 17.712H150.886ZM155.016 23.074C155.016 22.71 154.904 22.3973 154.68 22.136C154.456 21.8747 154.181 21.744 153.854 21.744H150.886V24.362H153.756C154.111 24.362 154.409 24.236 154.652 23.984C154.895 23.732 155.016 23.4287 155.016 23.074ZM158.288 17.642V15.78H160.164V17.642H158.288ZM158.288 26V18.664H160.164V26H158.288ZM168.674 26H166.798V21.884C166.798 21.296 166.695 20.8667 166.49 20.596C166.285 20.3253 166 20.19 165.636 20.19C165.384 20.19 165.127 20.2553 164.866 20.386C164.614 20.5167 164.385 20.6987 164.18 20.932C163.975 21.156 163.825 21.4173 163.732 21.716V26H161.856V18.664H163.55V20.022C163.821 19.5647 164.213 19.2053 164.726 18.944C165.239 18.6733 165.818 18.538 166.462 18.538C166.919 18.538 167.293 18.622 167.582 18.79C167.871 18.9487 168.095 19.168 168.254 19.448C168.413 19.7187 168.52 20.0267 168.576 20.372C168.641 20.7173 168.674 21.0673 168.674 21.422V26ZM169.801 23.83C169.801 23.354 169.932 22.9387 170.193 22.584C170.464 22.22 170.837 21.94 171.313 21.744C171.789 21.548 172.335 21.45 172.951 21.45C173.259 21.45 173.572 21.478 173.889 21.534C174.207 21.5807 174.482 21.6507 174.715 21.744V21.352C174.715 20.8853 174.575 20.526 174.295 20.274C174.025 20.022 173.619 19.896 173.077 19.896C172.676 19.896 172.293 19.966 171.929 20.106C171.565 20.246 171.183 20.4513 170.781 20.722L170.179 19.49C170.665 19.1727 171.159 18.9347 171.663 18.776C172.177 18.6173 172.713 18.538 173.273 18.538C174.319 18.538 175.131 18.7993 175.709 19.322C176.297 19.8447 176.591 20.5913 176.591 21.562V23.9C176.591 24.1053 176.624 24.25 176.689 24.334C176.755 24.4087 176.871 24.4553 177.039 24.474V26C176.871 26.0373 176.717 26.0607 176.577 26.07C176.447 26.0887 176.335 26.098 176.241 26.098C175.868 26.098 175.583 26.014 175.387 25.846C175.191 25.678 175.075 25.4727 175.037 25.23L174.995 24.852C174.669 25.272 174.267 25.594 173.791 25.818C173.325 26.0327 172.844 26.14 172.349 26.14C171.855 26.14 171.416 26.042 171.033 25.846C170.651 25.6407 170.347 25.3653 170.123 25.02C169.909 24.6653 169.801 24.2687 169.801 23.83ZM174.365 24.208C174.599 23.984 174.715 23.7693 174.715 23.564V22.822C174.23 22.626 173.74 22.528 173.245 22.528C172.751 22.528 172.349 22.6353 172.041 22.85C171.733 23.0553 171.579 23.3307 171.579 23.676C171.579 23.956 171.691 24.208 171.915 24.432C172.139 24.656 172.461 24.768 172.881 24.768C173.161 24.768 173.432 24.7167 173.693 24.614C173.964 24.5113 174.188 24.376 174.365 24.208ZM185.162 26H183.286V21.884C183.286 21.296 183.184 20.8667 182.978 20.596C182.773 20.3253 182.488 20.19 182.124 20.19C181.872 20.19 181.616 20.2553 181.354 20.386C181.102 20.5167 180.874 20.6987 180.668 20.932C180.463 21.156 180.314 21.4173 180.22 21.716V26H178.344V18.664H180.038V20.022C180.309 19.5647 180.701 19.2053 181.214 18.944C181.728 18.6733 182.306 18.538 182.95 18.538C183.408 18.538 183.781 18.622 184.07 18.79C184.36 18.9487 184.584 19.168 184.742 19.448C184.901 19.7187 185.008 20.0267 185.064 20.372C185.13 20.7173 185.162 21.0673 185.162 21.422V26ZM190.209 26.14C189.416 26.14 188.73 25.9627 188.151 25.608C187.573 25.2533 187.125 24.7867 186.807 24.208C186.49 23.6293 186.331 23.004 186.331 22.332C186.331 21.6507 186.485 21.0207 186.793 20.442C187.111 19.8633 187.559 19.4013 188.137 19.056C188.716 18.7107 189.402 18.538 190.195 18.538C190.998 18.538 191.679 18.7107 192.239 19.056C192.809 19.4013 193.233 19.854 193.513 20.414L191.679 20.974C191.353 20.414 190.853 20.134 190.181 20.134C189.817 20.134 189.491 20.2273 189.201 20.414C188.912 20.5913 188.683 20.848 188.515 21.184C188.347 21.5107 188.263 21.8933 188.263 22.332C188.263 22.7613 188.347 23.144 188.515 23.48C188.693 23.8067 188.926 24.068 189.215 24.264C189.505 24.4507 189.827 24.544 190.181 24.544C190.517 24.544 190.825 24.4647 191.105 24.306C191.395 24.138 191.595 23.928 191.707 23.676L193.541 24.236C193.289 24.7867 192.869 25.244 192.281 25.608C191.703 25.9627 191.012 26.14 190.209 26.14ZM198.029 26.14C197.236 26.14 196.55 25.9673 195.971 25.622C195.402 25.2767 194.959 24.8193 194.641 24.25C194.324 23.6713 194.165 23.046 194.165 22.374C194.165 21.6833 194.319 21.0487 194.627 20.47C194.945 19.882 195.393 19.4153 195.971 19.07C196.55 18.7153 197.241 18.538 198.043 18.538C198.846 18.538 199.532 18.7153 200.101 19.07C200.671 19.4153 201.105 19.8773 201.403 20.456C201.711 21.0253 201.865 21.6413 201.865 22.304C201.865 22.5467 201.851 22.7567 201.823 22.934H196.153C196.2 23.5033 196.41 23.9513 196.783 24.278C197.166 24.6047 197.605 24.768 198.099 24.768C198.473 24.768 198.823 24.6793 199.149 24.502C199.485 24.3153 199.714 24.0727 199.835 23.774L201.445 24.222C201.175 24.782 200.741 25.244 200.143 25.608C199.546 25.9627 198.841 26.14 198.029 26.14ZM196.111 21.744H199.947C199.891 21.1933 199.681 20.75 199.317 20.414C198.963 20.0687 198.529 19.896 198.015 19.896C197.511 19.896 197.077 20.0687 196.713 20.414C196.359 20.75 196.158 21.1933 196.111 21.744Z" fill="#0182F9"/>
<defs>
<linearGradient id="paint0_linear_18_15" x1="218.659" y1="21" x2="-2.1572" y2="29.1978" gradientUnits="userSpaceOnUse">
<stop stop-color="#0182F9"/>
<stop offset="1" stop-color="#0182F9" stop-opacity="0"/>
</linearGradient>
</defs>
</svg>
