<svg width="249" height="42" viewBox="0 0 249 42" fill="none" xmlns="http://www.w3.org/2000/svg">
<path d="M40.844 0H249V42H0.81395L40.844 0Z" fill="url(#paint0_linear_18_15)" fill-opacity="0.5"/>
<path d="M48.825 23.97C48.9464 24.054 49.161 24.1567 49.469 24.278C49.777 24.39 50.141 24.446 50.561 24.446C51.0557 24.446 51.429 24.3387 51.681 24.124C51.933 23.9 52.101 23.5547 52.185 23.088C52.269 22.6213 52.311 22.0147 52.311 21.268V16.06H54.243V21.114C54.243 21.8607 54.201 22.542 54.117 23.158C54.033 23.774 53.8697 24.306 53.627 24.754C53.3844 25.202 53.0157 25.5473 52.521 25.79C52.0357 26.0327 51.387 26.154 50.575 26.154C50.127 26.154 49.7257 26.1027 49.371 26C49.0164 25.8973 48.6897 25.7433 48.391 25.538L48.825 23.97ZM55.3833 23.83C55.3833 23.354 55.5139 22.9387 55.7753 22.584C56.0459 22.22 56.4193 21.94 56.8953 21.744C57.3713 21.548 57.9173 21.45 58.5333 21.45C58.8413 21.45 59.1539 21.478 59.4713 21.534C59.7886 21.5807 60.0639 21.6507 60.2973 21.744V21.352C60.2973 20.8853 60.1573 20.526 59.8773 20.274C59.6066 20.022 59.2006 19.896 58.6593 19.896C58.2579 19.896 57.8753 19.966 57.5113 20.106C57.1473 20.246 56.7646 20.4513 56.3633 20.722L55.7613 19.49C56.2466 19.1727 56.7413 18.9347 57.2453 18.776C57.7586 18.6173 58.2953 18.538 58.8553 18.538C59.9006 18.538 60.7126 18.7993 61.2913 19.322C61.8793 19.8447 62.1733 20.5913 62.1733 21.562V23.9C62.1733 24.1053 62.2059 24.25 62.2713 24.334C62.3366 24.4087 62.4533 24.4553 62.6213 24.474V26C62.4533 26.0373 62.2993 26.0607 62.1593 26.07C62.0286 26.0887 61.9166 26.098 61.8233 26.098C61.4499 26.098 61.1653 26.014 60.9693 25.846C60.7733 25.678 60.6566 25.4727 60.6193 25.23L60.5773 24.852C60.2506 25.272 59.8493 25.594 59.3733 25.818C58.9066 26.0327 58.4259 26.14 57.9313 26.14C57.4366 26.14 56.9979 26.042 56.6153 25.846C56.2326 25.6407 55.9293 25.3653 55.7053 25.02C55.4906 24.6653 55.3833 24.2687 55.3833 23.83ZM59.9473 24.208C60.1806 23.984 60.2973 23.7693 60.2973 23.564V22.822C59.8119 22.626 59.3219 22.528 58.8273 22.528C58.3326 22.528 57.9313 22.6353 57.6233 22.85C57.3153 23.0553 57.1613 23.3307 57.1613 23.676C57.1613 23.956 57.2733 24.208 57.4973 24.432C57.7213 24.656 58.0433 24.768 58.4633 24.768C58.7433 24.768 59.0139 24.7167 59.2753 24.614C59.5459 24.5113 59.7699 24.376 59.9473 24.208ZM70.7443 26H68.8683V21.884C68.8683 21.296 68.7657 20.8667 68.5603 20.596C68.355 20.3253 68.0703 20.19 67.7063 20.19C67.4543 20.19 67.1977 20.2553 66.9363 20.386C66.6843 20.5167 66.4557 20.6987 66.2503 20.932C66.045 21.156 65.8957 21.4173 65.8023 21.716V26H63.9263V18.664H65.6203V20.022C65.891 19.5647 66.283 19.2053 66.7963 18.944C67.3097 18.6733 67.8883 18.538 68.5323 18.538C68.9897 18.538 69.363 18.622 69.6523 18.79C69.9417 18.9487 70.1657 19.168 70.3243 19.448C70.483 19.7187 70.5903 20.0267 70.6463 20.372C70.7117 20.7173 70.7443 21.0673 70.7443 21.422V26ZM80.1628 26.07C79.4348 26.07 78.7722 25.93 78.1748 25.65C77.5868 25.3607 77.0782 24.978 76.6488 24.502C76.2288 24.026 75.9022 23.4893 75.6688 22.892C75.4355 22.2853 75.3188 21.6647 75.3188 21.03C75.3188 20.3673 75.4402 19.7373 75.6828 19.14C75.9255 18.5333 76.2662 17.9967 76.7048 17.53C77.1435 17.054 77.6568 16.6807 78.2448 16.41C78.8422 16.13 79.4955 15.99 80.2048 15.99C80.9235 15.99 81.5768 16.1347 82.1648 16.424C82.7622 16.7133 83.2708 17.1007 83.6908 17.586C84.1202 18.0713 84.4468 18.6173 84.6708 19.224C84.9042 19.8213 85.0208 20.4327 85.0208 21.058C85.0208 21.6927 84.9042 22.3087 84.6708 22.906C84.4468 23.494 84.1295 24.0167 83.7188 24.474L85.0768 26H83.2568L82.6688 25.356C82.3142 25.58 81.9222 25.7573 81.4928 25.888C81.0728 26.0093 80.6295 26.07 80.1628 26.07ZM80.1768 24.362C80.4288 24.362 80.6622 24.334 80.8768 24.278C81.1008 24.2127 81.3062 24.1287 81.4928 24.026L79.9808 22.318H81.8008L82.4868 23.088C82.6735 22.7893 82.8182 22.4627 82.9208 22.108C83.0235 21.7533 83.0748 21.394 83.0748 21.03C83.0748 20.4513 82.9582 19.91 82.7248 19.406C82.4915 18.902 82.1555 18.4913 81.7168 18.174C81.2875 17.8567 80.7742 17.698 80.1768 17.698C79.5515 17.698 79.0242 17.8613 78.5948 18.188C78.1655 18.5147 77.8388 18.9347 77.6148 19.448C77.3908 19.9613 77.2788 20.4887 77.2788 21.03C77.2788 21.6087 77.3908 22.15 77.6148 22.654C77.8482 23.158 78.1795 23.5687 78.6088 23.886C79.0475 24.2033 79.5702 24.362 80.1768 24.362ZM92.0332 24.306V26H86.3492V24.306H88.3372V20.064C88.2252 20.204 88.0339 20.3533 87.7632 20.512C87.5019 20.6707 87.2125 20.806 86.8952 20.918C86.5872 21.03 86.3119 21.086 86.0692 21.086V19.336C86.2372 19.336 86.4379 19.2847 86.6712 19.182C86.9139 19.07 87.1519 18.9393 87.3852 18.79C87.6279 18.6407 87.8332 18.496 88.0012 18.356C88.1785 18.2067 88.2905 18.09 88.3372 18.006H90.2552V24.306H92.0332ZM96.2664 26C96.2664 25.4493 96.3271 24.9593 96.4484 24.53C96.5791 24.1007 96.8031 23.7133 97.1204 23.368C97.4378 23.0227 97.8858 22.6867 98.4644 22.36C98.9778 22.0893 99.4071 21.8607 99.7524 21.674C100.098 21.4873 100.359 21.31 100.536 21.142C100.723 20.9647 100.816 20.7593 100.816 20.526C100.816 20.246 100.704 20.008 100.48 19.812C100.256 19.6067 99.9391 19.504 99.5284 19.504C99.0804 19.504 98.6931 19.6113 98.3664 19.826C98.0491 20.0407 97.7738 20.288 97.5404 20.568L96.3504 19.196C96.5184 19.0187 96.7704 18.8273 97.1064 18.622C97.4424 18.4167 97.8438 18.2393 98.3104 18.09C98.7771 17.9407 99.2904 17.866 99.8504 17.866C100.802 17.866 101.54 18.09 102.062 18.538C102.594 18.9767 102.86 19.546 102.86 20.246C102.86 20.6847 102.758 21.058 102.552 21.366C102.356 21.6647 102.109 21.9213 101.81 22.136C101.521 22.3413 101.241 22.5233 100.97 22.682C100.373 22.9807 99.9018 23.242 99.5564 23.466C99.2204 23.69 98.9498 23.97 98.7444 24.306H103.014V26H96.2664ZM111.547 21.898C111.547 22.7193 111.388 23.452 111.071 24.096C110.763 24.7307 110.333 25.23 109.783 25.594C109.241 25.958 108.625 26.14 107.935 26.14C107.244 26.14 106.623 25.958 106.073 25.594C105.531 25.23 105.102 24.7307 104.785 24.096C104.477 23.452 104.323 22.7193 104.323 21.898C104.323 21.0767 104.477 20.3487 104.785 19.714C105.102 19.07 105.531 18.566 106.073 18.202C106.623 17.8287 107.244 17.642 107.935 17.642C108.625 17.642 109.241 17.8287 109.783 18.202C110.333 18.566 110.763 19.07 111.071 19.714C111.388 20.3487 111.547 21.0767 111.547 21.898ZM109.657 21.898C109.657 21.1513 109.493 20.5447 109.167 20.078C108.849 19.602 108.439 19.364 107.935 19.364C107.412 19.364 106.992 19.602 106.675 20.078C106.357 20.5447 106.199 21.1513 106.199 21.898C106.199 22.6447 106.357 23.2513 106.675 23.718C106.992 24.1847 107.412 24.418 107.935 24.418C108.439 24.418 108.849 24.1847 109.167 23.718C109.493 23.2513 109.657 22.6447 109.657 21.898ZM112.768 26C112.768 25.4493 112.829 24.9593 112.95 24.53C113.081 24.1007 113.305 23.7133 113.622 23.368C113.94 23.0227 114.388 22.6867 114.966 22.36C115.48 22.0893 115.909 21.8607 116.254 21.674C116.6 21.4873 116.861 21.31 117.038 21.142C117.225 20.9647 117.318 20.7593 117.318 20.526C117.318 20.246 117.206 20.008 116.982 19.812C116.758 19.6067 116.441 19.504 116.03 19.504C115.582 19.504 115.195 19.6113 114.868 19.826C114.551 20.0407 114.276 20.288 114.042 20.568L112.852 19.196C113.02 19.0187 113.272 18.8273 113.608 18.622C113.944 18.4167 114.346 18.2393 114.812 18.09C115.279 17.9407 115.792 17.866 116.352 17.866C117.304 17.866 118.042 18.09 118.564 18.538C119.096 18.9767 119.362 19.546 119.362 20.246C119.362 20.6847 119.26 21.058 119.054 21.366C118.858 21.6647 118.611 21.9213 118.312 22.136C118.023 22.3413 117.743 22.5233 117.472 22.682C116.875 22.9807 116.404 23.242 116.058 23.466C115.722 23.69 115.452 23.97 115.246 24.306H119.516V26H112.768ZM120.671 26C120.671 25.4493 120.731 24.9593 120.853 24.53C120.983 24.1007 121.207 23.7133 121.525 23.368C121.842 23.0227 122.29 22.6867 122.869 22.36C123.382 22.0893 123.811 21.8607 124.157 21.674C124.502 21.4873 124.763 21.31 124.941 21.142C125.127 20.9647 125.221 20.7593 125.221 20.526C125.221 20.246 125.109 20.008 124.885 19.812C124.661 19.6067 124.343 19.504 123.933 19.504C123.485 19.504 123.097 19.6113 122.771 19.826C122.453 20.0407 122.178 20.288 121.945 20.568L120.755 19.196C120.923 19.0187 121.175 18.8273 121.511 18.622C121.847 18.4167 122.248 18.2393 122.715 18.09C123.181 17.9407 123.695 17.866 124.255 17.866C125.207 17.866 125.944 18.09 126.467 18.538C126.999 18.9767 127.265 19.546 127.265 20.246C127.265 20.6847 127.162 21.058 126.957 21.366C126.761 21.6647 126.513 21.9213 126.215 22.136C125.925 22.3413 125.645 22.5233 125.375 22.682C124.777 22.9807 124.306 23.242 123.961 23.466C123.625 23.69 123.354 23.97 123.149 24.306H127.419V26H120.671ZM132.44 26V16.06H134.372V26H132.44ZM140.576 26.07C139.923 26.07 139.312 25.9393 138.742 25.678C138.173 25.4167 137.669 25.0573 137.23 24.6C136.801 24.1333 136.465 23.592 136.222 22.976C135.98 22.36 135.858 21.6927 135.858 20.974C135.858 20.2927 135.98 19.6533 136.222 19.056C136.465 18.4493 136.806 17.9173 137.244 17.46C137.683 17.0027 138.196 16.6433 138.784 16.382C139.372 16.1207 140.012 15.99 140.702 15.99C141.626 15.99 142.424 16.1907 143.096 16.592C143.768 16.984 144.272 17.5067 144.608 18.16L143.166 19.224C142.914 18.7387 142.56 18.3653 142.102 18.104C141.654 17.8333 141.164 17.698 140.632 17.698C140.072 17.698 139.578 17.852 139.148 18.16C138.728 18.468 138.397 18.874 138.154 19.378C137.921 19.882 137.804 20.4327 137.804 21.03C137.804 21.6553 137.93 22.22 138.182 22.724C138.434 23.228 138.78 23.6293 139.218 23.928C139.666 24.2173 140.175 24.362 140.744 24.362C141.706 24.362 142.574 23.9093 143.348 23.004V22.304H141.346V20.89H144.944V26H143.348V24.88C142.546 25.6733 141.622 26.07 140.576 26.07ZM150.833 26.07C150.105 26.07 149.442 25.93 148.845 25.65C148.257 25.37 147.748 24.992 147.319 24.516C146.899 24.0307 146.572 23.4893 146.339 22.892C146.105 22.2853 145.989 21.6647 145.989 21.03C145.989 20.3673 146.11 19.7373 146.353 19.14C146.595 18.5333 146.936 17.9967 147.375 17.53C147.813 17.054 148.327 16.6807 148.915 16.41C149.512 16.13 150.165 15.99 150.875 15.99C151.593 15.99 152.247 16.1347 152.835 16.424C153.432 16.7133 153.941 17.1007 154.361 17.586C154.79 18.0713 155.117 18.6173 155.341 19.224C155.574 19.8213 155.691 20.4327 155.691 21.058C155.691 21.7113 155.569 22.3413 155.327 22.948C155.084 23.5453 154.743 24.082 154.305 24.558C153.875 25.0247 153.362 25.3933 152.765 25.664C152.177 25.9347 151.533 26.07 150.833 26.07ZM147.949 21.03C147.949 21.6087 148.061 22.15 148.285 22.654C148.518 23.158 148.849 23.5687 149.279 23.886C149.717 24.2033 150.24 24.362 150.847 24.362C151.472 24.362 151.999 24.1987 152.429 23.872C152.858 23.5453 153.185 23.1253 153.409 22.612C153.633 22.0987 153.745 21.5713 153.745 21.03C153.745 20.4513 153.628 19.91 153.395 19.406C153.161 18.902 152.825 18.496 152.387 18.188C151.957 17.8707 151.444 17.712 150.847 17.712C150.221 17.712 149.694 17.8753 149.265 18.202C148.835 18.5287 148.509 18.9487 148.285 19.462C148.061 19.966 147.949 20.4887 147.949 21.03ZM163.742 26.14C162.939 26.14 162.249 25.9673 161.67 25.622C161.101 25.2673 160.662 24.8007 160.354 24.222C160.046 23.6433 159.892 23.018 159.892 22.346C159.892 21.6647 160.046 21.0347 160.354 20.456C160.671 19.8773 161.115 19.4153 161.684 19.07C162.263 18.7153 162.949 18.538 163.742 18.538C164.535 18.538 165.217 18.7153 165.786 19.07C166.365 19.4153 166.808 19.8773 167.116 20.456C167.424 21.0347 167.578 21.6647 167.578 22.346C167.578 23.018 167.424 23.6433 167.116 24.222C166.808 24.8007 166.365 25.2673 165.786 25.622C165.217 25.9673 164.535 26.14 163.742 26.14ZM161.824 22.346C161.824 22.7753 161.908 23.158 162.076 23.494C162.244 23.8207 162.473 24.0773 162.762 24.264C163.051 24.4507 163.378 24.544 163.742 24.544C164.097 24.544 164.419 24.4507 164.708 24.264C164.997 24.068 165.226 23.8067 165.394 23.48C165.571 23.144 165.66 22.7613 165.66 22.332C165.66 21.912 165.571 21.5387 165.394 21.212C165.226 20.876 164.997 20.6147 164.708 20.428C164.419 20.232 164.097 20.134 163.742 20.134C163.378 20.134 163.051 20.232 162.762 20.428C162.473 20.6147 162.244 20.876 162.076 21.212C161.908 21.5387 161.824 21.9167 161.824 22.346ZM175.662 26H173.786V21.884C173.786 21.296 173.684 20.8667 173.478 20.596C173.273 20.3253 172.988 20.19 172.624 20.19C172.372 20.19 172.116 20.2553 171.854 20.386C171.602 20.5167 171.374 20.6987 171.168 20.932C170.963 21.156 170.814 21.4173 170.72 21.716V26H168.844V18.664H170.538V20.022C170.809 19.5647 171.201 19.2053 171.714 18.944C172.228 18.6733 172.806 18.538 173.45 18.538C173.908 18.538 174.281 18.622 174.57 18.79C174.86 18.9487 175.084 19.168 175.242 19.448C175.401 19.7187 175.508 20.0267 175.564 20.372C175.63 20.7173 175.662 21.0673 175.662 21.422V26ZM188.847 23.438C188.847 23.998 188.702 24.4693 188.413 24.852C188.123 25.2253 187.731 25.51 187.237 25.706C186.751 25.902 186.219 26 185.641 26H180.839V16.06H186.159C186.625 16.06 187.027 16.186 187.363 16.438C187.699 16.6807 187.96 16.998 188.147 17.39C188.333 17.782 188.427 18.1833 188.427 18.594C188.427 19.0793 188.305 19.5367 188.063 19.966C187.82 20.386 187.465 20.6987 186.999 20.904C187.568 21.072 188.016 21.3753 188.343 21.814C188.679 22.2527 188.847 22.794 188.847 23.438ZM182.771 17.712V20.218H185.347C185.664 20.218 185.939 20.106 186.173 19.882C186.406 19.658 186.523 19.35 186.523 18.958C186.523 18.5847 186.415 18.286 186.201 18.062C185.995 17.8287 185.739 17.712 185.431 17.712H182.771ZM186.901 23.074C186.901 22.71 186.789 22.3973 186.565 22.136C186.341 21.8747 186.065 21.744 185.739 21.744H182.771V24.362H185.641C185.995 24.362 186.294 24.236 186.537 23.984C186.779 23.732 186.901 23.4287 186.901 23.074ZM190.172 17.642V15.78H192.048V17.642H190.172ZM190.172 26V18.664H192.048V26H190.172ZM200.559 26H198.683V21.884C198.683 21.296 198.58 20.8667 198.375 20.596C198.169 20.3253 197.885 20.19 197.521 20.19C197.269 20.19 197.012 20.2553 196.751 20.386C196.499 20.5167 196.27 20.6987 196.065 20.932C195.859 21.156 195.71 21.4173 195.617 21.716V26H193.741V18.664H195.435V20.022C195.705 19.5647 196.097 19.2053 196.611 18.944C197.124 18.6733 197.703 18.538 198.347 18.538C198.804 18.538 199.177 18.622 199.467 18.79C199.756 18.9487 199.98 19.168 200.139 19.448C200.297 19.7187 200.405 20.0267 200.461 20.372C200.526 20.7173 200.559 21.0673 200.559 21.422V26ZM201.686 23.83C201.686 23.354 201.817 22.9387 202.078 22.584C202.349 22.22 202.722 21.94 203.198 21.744C203.674 21.548 204.22 21.45 204.836 21.45C205.144 21.45 205.457 21.478 205.774 21.534C206.091 21.5807 206.367 21.6507 206.6 21.744V21.352C206.6 20.8853 206.46 20.526 206.18 20.274C205.909 20.022 205.503 19.896 204.962 19.896C204.561 19.896 204.178 19.966 203.814 20.106C203.45 20.246 203.067 20.4513 202.666 20.722L202.064 19.49C202.549 19.1727 203.044 18.9347 203.548 18.776C204.061 18.6173 204.598 18.538 205.158 18.538C206.203 18.538 207.015 18.7993 207.594 19.322C208.182 19.8447 208.476 20.5913 208.476 21.562V23.9C208.476 24.1053 208.509 24.25 208.574 24.334C208.639 24.4087 208.756 24.4553 208.924 24.474V26C208.756 26.0373 208.602 26.0607 208.462 26.07C208.331 26.0887 208.219 26.098 208.126 26.098C207.753 26.098 207.468 26.014 207.272 25.846C207.076 25.678 206.959 25.4727 206.922 25.23L206.88 24.852C206.553 25.272 206.152 25.594 205.676 25.818C205.209 26.0327 204.729 26.14 204.234 26.14C203.739 26.14 203.301 26.042 202.918 25.846C202.535 25.6407 202.232 25.3653 202.008 25.02C201.793 24.6653 201.686 24.2687 201.686 23.83ZM206.25 24.208C206.483 23.984 206.6 23.7693 206.6 23.564V22.822C206.115 22.626 205.625 22.528 205.13 22.528C204.635 22.528 204.234 22.6353 203.926 22.85C203.618 23.0553 203.464 23.3307 203.464 23.676C203.464 23.956 203.576 24.208 203.8 24.432C204.024 24.656 204.346 24.768 204.766 24.768C205.046 24.768 205.317 24.7167 205.578 24.614C205.849 24.5113 206.073 24.376 206.25 24.208ZM217.047 26H215.171V21.884C215.171 21.296 215.068 20.8667 214.863 20.596C214.658 20.3253 214.373 20.19 214.009 20.19C213.757 20.19 213.5 20.2553 213.239 20.386C212.987 20.5167 212.758 20.6987 212.553 20.932C212.348 21.156 212.198 21.4173 212.105 21.716V26H210.229V18.664H211.923V20.022C212.194 19.5647 212.586 19.2053 213.099 18.944C213.612 18.6733 214.191 18.538 214.835 18.538C215.292 18.538 215.666 18.622 215.955 18.79C216.244 18.9487 216.468 19.168 216.627 19.448C216.786 19.7187 216.893 20.0267 216.949 20.372C217.014 20.7173 217.047 21.0673 217.047 21.422V26ZM222.094 26.14C221.301 26.14 220.615 25.9627 220.036 25.608C219.458 25.2533 219.01 24.7867 218.692 24.208C218.375 23.6293 218.216 23.004 218.216 22.332C218.216 21.6507 218.37 21.0207 218.678 20.442C218.996 19.8633 219.444 19.4013 220.022 19.056C220.601 18.7107 221.287 18.538 222.08 18.538C222.883 18.538 223.564 18.7107 224.124 19.056C224.694 19.4013 225.118 19.854 225.398 20.414L223.564 20.974C223.238 20.414 222.738 20.134 222.066 20.134C221.702 20.134 221.376 20.2273 221.086 20.414C220.797 20.5913 220.568 20.848 220.4 21.184C220.232 21.5107 220.148 21.8933 220.148 22.332C220.148 22.7613 220.232 23.144 220.4 23.48C220.578 23.8067 220.811 24.068 221.1 24.264C221.39 24.4507 221.712 24.544 222.066 24.544C222.402 24.544 222.71 24.4647 222.99 24.306C223.28 24.138 223.48 23.928 223.592 23.676L225.426 24.236C225.174 24.7867 224.754 25.244 224.166 25.608C223.588 25.9627 222.897 26.14 222.094 26.14ZM229.914 26.14C229.121 26.14 228.435 25.9673 227.856 25.622C227.287 25.2767 226.844 24.8193 226.526 24.25C226.209 23.6713 226.05 23.046 226.05 22.374C226.05 21.6833 226.204 21.0487 226.512 20.47C226.83 19.882 227.278 19.4153 227.856 19.07C228.435 18.7153 229.126 18.538 229.928 18.538C230.731 18.538 231.417 18.7153 231.986 19.07C232.556 19.4153 232.99 19.8773 233.288 20.456C233.596 21.0253 233.75 21.6413 233.75 22.304C233.75 22.5467 233.736 22.7567 233.708 22.934H228.038C228.085 23.5033 228.295 23.9513 228.668 24.278C229.051 24.6047 229.49 24.768 229.984 24.768C230.358 24.768 230.708 24.6793 231.034 24.502C231.37 24.3153 231.599 24.0727 231.72 23.774L233.33 24.222C233.06 24.782 232.626 25.244 232.028 25.608C231.431 25.9627 230.726 26.14 229.914 26.14ZM227.996 21.744H231.832C231.776 21.1933 231.566 20.75 231.202 20.414C230.848 20.0687 230.414 19.896 229.9 19.896C229.396 19.896 228.962 20.0687 228.598 20.414C228.244 20.75 228.043 21.1933 227.996 21.744Z" fill="#0182F9"/>
<defs>
<linearGradient id="paint0_linear_18_15" x1="241.995" y1="21" x2="-1.8806" y2="31.0024" gradientUnits="userSpaceOnUse">
<stop stop-color="#0182F9"/>
<stop offset="1" stop-color="#0182F9" stop-opacity="0"/>
</linearGradient>
</defs>
</svg>
