<svg width="230" height="42" viewBox="0 0 230 42" fill="none" xmlns="http://www.w3.org/2000/svg">
<path d="M37.0968 0H230V42H0L37.0968 0Z" fill="url(#paint0_linear_18_15)" fill-opacity="0.5"/>
<path d="M44.532 23.97C44.6533 24.054 44.868 24.1567 45.176 24.278C45.484 24.39 45.848 24.446 46.268 24.446C46.632 24.446 46.9307 24.3853 47.164 24.264C47.3973 24.1333 47.5747 23.942 47.696 23.69C47.8267 23.438 47.9107 23.1113 47.948 22.71C47.9947 22.3087 48.018 21.828 48.018 21.268V16.06H49.95V21.114C49.95 21.8607 49.908 22.542 49.824 23.158C49.74 23.774 49.5767 24.306 49.334 24.754C49.0913 25.202 48.7227 25.5473 48.228 25.79C47.7427 26.0327 47.094 26.154 46.282 26.154C45.834 26.154 45.4327 26.1027 45.078 26C44.7233 25.8973 44.3967 25.7433 44.098 25.538L44.532 23.97ZM51.0902 23.83C51.0902 23.354 51.2209 22.9387 51.4822 22.584C51.7529 22.22 52.1262 21.94 52.6022 21.744C53.0782 21.548 53.6242 21.45 54.2402 21.45C54.5482 21.45 54.8609 21.4733 55.1782 21.52C55.4956 21.5667 55.7709 21.6413 56.0042 21.744V21.352C56.0042 20.8853 55.8642 20.526 55.5842 20.274C55.3136 20.022 54.9076 19.896 54.3662 19.896C53.9649 19.896 53.5822 19.966 53.2182 20.106C52.8542 20.246 52.4716 20.4513 52.0702 20.722L51.4682 19.49C51.9536 19.1727 52.4482 18.9347 52.9522 18.776C53.4656 18.6173 54.0022 18.538 54.5622 18.538C55.6076 18.538 56.4196 18.7993 56.9982 19.322C57.5862 19.8447 57.8802 20.5913 57.8802 21.562V23.9C57.8802 24.096 57.9129 24.236 57.9782 24.32C58.0529 24.404 58.1696 24.4553 58.3282 24.474V26C58.1602 26.028 58.0062 26.0513 57.8662 26.07C57.7356 26.0887 57.6236 26.098 57.5302 26.098C57.1569 26.098 56.8722 26.014 56.6762 25.846C56.4896 25.678 56.3729 25.4727 56.3262 25.23L56.2842 24.852C55.9669 25.2627 55.5702 25.58 55.0942 25.804C54.6182 26.028 54.1329 26.14 53.6382 26.14C53.1529 26.14 52.7142 26.042 52.3222 25.846C51.9396 25.6407 51.6362 25.3653 51.4122 25.02C51.1976 24.6653 51.0902 24.2687 51.0902 23.83ZM55.6542 24.208C55.7569 24.096 55.8409 23.984 55.9062 23.872C55.9716 23.76 56.0042 23.6573 56.0042 23.564V22.822C55.7802 22.7287 55.5376 22.6587 55.2762 22.612C55.0149 22.556 54.7676 22.528 54.5342 22.528C54.0489 22.528 53.6476 22.6353 53.3302 22.85C53.0222 23.0553 52.8682 23.3307 52.8682 23.676C52.8682 23.8627 52.9196 24.04 53.0222 24.208C53.1249 24.376 53.2742 24.5113 53.4702 24.614C53.6662 24.7167 53.8996 24.768 54.1702 24.768C54.4502 24.768 54.7256 24.7167 54.9962 24.614C55.2669 24.502 55.4862 24.3667 55.6542 24.208ZM66.4513 26H64.5753V21.884C64.5753 21.296 64.4726 20.8667 64.2673 20.596C64.062 20.3253 63.7773 20.19 63.4133 20.19C63.1613 20.19 62.9046 20.2553 62.6433 20.386C62.3913 20.5167 62.1626 20.6987 61.9573 20.932C61.752 21.156 61.6026 21.4173 61.5093 21.716V26H59.6333V18.664H61.3273V20.022C61.514 19.7047 61.752 19.4387 62.0413 19.224C62.3306 19 62.662 18.832 63.0353 18.72C63.418 18.5987 63.8193 18.538 64.2393 18.538C64.6966 18.538 65.07 18.622 65.3593 18.79C65.658 18.9487 65.882 19.168 66.0313 19.448C66.19 19.7187 66.2973 20.0267 66.3533 20.372C66.4186 20.7173 66.4513 21.0673 66.4513 21.422V26ZM71.1238 26C71.1238 25.58 71.1565 25.202 71.2218 24.866C71.2871 24.53 71.3991 24.2173 71.5578 23.928C71.7258 23.6387 71.9498 23.368 72.2298 23.116C72.5191 22.8547 72.8831 22.6027 73.3218 22.36C73.7045 22.1547 74.0405 21.9773 74.3298 21.828C74.6191 21.6693 74.8618 21.5247 75.0578 21.394C75.2631 21.2633 75.4171 21.1327 75.5198 21.002C75.6225 20.862 75.6738 20.7033 75.6738 20.526C75.6738 20.3393 75.6225 20.1713 75.5198 20.022C75.4171 19.8633 75.2725 19.7373 75.0858 19.644C74.8991 19.5507 74.6658 19.504 74.3858 19.504C74.1618 19.504 73.9518 19.532 73.7558 19.588C73.5691 19.644 73.3918 19.7233 73.2238 19.826C73.0651 19.9287 72.9158 20.0453 72.7758 20.176C72.6358 20.2973 72.5098 20.428 72.3978 20.568L71.2078 19.196C71.3385 19.0653 71.5111 18.9253 71.7258 18.776C71.9498 18.6173 72.2111 18.4727 72.5098 18.342C72.8178 18.202 73.1538 18.09 73.5178 18.006C73.8911 17.9127 74.2878 17.866 74.7078 17.866C75.3425 17.866 75.8838 17.9687 76.3318 18.174C76.7798 18.37 77.1205 18.6453 77.3538 19C77.5965 19.3547 77.7178 19.77 77.7178 20.246C77.7178 20.5727 77.6571 20.862 77.5358 21.114C77.4145 21.366 77.2605 21.59 77.0738 21.786C76.8871 21.9727 76.6818 22.1407 76.4578 22.29C76.2431 22.4393 76.0331 22.57 75.8278 22.682C75.5385 22.8313 75.2771 22.9713 75.0438 23.102C74.8105 23.2233 74.6051 23.3493 74.4278 23.48C74.2505 23.6013 74.0918 23.7273 73.9518 23.858C73.8211 23.9887 73.7045 24.138 73.6018 24.306H77.8718V26H71.1238ZM86.4041 21.898C86.4041 22.7193 86.2455 23.452 85.9281 24.096C85.6201 24.7307 85.1908 25.23 84.6401 25.594C84.0988 25.958 83.4828 26.14 82.7921 26.14C82.1015 26.14 81.4808 25.958 80.9301 25.594C80.3888 25.23 79.9595 24.7307 79.6421 24.096C79.3341 23.452 79.1801 22.7193 79.1801 21.898C79.1801 21.0767 79.3341 20.3487 79.6421 19.714C79.9595 19.07 80.3888 18.566 80.9301 18.202C81.4808 17.8287 82.1015 17.642 82.7921 17.642C83.4828 17.642 84.0988 17.8287 84.6401 18.202C85.1908 18.566 85.6201 19.07 85.9281 19.714C86.2455 20.3487 86.4041 21.0767 86.4041 21.898ZM84.5141 21.898C84.5141 21.394 84.4395 20.9553 84.2901 20.582C84.1501 20.1993 83.9495 19.9007 83.6881 19.686C83.4268 19.4713 83.1281 19.364 82.7921 19.364C82.4468 19.364 82.1435 19.4713 81.8821 19.686C81.6208 19.9007 81.4155 20.1993 81.2661 20.582C81.1261 20.9553 81.0561 21.394 81.0561 21.898C81.0561 22.402 81.1261 22.8407 81.2661 23.214C81.4155 23.5873 81.6208 23.8813 81.8821 24.096C82.1435 24.3107 82.4468 24.418 82.7921 24.418C83.1281 24.418 83.4221 24.3107 83.6741 24.096C83.9355 23.8813 84.1408 23.5873 84.2901 23.214C84.4395 22.8313 84.5141 22.3927 84.5141 21.898ZM87.6258 26C87.6258 25.58 87.6584 25.202 87.7238 24.866C87.7891 24.53 87.9011 24.2173 88.0598 23.928C88.2278 23.6387 88.4518 23.368 88.7318 23.116C89.0211 22.8547 89.3851 22.6027 89.8238 22.36C90.2064 22.1547 90.5424 21.9773 90.8318 21.828C91.1211 21.6693 91.3638 21.5247 91.5598 21.394C91.7651 21.2633 91.9191 21.1327 92.0218 21.002C92.1244 20.862 92.1758 20.7033 92.1758 20.526C92.1758 20.3393 92.1244 20.1713 92.0218 20.022C91.9191 19.8633 91.7744 19.7373 91.5878 19.644C91.4011 19.5507 91.1678 19.504 90.8878 19.504C90.6638 19.504 90.4538 19.532 90.2578 19.588C90.0711 19.644 89.8938 19.7233 89.7258 19.826C89.5671 19.9287 89.4178 20.0453 89.2778 20.176C89.1378 20.2973 89.0118 20.428 88.8998 20.568L87.7098 19.196C87.8404 19.0653 88.0131 18.9253 88.2278 18.776C88.4518 18.6173 88.7131 18.4727 89.0118 18.342C89.3198 18.202 89.6558 18.09 90.0198 18.006C90.3931 17.9127 90.7898 17.866 91.2097 17.866C91.8444 17.866 92.3858 17.9687 92.8338 18.174C93.2818 18.37 93.6224 18.6453 93.8558 19C94.0984 19.3547 94.2198 19.77 94.2198 20.246C94.2198 20.5727 94.1591 20.862 94.0378 21.114C93.9164 21.366 93.7624 21.59 93.5758 21.786C93.3891 21.9727 93.1838 22.1407 92.9598 22.29C92.7451 22.4393 92.5351 22.57 92.3298 22.682C92.0404 22.8313 91.7791 22.9713 91.5458 23.102C91.3124 23.2233 91.1071 23.3493 90.9298 23.48C90.7524 23.6013 90.5938 23.7273 90.4538 23.858C90.3231 23.9887 90.2064 24.138 90.1038 24.306H94.3738V26H87.6258ZM102.906 21.898C102.906 22.7193 102.747 23.452 102.43 24.096C102.122 24.7307 101.693 25.23 101.142 25.594C100.601 25.958 99.9848 26.14 99.2941 26.14C98.6034 26.14 97.9828 25.958 97.4321 25.594C96.8908 25.23 96.4614 24.7307 96.1441 24.096C95.8361 23.452 95.6821 22.7193 95.6821 21.898C95.6821 21.0767 95.8361 20.3487 96.1441 19.714C96.4614 19.07 96.8908 18.566 97.4321 18.202C97.9828 17.8287 98.6034 17.642 99.2941 17.642C99.9848 17.642 100.601 17.8287 101.142 18.202C101.693 18.566 102.122 19.07 102.43 19.714C102.747 20.3487 102.906 21.0767 102.906 21.898ZM101.016 21.898C101.016 21.394 100.941 20.9553 100.792 20.582C100.652 20.1993 100.451 19.9007 100.19 19.686C99.9288 19.4713 99.6301 19.364 99.2941 19.364C98.9488 19.364 98.6454 19.4713 98.3841 19.686C98.1228 19.9007 97.9174 20.1993 97.7681 20.582C97.6281 20.9553 97.5581 21.394 97.5581 21.898C97.5581 22.402 97.6281 22.8407 97.7681 23.214C97.9174 23.5873 98.1228 23.8813 98.3841 24.096C98.6454 24.3107 98.9488 24.418 99.2941 24.418C99.6301 24.418 99.9241 24.3107 100.176 24.096C100.437 23.8813 100.643 23.5873 100.792 23.214C100.941 22.8313 101.016 22.3927 101.016 21.898ZM107.995 26V16.06H109.927V26H107.995ZM116.131 26.07C115.487 26.07 114.876 25.9393 114.297 25.678C113.728 25.4167 113.224 25.0573 112.785 24.6C112.356 24.1333 112.02 23.592 111.777 22.976C111.534 22.36 111.413 21.6927 111.413 20.974C111.413 20.2927 111.534 19.6533 111.777 19.056C112.02 18.4493 112.36 17.9173 112.799 17.46C113.238 17.0027 113.751 16.6433 114.339 16.382C114.927 16.1207 115.566 15.99 116.257 15.99C117.19 15.99 117.988 16.1907 118.651 16.592C119.323 16.984 119.827 17.5067 120.163 18.16L118.721 19.224C118.469 18.7293 118.114 18.3513 117.657 18.09C117.209 17.8287 116.719 17.698 116.187 17.698C115.767 17.698 115.384 17.7867 115.039 17.964C114.694 18.1413 114.395 18.384 114.143 18.692C113.891 19 113.695 19.3547 113.555 19.756C113.424 20.1573 113.359 20.582 113.359 21.03C113.359 21.506 113.429 21.9447 113.569 22.346C113.718 22.7473 113.924 23.0973 114.185 23.396C114.456 23.6947 114.768 23.9327 115.123 24.11C115.478 24.278 115.87 24.362 116.299 24.362C116.803 24.362 117.284 24.2313 117.741 23.97C118.208 23.7087 118.642 23.326 119.043 22.822V24.726C118.212 25.622 117.242 26.07 116.131 26.07ZM118.903 22.304H116.901V20.89H120.499V26H118.903V22.304ZM126.387 26.07C125.659 26.07 124.997 25.93 124.399 25.65C123.811 25.37 123.303 24.992 122.873 24.516C122.453 24.0307 122.127 23.4893 121.893 22.892C121.66 22.2853 121.543 21.6647 121.543 21.03C121.543 20.3673 121.665 19.7373 121.907 19.14C122.159 18.5333 122.5 17.9967 122.929 17.53C123.368 17.054 123.881 16.6807 124.469 16.41C125.067 16.13 125.72 15.99 126.429 15.99C127.148 15.99 127.801 16.1347 128.389 16.424C128.987 16.7133 129.495 17.1007 129.915 17.586C130.335 18.0713 130.662 18.6127 130.895 19.21C131.129 19.8073 131.245 20.4233 131.245 21.058C131.245 21.7113 131.124 22.3413 130.881 22.948C130.639 23.5453 130.298 24.082 129.859 24.558C129.43 25.0247 128.917 25.3933 128.319 25.664C127.731 25.9347 127.087 26.07 126.387 26.07ZM123.503 21.03C123.503 21.4593 123.569 21.8747 123.699 22.276C123.83 22.6773 124.017 23.0367 124.259 23.354C124.511 23.662 124.815 23.9093 125.169 24.096C125.533 24.2733 125.944 24.362 126.401 24.362C126.868 24.362 127.283 24.2687 127.647 24.082C128.011 23.886 128.315 23.6293 128.557 23.312C128.8 22.9853 128.982 22.626 129.103 22.234C129.234 21.8327 129.299 21.4313 129.299 21.03C129.299 20.6007 129.229 20.19 129.089 19.798C128.959 19.3967 128.767 19.042 128.515 18.734C128.273 18.4167 127.969 18.1693 127.605 17.992C127.251 17.8053 126.849 17.712 126.401 17.712C125.925 17.712 125.505 17.81 125.141 18.006C124.787 18.1927 124.488 18.4447 124.245 18.762C124.003 19.0793 123.816 19.434 123.685 19.826C123.564 20.218 123.503 20.6193 123.503 21.03ZM139.297 26.14C138.699 26.14 138.163 26.042 137.687 25.846C137.211 25.6407 136.805 25.3607 136.469 25.006C136.142 24.6513 135.89 24.2453 135.713 23.788C135.535 23.3307 135.447 22.85 135.447 22.346C135.447 21.8327 135.535 21.3473 135.713 20.89C135.89 20.4327 136.142 20.0267 136.469 19.672C136.805 19.3173 137.211 19.042 137.687 18.846C138.163 18.6407 138.699 18.538 139.297 18.538C139.894 18.538 140.426 18.6407 140.893 18.846C141.369 19.042 141.775 19.3173 142.111 19.672C142.447 20.0267 142.699 20.4327 142.867 20.89C143.044 21.3473 143.133 21.8327 143.133 22.346C143.133 22.85 143.044 23.3307 142.867 23.788C142.699 24.2453 142.447 24.6513 142.111 25.006C141.784 25.3607 141.383 25.6407 140.907 25.846C140.431 26.042 139.894 26.14 139.297 26.14ZM137.379 22.346C137.379 22.7753 137.463 23.158 137.631 23.494C137.799 23.8207 138.027 24.0773 138.317 24.264C138.606 24.4507 138.933 24.544 139.297 24.544C139.651 24.544 139.973 24.4507 140.263 24.264C140.552 24.068 140.781 23.8067 140.949 23.48C141.126 23.144 141.215 22.7613 141.215 22.332C141.215 21.912 141.126 21.534 140.949 21.198C140.781 20.862 140.552 20.6007 140.263 20.414C139.973 20.2273 139.651 20.134 139.297 20.134C138.933 20.134 138.606 20.232 138.317 20.428C138.027 20.6147 137.799 20.876 137.631 21.212C137.463 21.5387 137.379 21.9167 137.379 22.346ZM151.217 26H149.341V21.884C149.341 21.296 149.238 20.8667 149.033 20.596C148.828 20.3253 148.543 20.19 148.179 20.19C147.927 20.19 147.67 20.2553 147.409 20.386C147.157 20.5167 146.928 20.6987 146.723 20.932C146.518 21.156 146.368 21.4173 146.275 21.716V26H144.399V18.664H146.093V20.022C146.28 19.7047 146.518 19.4387 146.807 19.224C147.096 19 147.428 18.832 147.801 18.72C148.184 18.5987 148.585 18.538 149.005 18.538C149.462 18.538 149.836 18.622 150.125 18.79C150.424 18.9487 150.648 19.168 150.797 19.448C150.956 19.7187 151.063 20.0267 151.119 20.372C151.184 20.7173 151.217 21.0673 151.217 21.422V26ZM164.401 23.438C164.401 23.998 164.257 24.4693 163.967 24.852C163.678 25.2253 163.286 25.51 162.791 25.706C162.306 25.902 161.774 26 161.195 26H156.393V16.06H161.713C162.18 16.06 162.581 16.186 162.917 16.438C163.263 16.6807 163.524 16.998 163.701 17.39C163.888 17.7727 163.981 18.174 163.981 18.594C163.981 19.07 163.86 19.5227 163.617 19.952C163.375 20.3813 163.02 20.6987 162.553 20.904C163.123 21.072 163.571 21.3753 163.897 21.814C164.233 22.2527 164.401 22.794 164.401 23.438ZM162.455 23.074C162.455 22.822 162.404 22.598 162.301 22.402C162.199 22.1967 162.059 22.038 161.881 21.926C161.713 21.8047 161.517 21.744 161.293 21.744H158.325V24.362H161.195C161.429 24.362 161.639 24.306 161.825 24.194C162.021 24.0727 162.175 23.914 162.287 23.718C162.399 23.522 162.455 23.3073 162.455 23.074ZM158.325 17.712V20.218H160.901C161.116 20.218 161.312 20.1667 161.489 20.064C161.667 19.9613 161.807 19.8167 161.909 19.63C162.021 19.4433 162.077 19.2193 162.077 18.958C162.077 18.706 162.026 18.4867 161.923 18.3C161.83 18.1133 161.699 17.9687 161.531 17.866C161.373 17.7633 161.191 17.712 160.985 17.712H158.325ZM165.727 26V18.664H167.603V26H165.727ZM165.727 17.642V15.78H167.603V17.642H165.727ZM176.113 26H174.237V21.884C174.237 21.296 174.135 20.8667 173.929 20.596C173.724 20.3253 173.439 20.19 173.075 20.19C172.823 20.19 172.567 20.2553 172.305 20.386C172.053 20.5167 171.825 20.6987 171.619 20.932C171.414 21.156 171.265 21.4173 171.171 21.716V26H169.295V18.664H170.989V20.022C171.176 19.7047 171.414 19.4387 171.703 19.224C171.993 19 172.324 18.832 172.697 18.72C173.08 18.5987 173.481 18.538 173.901 18.538C174.359 18.538 174.732 18.622 175.021 18.79C175.32 18.9487 175.544 19.168 175.693 19.448C175.852 19.7187 175.959 20.0267 176.015 20.372C176.081 20.7173 176.113 21.0673 176.113 21.422V26ZM177.241 23.83C177.241 23.354 177.371 22.9387 177.633 22.584C177.903 22.22 178.277 21.94 178.753 21.744C179.229 21.548 179.775 21.45 180.391 21.45C180.699 21.45 181.011 21.4733 181.329 21.52C181.646 21.5667 181.921 21.6413 182.155 21.744V21.352C182.155 20.8853 182.015 20.526 181.735 20.274C181.464 20.022 181.058 19.896 180.517 19.896C180.115 19.896 179.733 19.966 179.369 20.106C179.005 20.246 178.622 20.4513 178.221 20.722L177.619 19.49C178.104 19.1727 178.599 18.9347 179.103 18.776C179.616 18.6173 180.153 18.538 180.713 18.538C181.758 18.538 182.57 18.7993 183.149 19.322C183.737 19.8447 184.031 20.5913 184.031 21.562V23.9C184.031 24.096 184.063 24.236 184.129 24.32C184.203 24.404 184.32 24.4553 184.479 24.474V26C184.311 26.028 184.157 26.0513 184.017 26.07C183.886 26.0887 183.774 26.098 183.681 26.098C183.307 26.098 183.023 26.014 182.827 25.846C182.64 25.678 182.523 25.4727 182.477 25.23L182.435 24.852C182.117 25.2627 181.721 25.58 181.245 25.804C180.769 26.028 180.283 26.14 179.789 26.14C179.303 26.14 178.865 26.042 178.473 25.846C178.09 25.6407 177.787 25.3653 177.563 25.02C177.348 24.6653 177.241 24.2687 177.241 23.83ZM181.805 24.208C181.907 24.096 181.991 23.984 182.057 23.872C182.122 23.76 182.155 23.6573 182.155 23.564V22.822C181.931 22.7287 181.688 22.6587 181.427 22.612C181.165 22.556 180.918 22.528 180.685 22.528C180.199 22.528 179.798 22.6353 179.481 22.85C179.173 23.0553 179.019 23.3307 179.019 23.676C179.019 23.8627 179.07 24.04 179.173 24.208C179.275 24.376 179.425 24.5113 179.621 24.614C179.817 24.7167 180.05 24.768 180.321 24.768C180.601 24.768 180.876 24.7167 181.147 24.614C181.417 24.502 181.637 24.3667 181.805 24.208ZM192.602 26H190.726V21.884C190.726 21.296 190.623 20.8667 190.418 20.596C190.212 20.3253 189.928 20.19 189.564 20.19C189.312 20.19 189.055 20.2553 188.794 20.386C188.542 20.5167 188.313 20.6987 188.108 20.932C187.902 21.156 187.753 21.4173 187.66 21.716V26H185.784V18.664H187.478V20.022C187.664 19.7047 187.902 19.4387 188.192 19.224C188.481 19 188.812 18.832 189.186 18.72C189.568 18.5987 189.97 18.538 190.39 18.538C190.847 18.538 191.22 18.622 191.51 18.79C191.808 18.9487 192.032 19.168 192.182 19.448C192.34 19.7187 192.448 20.0267 192.504 20.372C192.569 20.7173 192.602 21.0673 192.602 21.422V26ZM197.649 26.14C197.052 26.14 196.515 26.042 196.039 25.846C195.563 25.6407 195.157 25.3607 194.821 25.006C194.485 24.642 194.224 24.2313 194.037 23.774C193.86 23.3167 193.771 22.836 193.771 22.332C193.771 21.6413 193.925 21.0113 194.233 20.442C194.55 19.8633 194.998 19.4013 195.577 19.056C196.156 18.7107 196.842 18.538 197.635 18.538C198.428 18.538 199.11 18.7107 199.679 19.056C200.248 19.4013 200.673 19.854 200.953 20.414L199.119 20.974C198.96 20.7033 198.75 20.498 198.489 20.358C198.228 20.2087 197.938 20.134 197.621 20.134C197.266 20.134 196.94 20.2273 196.641 20.414C196.352 20.5913 196.123 20.848 195.955 21.184C195.787 21.5107 195.703 21.8933 195.703 22.332C195.703 22.7613 195.787 23.144 195.955 23.48C196.132 23.8067 196.366 24.068 196.655 24.264C196.944 24.4507 197.266 24.544 197.621 24.544C197.845 24.544 198.055 24.5067 198.251 24.432C198.456 24.3573 198.638 24.2547 198.797 24.124C198.956 23.9933 199.072 23.844 199.147 23.676L200.981 24.236C200.813 24.6 200.566 24.9267 200.239 25.216C199.922 25.5053 199.544 25.734 199.105 25.902C198.676 26.0607 198.19 26.14 197.649 26.14ZM205.469 26.14C204.881 26.14 204.349 26.042 203.873 25.846C203.397 25.6407 202.991 25.3653 202.655 25.02C202.319 24.6653 202.058 24.264 201.871 23.816C201.694 23.3587 201.605 22.878 201.605 22.374C201.605 21.674 201.759 21.0347 202.067 20.456C202.384 19.8773 202.832 19.4153 203.411 19.07C203.999 18.7153 204.69 18.538 205.483 18.538C206.286 18.538 206.972 18.7153 207.541 19.07C208.11 19.4153 208.544 19.8773 208.843 20.456C209.151 21.0253 209.305 21.6413 209.305 22.304C209.305 22.416 209.3 22.5327 209.291 22.654C209.282 22.766 209.272 22.8593 209.263 22.934H203.593C203.63 23.3073 203.738 23.634 203.915 23.914C204.102 24.194 204.335 24.4087 204.615 24.558C204.904 24.698 205.212 24.768 205.539 24.768C205.912 24.768 206.262 24.6793 206.589 24.502C206.925 24.3153 207.154 24.0727 207.275 23.774L208.885 24.222C208.708 24.5953 208.451 24.9267 208.115 25.216C207.788 25.5053 207.401 25.734 206.953 25.902C206.505 26.0607 206.01 26.14 205.469 26.14ZM203.551 21.744H207.387C207.35 21.3707 207.242 21.0487 207.065 20.778C206.897 20.498 206.673 20.2833 206.393 20.134C206.113 19.9753 205.8 19.896 205.455 19.896C205.119 19.896 204.811 19.9753 204.531 20.134C204.26 20.2833 204.036 20.498 203.859 20.778C203.691 21.0487 203.588 21.3707 203.551 21.744Z" fill="#0182F9"/>
<defs>
<linearGradient id="paint0_linear_18_15" x1="223.508" y1="21" x2="-2.5507" y2="29.5923" gradientUnits="userSpaceOnUse">
<stop stop-color="#0182F9"/>
<stop offset="1" stop-color="#0182F9" stop-opacity="0"/>
</linearGradient>
</defs>
</svg>
