<?xml version="1.0" encoding="utf-8"?>
<!-- Generator: Adobe Illustrator 26.0.3, SVG Export Plug-In . SVG Version: 6.00 Build 0)  -->
<!DOCTYPE svg PUBLIC "-//W3C//DTD SVG 1.1//EN" "http://www.w3.org/Graphics/SVG/1.1/DTD/svg11.dtd" [
	<!ENTITY ns_extend "http://ns.adobe.com/Extensibility/1.0/">
	<!ENTITY ns_ai "http://ns.adobe.com/AdobeIllustrator/10.0/">
	<!ENTITY ns_graphs "http://ns.adobe.com/Graphs/1.0/">
	<!ENTITY ns_vars "http://ns.adobe.com/Variables/1.0/">
	<!ENTITY ns_imrep "http://ns.adobe.com/ImageReplacement/1.0/">
	<!ENTITY ns_sfw "http://ns.adobe.com/SaveForWeb/1.0/">
	<!ENTITY ns_custom "http://ns.adobe.com/GenericCustomNamespace/1.0/">
	<!ENTITY ns_adobe_xpath "http://ns.adobe.com/XPath/1.0/">
]>
<svg version="1.1" id="Layer_1" xmlns:x="&ns_extend;" xmlns:i="&ns_ai;" xmlns:graph="&ns_graphs;"
	 xmlns="http://www.w3.org/2000/svg" xmlns:xlink="http://www.w3.org/1999/xlink" x="0px" y="0px" width="400px" height="400px"
	 viewBox="-100 -30 650 650" enable-background="new 0 0 650 650" xml:space="preserve">
<metadata>
	<sfw  xmlns="&ns_sfw;">
		<slices></slices>
		<sliceSourceBounds  bottomLeftOrigin="true" height="1212.363" width="2589.979" x="8.803" y="-1398.495"></sliceSourceBounds>
	</sfw>
</metadata>
<g>
	<path d="M292.785,233.131c-22.834-34.976-45.648-69.92-68.592-105.065c0.613,0,0.993,0,1.373,0c29.671,0,59.341,0.004,89.012-0.021
		c0.903-0.001,1.423,0.257,1.928,1.023c7.263,11.019,14.564,22.014,21.857,33.014c0.238,0.358,0.493,0.705,0.819,1.171
		c0.314-0.435,0.571-0.77,0.804-1.12c7.379-11.045,14.763-22.086,22.118-33.147c0.451-0.678,0.911-0.939,1.73-0.939
		c29.551,0.022,59.101,0.018,88.652,0.018c0.346,0,0.692,0,1.247,0c-0.481,0.769-0.845,1.372-1.23,1.961
		c-11.246,17.202-22.498,34.399-33.723,51.615c-0.48,0.736-0.98,0.959-1.837,0.955c-8.897-0.042-17.748,0.429-26.526,2.073
		c-6.91,1.294-12.866,4.438-18.35,8.679c-7.368,5.699-14.013,12.167-20.34,18.978c-0.08,0.086-0.134,0.197-0.259,0.384
		c2.346,2.537,5.211,4.839,4.883,8.985c-1.093-0.963-2.114-1.948-3.223-2.82c-1.789-1.408-3.607-2.784-5.466-4.099
		c-4.036-2.855-8.666-3.679-13.461-3.523c-6.236,0.203-12.462,0.698-18.697,0.942c-4.114,0.161-8.241,0.212-12.356,0.103
		c-3.722-0.099-6.748-2.053-9.631-4.199c-0.923-0.687-1.803-1.433-2.878-2.293c0.9,4.662,2.173,8.895,5.667,12.094
		c1.987,1.82,4.512,2.46,7.034,2.786c4.395,0.568,8.825,0.875,13.245,1.242c3.587,0.297,7.187,0.447,10.767,0.801
		c3.158,0.312,6.073,1.426,8.633,3.324c3.266,2.422,6.485,4.908,9.924,7.519c-1.767,0.384-1.869,0.336-6.4-2.794
		c0,1.737,0.058,3.428-0.012,5.114c-0.149,3.628-0.275,7.261-0.601,10.875c-0.111,1.232-0.712,2.45-1.243,3.603
		c-0.303,0.659-0.257,1.11,0.015,1.758c1.839,4.377,3.681,8.755,5.386,13.185c1.998,5.189,1.508,10.374-0.45,15.461
		c-0.859,2.232-1.838,4.424-2.877,6.579c-0.407,0.844-0.295,1.43,0.292,2.038c0.166,0.172,0.334,0.35,0.528,0.488
		c5.069,3.613,10.559,6.133,16.876,6.541c4.706,0.305,7.7-1.388,10.119-6.47c1.616-3.395,1.696-7.031,1.323-10.698
		c-0.032-0.318-0.094-0.633-0.131-0.95c-0.009-0.075,0.023-0.154,0.063-0.383c1.125,1.051,2.19,2.045,3.343,3.122
		c0.127-0.231,0.243-0.375,0.291-0.539c1.456-4.966,4.848-8.446,8.776-11.545c1.788-1.411,3.47-2.957,5.201-4.441
		c3.424-2.938,5.092-6.677,5.158-11.171c0.02-1.349,0.145-2.696,0.298-4.041c0.431,3.542,0.693,7.09,0.102,10.625
		c-0.558,3.34-2.649,5.853-4.799,8.295c-1.075,1.221-2.235,2.367-3.393,3.585c3.173-0.334,6.263-0.685,9.358-0.979
		c10.627-1.01,19.596,2.432,26.561,10.477c2.543,2.938,4.415,6.462,6.546,9.75c10.004,15.436,19.992,30.882,29.985,46.325
		c0.127,0.196,0.245,0.399,0.446,0.725c-0.433,0.035-0.765,0.085-1.096,0.085c-30.592,0.004-61.183,0-91.775,0.021
		c-0.774,0.001-1.213-0.234-1.643-0.879c-7.356-11.053-14.74-22.088-22.118-33.126c-0.243-0.364-0.497-0.721-0.824-1.194
		c-0.254,0.328-0.478,0.583-0.665,0.864c-7.311,11.036-14.63,22.065-21.902,33.126c-0.604,0.919-1.24,1.215-2.31,1.214
		c-29.47-0.029-58.941-0.023-88.411-0.023c-0.479,0-0.959,0-1.729,0C247.123,303.074,269.944,268.118,292.785,233.131z
		 M301.07,231.789c2.803,3.067,6.194,5.094,9.918,5.341c2.799,0.186,5.672-0.045,8.455-0.463c3.847-0.578,7.38-0.411,10.488,2.279
		c1.141,0.988,2.455,1.785,3.732,2.604c1.313,0.843,2.304,0.458,2.707-1.06c0.648-2.444,0.568-4.91-0.008-7.355
		c-0.896-3.805-3.744-6.034-7.652-6.17c-2.336-0.081-4.263,0.856-6.12,2.094c-2.415,1.609-4.932,3.062-7.912,3.16
		c-2.873,0.095-5.754-0.005-8.63-0.083C304.467,232.095,302.89,231.921,301.07,231.789z"/>
	<path d="M250.03,272.422c-1.17,3.222-2.169,6.246-3.358,9.195c-4.532,11.241-10.971,21.198-20.012,29.381
		c-8.478,7.673-18.318,12.925-29.169,16.349c-13.305,4.198-27,5.508-40.878,5.281c-14.24-0.233-28.096-2.563-41.371-7.877
		c-19.608-7.848-34.886-20.669-45.033-39.334c-5.368-9.875-8.633-20.432-10.01-31.574c-1.839-14.883-1.117-29.633,2.707-44.153
		c4.019-15.261,11.305-28.726,22.669-39.829c8.955-8.748,19.491-14.962,31.215-19.228c13.605-4.95,27.716-6.659,42.108-6.466
		c11.826,0.158,23.437,1.749,34.695,5.505c12.203,4.072,23.112,10.322,32.306,19.395c8.267,8.159,14.3,17.785,18.577,28.544
		c4.078,10.259,6.53,20.918,7.204,31.913c0.484,7.898,0.412,15.83,0.585,23.747c0.004,0.196-0.036,0.393-0.073,0.763
		c-43.343,0-86.67,0-130.143,0c0.99,11.416,3.888,21.696,13.718,28.628c4.676,3.298,10.011,4.916,15.633,5.659
		c6.196,0.819,12.372,0.871,18.476-0.697c8.289-2.128,14.663-6.936,19.345-14.021c0.614-0.93,1.255-1.205,2.316-1.203
		c18.898,0.03,37.797,0.022,56.696,0.022C248.712,272.422,249.189,272.422,250.03,272.422z M168.391,177.292
		c-10.46-0.391-17.404,1.572-23.426,4.098c-6.124,2.569-11.503,6.21-15.236,11.819c-5.997,9.01-6.833,18.85-3.663,28.949
		c3.424,10.908,11.336,17.8,21.522,22.338c0.321,0.143,0.978-0.083,1.288-0.354c4.649-4.06,9.974-6.825,16.019-7.999
		c6.111-1.187,12.292-0.646,18.432-0.118c3.538,0.305,7.042,0.997,10.572,1.422c2.215,0.266,4.498,0.199,6.376-1.117
		c2.973-2.083,5.928-4.229,8.644-6.627c2.344-2.07,2.208-3.733-0.021-5.898c-1.957-1.902-3.312-4.17-4.497-6.6
		c-0.782-1.603-1.73-3.149-2.788-4.585c-0.954-1.296-2.587-2.242-3.131-3.648c-0.554-1.431-0.158-3.234-0.153-4.874
		c0.017-5.385-1.685-10.112-5.311-14.136c-1.526-1.693-2.996-3.438-4.434-5.206c-0.273-0.335-0.382-0.889-0.385-1.344
		c-0.012-1.746,0.329-3.54,0.032-5.228c-0.86-4.898-5.61-6.624-9.541-3.583c-0.66,0.511-1.31,1.074-1.823,1.725
		c-0.601,0.763-1.246,1.043-2.234,0.997C172.557,177.224,170.473,177.292,168.391,177.292z"/>
	<path d="M193.437,361.476c0.836,0,1.538-0.125,2.157,0.048c0.361,0.1,0.74,0.635,0.854,1.045
		c1.865,6.735,3.688,13.483,5.523,20.226c0.299,1.097,0.614,2.19,0.922,3.285c0.104-0.004,0.207-0.007,0.311-0.011
		c0.472-1.717,0.956-3.431,1.414-5.152c1.624-6.094,3.264-12.184,4.836-18.291c0.261-1.012,0.781-1.204,1.701-1.18
		c0.87,0.022,1.432,0.072,1.706,1.148c1.903,7.468,3.893,14.913,5.858,22.365c0.098,0.371,0.22,0.736,0.436,1.451
		c0.254-0.703,0.41-1.057,0.511-1.426c1.965-7.162,3.93-14.325,5.88-21.491c0.613-2.254,0.675-2.309,3.322-1.872
		c-0.258,0.953-0.501,1.898-0.768,2.835c-2.247,7.872-4.547,15.729-6.707,23.625c-0.425,1.552-1.363,1.391-2.492,1.481
		c-1.217,0.097-1.475-0.591-1.716-1.516c-1.842-7.072-3.706-14.138-5.565-21.206c-0.107-0.407-0.227-0.812-0.632-1.245
		c-0.122,0.388-0.261,0.772-0.364,1.165c-1.854,7.11-3.71,14.219-5.545,21.334c-0.226,0.877-0.448,1.562-1.615,1.463
		c-1.103-0.094-2.054,0.164-2.497-1.451c-2.312-8.431-4.791-16.817-7.207-25.22C193.642,362.48,193.569,362.061,193.437,361.476z"/>
	<path d="M377.835,386.839c0,3.191-0.045,6.384,0.025,9.574c0.024,1.087-0.347,1.329-1.372,1.352
		c-1.099,0.024-1.323-0.357-1.32-1.378c0.033-11.201,0.035-22.401-0.002-33.602c-0.004-1.063,0.299-1.352,1.351-1.353
		c1.079-0.001,1.46,0.347,1.327,1.386c-0.054,0.423-0.009,0.859-0.009,1.518c0.307-0.268,0.469-0.362,0.566-0.501
		c0.9-1.293,2.164-2.13,3.689-2.208c2.467-0.127,4.98-0.269,7.412,0.059c3.312,0.447,5.518,3.036,5.598,6.378
		c0.119,4.957,0.126,9.921-0.007,14.877c-0.094,3.514-2.566,6.067-6.226,6.476c-2.092,0.234-4.239,0.131-6.35,0
		c-1.878-0.116-3.411-1.033-4.416-2.746C378.013,386.728,377.924,386.783,377.835,386.839z M377.836,375.472
		c0,2.081,0,4.162,0,6.243c0,0.08-0.001,0.16,0.002,0.24c0.09,2.862,1.617,4.71,4.461,5.027c1.897,0.211,3.844,0.233,5.747,0.074
		c2.751-0.23,4.365-1.943,4.431-4.761c0.106-4.519,0.11-9.045,0.003-13.564c-0.072-3.051-2.051-4.831-5.105-4.884
		c-1.441-0.025-2.884-0.041-4.324,0.014c-3.225,0.125-5.179,2.149-5.21,5.368C377.82,371.31,377.836,373.391,377.836,375.472z"/>
	<path d="M317.492,371.791c0-3.24-0.011-6.479,0.003-9.719c0.022-5.234,2.796-7.989,8.027-7.995
		c2.281-0.002,4.563-0.031,6.843,0.008c4.159,0.071,6.824,2.421,7.368,6.557c0.161,1.221,0.081,2.474,0.103,3.712
		c0.018,1.006-0.722,0.867-1.353,0.873c-0.641,0.006-1.347,0.118-1.348-0.88c0-1.039,0.023-2.082-0.051-3.117
		c-0.203-2.814-1.823-4.541-4.635-4.694c-2.513-0.136-5.045-0.132-7.559-0.007c-2.962,0.148-4.687,1.995-4.707,4.985
		c-0.046,6.839-0.044,13.678-0.003,20.517c0.019,3.13,1.899,5.014,5.008,5.094c2.279,0.059,4.563,0.053,6.842,0.001
		c3.13-0.07,4.872-1.774,5.064-4.901c0.061-0.997,0.04-1.998,0.05-2.998c0.009-0.892,0.641-0.887,1.261-0.863
		c0.609,0.023,1.439-0.174,1.417,0.815c-0.038,1.673,0.035,3.391-0.324,5.005c-0.639,2.877-2.553,4.861-5.506,5.096
		c-3.529,0.281-7.119,0.303-10.644-0.001c-3.38-0.291-5.628-2.912-5.759-6.333c-0.142-3.713-0.032-7.436-0.032-11.155
		C317.534,371.791,317.513,371.791,317.492,371.791z"/>
	<path d="M450.444,386.812c-1.594,2.143-3.725,2.718-6.124,2.719c-1.281,0-2.564,0.032-3.844-0.011
		c-4.094-0.138-6.898-2.429-7.104-6.496c-0.263-5.183-0.194-10.398,0.049-15.585c0.158-3.367,3.051-5.846,6.468-5.929
		c4.082-0.098,8.168-0.021,12.252-0.053c0.742-0.006,0.978,0.278,0.977,0.984c-0.012,8.684-0.021,17.369,0.008,26.053
		c0.004,1.136-0.668,1.029-1.416,1.048c-0.793,0.021-1.354-0.107-1.274-1.09C450.481,387.91,450.444,387.36,450.444,386.812z
		 M450.443,373.593c0-2.881-0.023-5.763,0.014-8.644c0.011-0.831-0.267-1.135-1.106-1.124c-2.882,0.037-5.766-0.022-8.648,0.036
		c-2.663,0.054-4.623,1.733-4.694,4.338c-0.133,4.877-0.11,9.762-0.004,14.641c0.048,2.221,1.618,3.875,3.828,4.112
		c1.937,0.207,3.926,0.265,5.862,0.079c3.157-0.303,4.728-2.209,4.745-5.395C450.455,378.956,450.444,376.275,450.443,373.593z"/>
	<path d="M364.137,386.811c-1.966,2.711-4.719,2.799-7.528,2.719c-1.236-0.035-2.492,0.025-3.704-0.174
		c-3.656-0.6-5.921-3.133-5.991-6.827c-0.089-4.675-0.097-9.355-0.002-14.03c0.085-4.158,2.986-6.963,7.12-7.014
		c3.879-0.048,7.76,0.015,11.639-0.032c0.933-0.011,1.131,0.336,1.128,1.192c-0.026,8.555-0.032,17.11,0.005,25.664
		c0.005,1.059-0.412,1.249-1.346,1.252c-0.942,0.002-1.452-0.208-1.331-1.259C364.184,387.81,364.137,387.308,364.137,386.811z
		 M364.136,373.499c0-2.757-0.048-5.515,0.023-8.27c0.029-1.132-0.368-1.441-1.454-1.412c-2.597,0.068-5.197,0.009-7.795,0.026
		c-3.342,0.022-5.224,1.647-5.331,4.989c-0.142,4.43-0.142,8.872-0.003,13.302c0.104,3.322,2.015,4.97,5.337,5.004
		c1.159,0.012,2.319,0.017,3.478-0.001c3.715-0.057,5.713-2.042,5.742-5.726C364.153,378.773,364.136,376.136,364.136,373.499z"/>
	<path d="M161.016,376.859c-2.402,0.001-4.803-0.001-7.205,0.001c-1.558,0.002-1.559,0.004-1.561,1.616
		c-0.001,1.12-0.014,2.241,0.003,3.361c0.052,3.43,1.869,5.267,5.291,5.296c3.482,0.029,6.965,0.004,10.447,0.009
		c1.28,0.002,1.785,0.698,1.303,1.886c-0.096,0.238-0.528,0.48-0.807,0.482c-4.042,0.02-8.092,0.147-12.126-0.052
		c-4.159-0.206-6.707-3.078-6.742-7.257c-0.038-4.48-0.035-8.962-0.002-13.442c0.032-4.348,2.896-7.216,7.226-7.28
		c1.881-0.028,3.763-0.028,5.644,0c4.108,0.061,7.019,2.742,7.234,6.813c0.135,2.554,0.023,5.12,0.057,7.679
		c0.011,0.813-0.447,0.897-1.077,0.894C166.14,376.852,163.578,376.858,161.016,376.859z M159.61,374.728c2.12,0,4.241,0,6.361,0
		c0.04,0,0.08-0.004,0.12,0c0.605,0.053,1.04-0.115,1.025-0.822c-0.044-1.996,0.043-4.007-0.181-5.982
		c-0.279-2.457-1.994-3.948-4.442-4.05c-1.877-0.078-3.762-0.076-5.639-0.001c-2.415,0.098-4.114,1.534-4.409,3.937
		c-0.238,1.932-0.114,3.906-0.206,5.858c-0.041,0.871,0.328,1.09,1.131,1.074C155.449,374.701,157.53,374.728,159.61,374.728z"/>
	<path d="M73.238,371.795c0-5.442,0.031-10.884-0.025-16.325c-0.012-1.135,0.359-1.425,1.446-1.415
		c5.124,0.049,10.249,0.049,15.373,0c1.087-0.01,1.5,0.277,1.447,1.417c-0.044,0.941-0.524,1.015-1.236,1.014
		c-3.883-0.009-7.767-0.017-11.65,0.001c-3.13,0.014-2.658-0.351-2.68,2.666c-0.024,3.281,0.023,6.562-0.022,9.843
		c-0.014,0.998,0.337,1.326,1.325,1.315c3.763-0.041,7.526,0.009,11.289-0.033c0.952-0.011,1.342,0.219,1.337,1.261
		c-0.005,1.026-0.44,1.183-1.31,1.175c-3.803-0.032-7.607,0.016-11.409-0.033c-0.971-0.013-1.238,0.331-1.23,1.251
		c0.035,3.961,0.046,7.923-0.005,11.883c-0.014,1.093,0.417,1.351,1.423,1.341c4.283-0.041,8.567-0.005,12.851-0.028
		c0.844-0.005,1.328,0.113,1.321,1.161c-0.007,1.047-0.416,1.264-1.361,1.258c-5.204-0.034-10.409-0.04-15.613,0.004
		c-1.014,0.008-1.295-0.33-1.288-1.312C73.258,382.759,73.238,377.277,73.238,371.795z"/>
	<path d="M253.848,375.547c0.001,2.16,0.023,4.32-0.004,6.48c-0.053,4.103-2.334,6.913-6.405,7.356
		c-2.601,0.283-5.29,0.224-7.892-0.083c-3.43-0.406-5.72-3.012-5.802-6.447c-0.116-4.917-0.125-9.841,0.003-14.757
		c0.099-3.768,2.979-6.478,6.753-6.603c1.999-0.066,4.002-0.041,6.003-0.018c4.293,0.05,7.228,2.929,7.333,7.232
		C253.893,370.986,253.847,373.267,253.848,375.547z M236.324,375.467c0,2.12,0,4.24,0,6.359c0,0.08,0.001,0.16,0.004,0.24
		c0.126,2.98,1.598,4.743,4.447,4.991c1.945,0.169,3.927,0.172,5.873,0.01c2.721-0.226,4.121-1.729,4.444-4.483
		c0.097-0.83,0.087-1.675,0.083-2.513c-0.018-3.918,0.069-7.842-0.12-11.752c-0.134-2.776-2.048-4.385-4.839-4.465
		c-1.519-0.044-3.041-0.027-4.562-0.012c-3.414,0.034-5.275,1.864-5.325,5.265C236.299,371.227,236.324,373.347,236.324,375.467z"/>
	<path d="M124.809,364.132c1.909-2.581,4.542-2.784,7.296-2.662c1.475,0.065,2.982-0.042,4.418,0.229
		c3.043,0.574,5.082,2.887,5.378,5.954c0.142,1.468,0.121,2.955,0.125,4.433c0.013,5.32-0.009,10.641,0.017,15.961
		c0.005,0.97-0.088,1.551-1.336,1.529c-1.164-0.021-1.401-0.446-1.394-1.494c0.037-6.2,0.022-12.401,0.017-18.602
		c-0.003-3.902-1.736-5.63-5.648-5.641c-1.281-0.004-2.565-0.044-3.842,0.027c-3.063,0.17-4.982,2.107-5.005,5.171
		c-0.048,6.32-0.02,12.641-0.025,18.961c-0.001,1.537-0.027,1.507-1.528,1.552c-0.905,0.027-1.192-0.311-1.191-1.178
		c0.017-8.601,0.027-17.202-0.007-25.802c-0.005-1.188,0.675-1.084,1.473-1.118c0.894-0.038,1.384,0.184,1.262,1.189
		C124.76,363.132,124.809,363.635,124.809,364.132z"/>
	<path d="M106.507,376.902c-1.192,2.122-2.301,4.092-3.405,6.064c-0.82,1.465-1.792,2.869-2.41,4.415
		c-0.791,1.977-2.08,2.57-4.201,1.996c0.172-0.36,0.322-0.738,0.524-1.086c2.352-4.042,4.691-8.092,7.089-12.106
		c0.432-0.723,0.435-1.24,0.01-1.956c-2.182-3.679-4.311-7.39-6.454-11.092c-0.273-0.472-0.517-0.96-0.788-1.468
		c2.414-0.566,2.839-0.39,3.928,1.577c1.627,2.937,3.247,5.878,4.874,8.814c0.23,0.414,0.486,0.813,0.842,1.404
		c0.286-0.44,0.515-0.738,0.689-1.066c1.574-2.965,3.152-5.929,4.701-8.907c1.179-2.266,1.245-2.316,4.019-1.892
		c-0.13,0.299-0.227,0.591-0.376,0.853c-2.214,3.889-4.414,7.786-6.674,11.649c-0.418,0.715-0.449,1.227-0.015,1.948
		c2.351,3.904,4.647,7.842,6.955,11.772c0.276,0.47,0.509,0.965,0.772,1.467c-2.188,0.662-2.883,0.396-3.873-1.39
		c-1.821-3.286-3.644-6.571-5.472-9.854C107.055,377.707,106.824,377.392,106.507,376.902z"/>
	<path d="M174.738,361.47c1.052,0,2.048-0.044,3.038,0.013c0.924,0.053,1.319-0.276,1.277-1.229
		c-0.051-1.158,0.012-2.32-0.014-3.479c-0.026-1.164,0.797-0.96,1.498-0.987c0.698-0.026,1.285,0.018,1.246,0.983
		c-0.047,1.158,0.039,2.322-0.025,3.479c-0.054,0.968,0.347,1.259,1.265,1.235c1.8-0.048,3.603,0.033,5.402-0.031
		c1.033-0.037,1.031,0.535,1.053,1.286c0.024,0.821-0.241,1.141-1.099,1.116c-1.799-0.053-3.604,0.034-5.402-0.035
		c-0.982-0.038-1.226,0.337-1.221,1.256c0.033,5.56,0,11.12,0.024,16.68c0.014,3.33,1.813,5.181,5.15,5.371
		c0.599,0.034,1.203,0.047,1.8,0.004c0.865-0.061,1.306,0.143,1.298,1.167c-0.008,1.04-0.411,1.333-1.36,1.241
		c-1.428-0.139-2.903-0.051-4.282-0.379c-3.422-0.813-5.319-3.477-5.337-7.294c-0.026-5.52-0.035-11.041,0.015-16.56
		c0.01-1.149-0.33-1.639-1.495-1.475c-0.353,0.049-0.719,0.008-1.08,0.008C174.387,363.838,174.387,363.838,174.738,361.47z"/>
	<path d="M419.05,373.652c0,2.561-0.019,5.122,0.004,7.683c0.036,3.982,1.856,5.783,5.822,5.803c0.32,0.002,0.641-0.001,0.961,0.001
		c1.453,0.007,1.645,0.178,1.424,1.571c-0.048,0.305-0.494,0.782-0.753,0.779c-1.555-0.014-3.146,0.038-4.655-0.275
		c-3.409-0.706-5.486-3.406-5.517-7.04c-0.048-5.602-0.053-11.205,0.007-16.807c0.013-1.204-0.294-1.715-1.533-1.541
		c-0.51,0.072-1.039,0.013-1.56,0.012c-1.376-0.004-1.668-0.294-1.398-1.603c0.061-0.297,0.503-0.684,0.812-0.728
		c0.745-0.107,1.521-0.086,2.276-0.025c1.014,0.081,1.478-0.239,1.394-1.339c-0.085-1.114,0.018-2.241-0.028-3.359
		c-0.039-0.949,0.522-1.028,1.235-0.998c0.701,0.029,1.527-0.18,1.508,0.979c-0.019,1.2,0.031,2.402-0.007,3.601
		c-0.026,0.829,0.3,1.135,1.131,1.116c1.841-0.041,3.684,0.026,5.525-0.028c0.924-0.027,1.054,0.444,1.047,1.186
		c-0.007,0.714-0.068,1.241-1.019,1.213c-1.8-0.054-3.605,0.039-5.404-0.036c-1.027-0.043-1.305,0.342-1.289,1.311
		C419.08,367.969,419.05,370.811,419.05,373.652z"/>
	<path d="M278.921,370.107c0-5.96-0.001-11.919,0.001-17.879c0.001-1.353,0.935-1.985,2.178-1.389
		c0.279,0.134,0.484,0.694,0.496,1.064c0.053,1.678,0.025,3.359,0.025,5.039c0,10.319,0.001,20.639-0.001,30.958
		c0,1.642-0.03,1.601-1.551,1.653c-1.052,0.036-1.16-0.49-1.158-1.328C278.929,382.186,278.921,376.146,278.921,370.107z"/>
	<path d="M461.758,370.106c0-5.96-0.001-11.919,0.001-17.879c0.001-1.352,0.935-1.985,2.179-1.389
		c0.279,0.134,0.484,0.694,0.495,1.065c0.053,1.678,0.025,3.359,0.025,5.039c0,10.319,0.001,20.639-0.001,30.958
		c0,1.641-0.03,1.6-1.551,1.653c-1.052,0.036-1.16-0.49-1.158-1.328C461.766,382.186,461.758,376.146,461.758,370.106z"/>
	<path d="M264.567,364.365c1.964-2.888,4.895-3.023,7.929-2.898c0.991,0.041,0.717,0.758,0.758,1.303
		c0.046,0.603-0.001,1.121-0.852,1.079c-0.917-0.046-1.84-0.031-2.758,0.006c-2.865,0.114-4.87,1.952-5.23,4.801
		c-0.095,0.751-0.137,1.513-0.138,2.27c-0.011,5.755-0.028,11.511,0.014,17.266c0.008,1.046-0.308,1.373-1.366,1.377
		c-1.091,0.004-1.345-0.396-1.341-1.409c0.031-8.433,0.017-16.866,0.019-25.3c0-1.221,1.292-1.962,2.336-1.304
		c0.202,0.128,0.293,0.535,0.315,0.823c0.046,0.621,0.014,1.248,0.014,1.873C264.367,364.29,264.467,364.327,264.567,364.365z"/>
	<path d="M297.962,389.371c-2.068,0.497-3.288-0.041-4.339-1.71c-2.469-3.921-5.149-7.71-7.782-11.526
		c-0.527-0.765-0.573-1.357-0.038-2.155c2.383-3.551,4.818-7.074,7-10.747c1.019-1.715,2.237-2.048,4.127-1.608
		c-0.225,0.4-0.405,0.772-0.63,1.114c-2.482,3.772-4.951,7.553-7.477,11.296c-0.485,0.719-0.458,1.198,0.032,1.9
		c2.812,4.032,5.57,8.102,8.341,12.163C297.453,388.474,297.667,388.879,297.962,389.371z"/>
	<path d="M403.299,361.58c2.647-0.292,2.647-0.292,2.647,2.053c0,8.163,0.001,16.326-0.001,24.488c0,1.247-1.275,2.007-2.295,1.302
		c-0.261-0.18-0.334-0.767-0.336-1.167c-0.022-4.962-0.014-9.923-0.015-14.885c0-3.441,0-6.882,0-10.323
		C403.299,362.578,403.299,362.107,403.299,361.58z"/>
	<path d="M358.501,243.396c3.384,3.029,3.594,6.736,0.586,9.908c-0.864,0.911-1.841,1.714-2.867,2.659
		C355.782,252.594,356.883,246.677,358.501,243.396z"/>
	<path d="M405.945,354.119c0,0.637-0.07,1.283,0.015,1.908c0.161,1.177-0.396,1.382-1.432,1.372
		c-0.928-0.009-1.288-0.267-1.246-1.222c0.063-1.43,0.064-2.867,0.002-4.297c-0.047-1.079,0.625-0.995,1.323-0.977
		c0.662,0.017,1.427-0.167,1.347,0.948C405.901,352.603,405.945,353.363,405.945,354.119z"/>
	<path d="M168.708,188.146c-0.472-0.328-0.932-0.676-1.419-0.98c-1.074-0.67-2.087-1.542-3.258-1.93
		c-2.534-0.84-4.702,0.892-4.583,3.544c0.049,1.108,0.394,2.202,0.446,3.31c0.024,0.504-0.337,1.027-0.523,1.541
		c-0.507-0.243-1.185-0.353-1.491-0.75c-1.53-1.983-2.189-4.264-1.731-6.748c0.589-3.193,4.592-5.084,7.818-3.662
		c2.099,0.925,3.625,2.573,4.841,4.493c0.166,0.261,0.18,0.618,0.265,0.931C168.951,187.979,168.83,188.063,168.708,188.146z"/>
	<path d="M180.157,202.465c2.207,2.393,4.413,4.787,6.61,7.17c-1.51,0.543-3.312,1.13-5.257,0.989
		c-1.385-0.1-2.232-0.767-2.261-2.159c-0.042-1.959,0.21-3.925,0.337-5.888C179.776,202.54,179.966,202.503,180.157,202.465z"/>
</g>
</svg>
