<svg width="292" height="260" viewBox="0 10 292 83" fill="none" xmlns="http://www.w3.org/2000/svg">
<path d="M22.1391 17.8289C8.62055 17.8289 0 27.7229 0 41.1435C0 54.5642 9.11035 64.5562 22.7269 64.5562C30.9556 64.5562 37.6169 60.8336 41.5354 54.956L37.7149 52.3111C34.7761 56.6213 29.6821 59.7561 22.7269 59.7561C12.8329 59.7561 5.97561 52.9968 5.19192 43.0048H43.6905V41.1435C43.6905 27.7229 34.874 17.8289 22.1391 17.8289ZM22.1391 22.433C31.5434 22.433 37.8129 29.3882 38.5965 39.0863H5.19192C5.97561 29.1923 12.2451 22.433 22.1391 22.433Z" fill="black"/>
<path d="M92.1597 20.6746V28.0168C88.6331 21.8453 82.3636 17.9268 74.1349 17.9268C61.1061 17.9268 51.9957 27.7229 51.9957 41.1435C51.9957 54.5642 61.1061 64.4582 74.1349 64.4582C82.3636 64.4582 88.6331 60.4418 92.1597 54.2703V60.2459C92.1597 71.5114 83.735 77.389 74.0369 77.389C68.2572 77.389 62.9673 75.3318 59.2448 71.1195L55.5223 74.2543C59.6367 79.1523 66.298 82.0911 74.0369 82.0911C88.2412 82.0911 97.5475 73.1767 97.5475 60.2459V18.6125L92.1597 20.6746ZM74.7226 59.2663C64.1429 59.2663 57.1877 51.7233 57.1877 41.1435C57.1877 30.5638 64.1429 23.0208 74.7226 23.0208C85.3024 23.0208 92.1597 30.5638 92.1597 41.1435C92.1597 51.7233 85.3024 59.2663 74.7226 59.2663Z" fill="black"/>
<path d="M113.712 63.6745V0L108.324 1.67456V63.6745H113.712Z" fill="black"/>
<path d="M163.434 1.67456V28.0168C159.907 21.8453 153.638 17.9268 145.409 17.9268C132.38 17.9268 123.27 27.6249 123.27 41.1435C123.27 54.5642 132.38 64.4582 145.409 64.4582C153.638 64.4582 159.907 60.4418 163.434 54.2703V63.6745H168.822V0L163.434 1.67456ZM145.997 59.2663C135.515 59.2663 128.462 51.7233 128.462 41.1435C128.462 30.5638 135.515 23.0208 145.997 23.0208C156.577 23.0208 163.434 30.5638 163.434 41.1435C163.434 51.7233 156.577 59.2663 145.997 59.2663Z" fill="black"/>
<path d="M181.655 63.9684C184.104 63.9684 185.868 62.2051 185.868 59.7561C185.868 57.3071 184.104 55.5438 181.655 55.5438C179.206 55.5438 177.443 57.3071 177.443 59.7561C177.443 62.2051 179.206 63.9684 181.655 63.9684Z" fill="black"/>
<path d="M227.926 19.6746V25.6657C224.596 20.8656 219.306 17.9268 212.351 17.9268C199.714 17.9268 190.603 27.7229 190.603 41.1435C190.603 54.5642 199.714 64.4582 212.351 64.4582C219.306 64.4582 224.596 61.4214 227.926 56.7193V60.3438C227.926 70.8256 219.894 74.94 212.938 74.94C208.334 74.94 203.534 73.4706 199.91 69.5521L194.13 74.4502C198.244 79.3482 205.004 82.483 212.938 82.483C227.73 82.483 236.743 73.3726 236.743 60.3438V18.6125L227.926 19.6746ZM213.526 56.1315C204.906 56.1315 199.224 49.7641 199.224 41.1435C199.224 32.425 204.906 26.2535 213.526 26.2535C222.245 26.2535 227.926 32.425 227.926 41.1435C227.926 49.7641 222.245 56.1315 213.526 56.1315Z" fill="black"/>
<path d="M282.409 19.6746V25.6657C279.079 20.8656 273.789 17.9268 266.834 17.9268C254.197 17.9268 245.086 27.7229 245.086 41.1435C245.086 54.5642 254.197 64.4582 266.834 64.4582C273.789 64.4582 279.079 61.4214 282.409 56.7193V60.3438C282.409 70.8256 274.377 74.94 267.421 74.94C262.817 74.94 258.017 73.4706 254.393 69.5521L248.613 74.4502C252.727 79.3482 259.487 82.483 267.421 82.483C282.213 82.483 291.226 73.3726 291.226 60.3438V18.6125L282.409 19.6746ZM268.009 56.1315C259.389 56.1315 253.707 49.7641 253.707 41.1435C253.707 32.425 259.389 26.2535 268.009 26.2535C276.728 26.2535 282.409 32.425 282.409 41.1435C282.409 49.7641 276.728 56.1315 268.009 56.1315Z" fill="black"/>
</svg>
