<?xml version="1.0" encoding="utf-8"?>
<!-- Generator: Adobe Illustrator 26.0.3, SVG Export Plug-In . SVG Version: 6.00 Build 0)  -->
<!DOCTYPE svg PUBLIC "-//W3C//DTD SVG 1.1//EN" "http://www.w3.org/Graphics/SVG/1.1/DTD/svg11.dtd" [
	<!ENTITY ns_extend "http://ns.adobe.com/Extensibility/1.0/">
	<!ENTITY ns_ai "http://ns.adobe.com/AdobeIllustrator/10.0/">
	<!ENTITY ns_graphs "http://ns.adobe.com/Graphs/1.0/">
	<!ENTITY ns_vars "http://ns.adobe.com/Variables/1.0/">
	<!ENTITY ns_imrep "http://ns.adobe.com/ImageReplacement/1.0/">
	<!ENTITY ns_sfw "http://ns.adobe.com/SaveForWeb/1.0/">
	<!ENTITY ns_custom "http://ns.adobe.com/GenericCustomNamespace/1.0/">
	<!ENTITY ns_adobe_xpath "http://ns.adobe.com/XPath/1.0/">
]>
<svg version="1.1" id="Layer_1" xmlns:x="&ns_extend;" xmlns:i="&ns_ai;" xmlns:graph="&ns_graphs;"
	 xmlns="http://www.w3.org/2000/svg" xmlns:xlink="http://www.w3.org/1999/xlink" x="0px" y="0px" width="512px" height="512px"
	 viewBox="0 0 512 512" enable-background="new 0 0 512 512" xml:space="preserve">
<metadata>
	<sfw  xmlns="&ns_sfw;">
		<slices></slices>
		<sliceSourceBounds  bottomLeftOrigin="true" height="1212.363" width="2589.979" x="8.803" y="-1398.495"></sliceSourceBounds>
	</sfw>
</metadata>
<g>
	<path d="M29.409,148.885c-4.922,0-7.308,0.012-7.308-3.938c0-3.001,2.335-3.616,6.958-3.616c5.757,0,450.37-0.004,463.67-0.004
		c2.953,0,5.701,0.244,5.707,3.797c0.006,3.614-2.924,3.772-5.734,3.772C487.577,148.896,36.955,148.885,29.409,148.885z"/>
	<path d="M28.84,321.882c-6.262,0-6.67-2.537-6.671-3.793c-0.002-1.238,0.944-3.759,6.324-3.759
		c100.706,0,197.268-0.001,300.145-0.001c5.755,0,6.456,2.457,6.456,4.028c0,1.74-0.854,3.525-6.891,3.525
		C275.412,321.882,81.936,321.882,28.84,321.882z"/>
	<path d="M87.899,209.494c1.305,1.404,5.247-0.884,3.925,3.435c-6.994,0-14.001,0-20.996,0c-0.248-2.672-0.239-2.872,2.069-2.771
		c2.464,0.108,3.365-0.758,3.348-3.23c-0.078-11.201-0.034-22.402-0.034-34.669c-0.932,1.619-1.443,2.359-1.809,3.166
		c-5.446,12.014-10.848,24.049-16.35,36.037c-0.442,0.964-1.58,2.295-2.327,2.254c-0.883-0.049-2.014-1.251-2.484-2.221
		c-6.518-13.45-12.941-26.946-19.816-41.326c0,13.719,0,26.506,0,39.146c0.968,2.275,5.777-1.484,4.997,3.583
		c-4.405,0-8.767,0-13.13,0c-0.253-0.241-0.506-0.483-0.759-0.724c0.768-0.69,1.523-1.395,2.308-2.065
		c0.886-0.756,2.576-1.472,2.585-2.22c0.158-13.69,0.115-27.382,0.115-41.258c-1.548-0.168-2.739-0.297-3.929-0.426
		c-0.183-0.343-0.366-0.686-0.55-1.029c0.837-0.566,1.656-1.588,2.515-1.622c4.274-0.17,8.58-0.322,12.825,0.065
		c1.273,0.116,2.837,1.764,3.5,3.093c4.823,9.67,9.448,19.439,14.143,29.173c0.526,1.091,1.102,2.158,1.876,3.668
		c5.166-11.431,10.142-22.272,14.937-33.194c0.954-2.172,2.097-3.081,4.488-2.941c3.388,0.198,6.8-0.03,10.192,0.131
		c0.727,0.034,1.411,0.952,2.115,1.462c-0.587,0.46-1.231,0.864-1.749,1.392c-0.828,0.843-2.243,1.76-2.252,2.658
		c-0.137,13.092-0.086,26.186-0.057,39.279C87.596,208.808,87.839,209.277,87.899,209.494z"/>
	<path d="M463.751,199.665c5.043-11.144,9.898-21.45,14.338-31.931c1.396-3.295,3.058-4.732,6.652-4.332
		c2.859,0.318,5.789-0.058,8.669,0.147c0.869,0.062,1.673,1.038,2.606,2.376c-4.862-0.468-4.657,2.331-4.646,5.168
		c0.047,11.449,0.066,22.898-0.011,34.347c-0.021,3.121-0.037,5.909,5.051,4.361c0.018,0.426,0.037,0.851,0.055,1.277
		c-0.709,0.67-1.406,1.905-2.13,1.922c-6.521,0.151-13.047,0.088-19.812,0.088c-0.692-5.036,3.701-1.757,5.206-3.993
		c0-11.436,0-23.533,0-35.63c-0.156-0.058-0.311-0.117-0.467-0.175c-3.288,7.241-6.589,14.476-9.858,21.726
		c-2.425,5.379-4.742,10.809-7.264,16.141c-0.512,1.081-1.73,1.828-2.623,2.728c-0.856-0.936-1.994-1.735-2.525-2.829
		c-5.651-11.636-11.201-23.321-16.793-34.986c-0.802-1.673-1.68-3.311-2.973-5.848c-0.201,1.705-0.367,2.463-0.368,3.221
		c-0.017,10.82,0.044,21.64-0.049,32.46c-0.024,2.8,0.323,4.703,3.854,4.285c0.692-0.082,1.542,1.16,2.957,2.31
		c-9.547,1.569-14.595,0.791-14.891-2.206c4.856,0.765,4.93-2.209,4.875-5.854c-0.169-11.195-0.062-22.394-0.062-33.591
		c0-1.352,0-2.705,0-4.235c-1.59-0.143-2.794-0.251-3.999-0.359c-0.233-0.28-0.466-0.561-0.699-0.841
		c0.739-0.644,1.458-1.816,2.222-1.846c4.522-0.178,9.063-0.233,13.578,0.02c0.969,0.054,2.217,1.371,2.729,2.406
		C452.767,176.905,458.041,187.878,463.751,199.665z"/>
	<path d="M231.003,189.387c-6.679,0-12.899,0-19.498,0c0,6.311-0.135,12.448,0.049,18.575c0.117,3.901,3.701,1.18,6.035,3.084
		c-0.707,0.677-1.407,1.936-2.136,1.954c-6.52,0.154-13.044,0.09-19.568,0.09c-0.218-0.338-0.435-0.676-0.653-1.014
		c0.733-0.658,1.468-1.874,2.198-1.871c2.348,0.008,2.689-1.244,2.686-3.121c-0.023-12.459-0.112-24.919,0.055-37.376
		c0.045-3.391-1.914-3.541-4.537-3.355c-0.121-0.362-0.241-0.724-0.362-1.086c0.794-0.597,1.576-1.691,2.385-1.712
		c5.785-0.15,11.577-0.133,17.363-0.02c0.746,0.015,1.476,0.883,2.213,1.356c-0.786,0.501-1.598,1.462-2.354,1.42
		c-2.699-0.152-3.505,0.964-3.433,3.554c0.15,5.375,0.045,10.758,0.045,16.347c6.598,0,12.821,0,19.479,0
		c0-6.07,0.113-11.946-0.146-17.806c-0.032-0.716-2.067-1.339-3.169-2.013c-0.798-0.488-1.589-0.987-2.384-1.482
		c0.846-0.481,1.683-1.358,2.539-1.378c5.534-0.126,11.075-0.14,16.608,0.009c0.936,0.025,1.847,1.013,2.728,2.226
		c-4.5-0.162-4.842,2.15-4.798,5.398c0.157,11.702,0.072,23.407,0.052,35.11c-0.004,2.098-0.232,4.15,2.982,3.934
		c0.578-0.039,1.249,1.301,2.497,2.7c-8.214,0-15.215,0-22.252,0c-1.003-2.387,0.05-3.044,2.155-2.799
		c2.191,0.255,3.281-0.493,3.246-2.881C230.946,201.451,231.003,195.668,231.003,189.387z"/>
	<path d="M141.481,276.041c0,5.039-0.111,9.921,0.035,14.796c0.117,3.914,3.416,1.71,6.145,2.947
		c-0.857,0.907-1.546,2.285-2.278,2.308c-5.779,0.18-11.566,0.109-17.351,0.096c-0.734-0.002-1.467-0.114-2.198-0.175
		c-1.217-3.99,2.138-2.275,3.876-3.273c0.085-0.774,0.301-1.84,0.303-2.907c0.024-12.198,0-24.396,0.03-36.594
		c0.005-2.164,0.068-4.161-3.073-3.819c-0.426,0.046-0.949-0.807-1.427-1.244c0.541-0.529,1.091-1.526,1.622-1.517
		c9.414,0.166,18.892-0.143,28.215,0.909c7.135,0.805,10.4,5.876,10.397,13.087c-0.003,7.206-4.216,13.004-10.977,14.27
		C150.641,275.704,146.327,275.666,141.481,276.041z M141.492,273.446c3.419-0.945,6.436-1.025,8.454-2.485
		c4.962-3.589,5.43-15.097,0.763-19.135c-1.761-1.523-4.708-1.787-7.184-2.278c-0.524-0.104-1.927,1.292-1.943,2.019
		C141.431,258.443,141.492,265.324,141.492,273.446z"/>
	<path d="M114.567,186.028c1.703,0,2.82-0.001,3.936,0c5.46,0.003,6.725-1.003,8.24-6.26c0.223-0.773,0.975-1.394,1.482-2.085
		c0.481,0.703,1.363,1.397,1.379,2.11c0.118,5.159,0.105,10.322,0.007,15.481c-0.012,0.647-0.763,1.279-1.171,1.918
		c-0.557-0.477-1.398-0.846-1.627-1.447c-2.524-6.631-4.022-7.48-11.99-6.388c0,6.69,0,13.419,0,20.363
		c4.543,0,9.063,0.43,13.463-0.117c4.684-0.582,6.876-4.139,7.742-8.613c0.215-1.108,0.949-2.116,1.444-3.17
		c0.417,0.146,0.833,0.292,1.25,0.437c0,4.811,0,9.621,0,14.665c-13.251,0-26.521,0-39.787,0c-0.053-2.666-0.053-2.666,3.77-3.172
		c0.121-1.37,0.358-2.824,0.362-4.278c0.031-11.456,0.03-22.911,0.006-34.367c-0.005-2.322,0.576-5.119-3.354-4.813
		c-0.325,0.025-0.992-0.77-1.001-1.194c-0.01-0.487,0.44-1.117,0.874-1.438c0.345-0.256,0.965-0.183,1.463-0.183
		c11.688-0.008,23.375-0.006,35.327-0.006c0,4.218,0,8.175,0,13.386c-1.247-1.056-2.425-1.552-2.664-2.335
		c-1.774-5.822-3.443-7.344-9.365-8.074c-9.786-1.207-9.786-1.207-9.786,8.561C114.567,178.513,114.567,182.016,114.567,186.028z"/>
	<path d="M349.74,213.172c-3.611,1.226-5.53-0.119-7.378-2.675c-8.992-12.437-18.15-24.754-27.258-37.108
		c-0.697-0.945-1.453-1.846-2.909-3.689c0,7.042,0,12.904,0,18.766c0,6.295,0.07,12.59-0.032,18.883
		c-0.041,2.5,0.624,3.81,3.422,3.522c0.798-0.082,1.683,0.68,2.528,1.055c-0.114,0.297-0.229,0.594-0.343,0.891
		c-4.564,0-9.129,0-13.693,0c-0.113-0.291-0.226-0.581-0.338-0.872c0.659-0.382,1.358-1.144,1.971-1.08
		c3.027,0.316,3.211-1.474,3.203-3.746c-0.043-12.463-0.054-24.927,0.008-37.39c0.012-2.487-0.288-4.301-3.462-3.889
		c-0.434,0.056-0.981-0.757-1.475-1.168c0.543-0.397,1.079-1.129,1.628-1.139c4.782-0.088,9.575-0.198,14.344,0.072
		c1.053,0.06,2.228,1.447,2.998,2.483c6.828,9.189,13.576,18.438,20.353,27.665c0.732,0.997,1.501,1.967,3.035,2.842
		c0-2.553,0-5.106,0-7.659c0-5.917,0.002-11.834-0.001-17.751c-0.002-5.256-0.004-5.256-6.154-5.434
		c0.888-1.034,1.403-2.166,1.942-2.177c4.138-0.087,8.336-0.33,12.422,0.106c0.162,0.718,0.324,1.436,0.486,2.154
		c-5.878-1.096-5.338,2.382-5.322,5.724C349.778,185.39,349.74,199.225,349.74,213.172z"/>
	<path d="M388.208,211.095c0-4.181-0.025-8.683,0.037-13.182c0.007-0.476,0.527-0.945,0.809-1.417
		c0.512,0.373,1.288,0.641,1.486,1.139c0.554,1.391,0.763,2.917,1.296,4.318c2.413,6.344,7.842,9.664,14.54,8.856
		c3.372-0.407,5.863-2.089,7.015-5.442c1.201-3.497,0.383-6.572-2.428-8.807c-1.829-1.455-4.067-2.435-6.206-3.451
		c-2.606-1.238-5.341-2.204-7.947-3.441c-6.206-2.947-9.207-8.086-8.394-14.157c0.835-6.235,5.203-11.29,11.657-12.154
		c4.116-0.551,8.439,0.026,12.619,0.526c2.799,0.334,5.508,1.42,8.476,2.229c0,3.241,0,6.728,0,11.646
		c-1.272-1.463-2.33-2.142-2.568-3.04c-1.725-6.496-7.774-10.411-14.382-9.034c-3.478,0.725-6.077,2.676-6.627,6.349
		c-0.517,3.446,1.461,5.762,4.396,7.169c3.847,1.844,7.837,3.39,11.68,5.241c8.372,4.032,11.426,9.428,9.777,16.966
		c-1.651,7.544-7.663,12.244-16.255,12.407c-2.862,0.054-5.753-0.367-8.598-0.787C395.273,212.536,391.993,211.81,388.208,211.095z"
		/>
	<path d="M248.977,294.391c-0.857,0.601-1.678,1.665-2.575,1.734c-10.236,0.786-12.257,0.352-12.616-2.88
		c5.382,1.175,6.466-3.053,7.951-6.555c5.341-12.595,10.496-25.27,15.893-37.84c0.557-1.297,2.176-2.742,3.463-2.914
		c0.884-0.118,2.483,1.662,3.018,2.912c5.58,13.041,10.991,26.154,16.494,39.228c1.248,2.966,2.526,6.046,6.959,4.972
		c0.191,0.319,0.381,0.639,0.572,0.958c-0.727,0.729-1.442,2.075-2.184,2.091c-7.522,0.156-15.049,0.095-22.477,0.095
		c-1.114-2.72,0.139-3.008,2.154-3.023c3.832-0.027,4.376-0.895,3.167-4.493c-2.677-7.965-2.677-7.965-11.23-7.965
		c-1.132,0-2.265,0-3.397,0c-7.054,0-7.054,0-9.721,6.758c-2.154,5.456-1.996,5.711,3.618,5.855
		C248.369,293.681,248.673,294.036,248.977,294.391z M256.258,258.717c-2.811,6.82-5.261,12.764-7.844,19.031
		c5.378,0,10.29,0,15.788,0C261.568,271.438,259.087,265.495,256.258,258.717z"/>
	<path d="M278.177,212.918c-0.916-2.684,0.457-2.839,2.414-2.837c3.527,0.003,4.137-0.979,3.027-4.347
		c-0.079-0.238-0.185-0.467-0.276-0.702c-2.85-7.419-2.85-7.419-10.808-7.419c-1.131,0-2.262,0-3.394,0c-7.186,0-7.186,0-9.889,6.52
		c-2.206,5.32-1.844,5.906,5.216,6.172c-1.416,1.363-2.129,2.656-2.902,2.692c-4.243,0.202-8.501,0.096-13.958,0.096
		c1.185-1.502,1.842-2.926,2.338-2.872c3.759,0.411,4.742-2.424,5.797-4.886c4.247-9.911,8.348-19.885,12.495-29.838
		c1.302-3.126,2.508-6.296,3.902-9.38c0.712-1.576,0.93-4.233,3.557-3.383c1.329,0.43,2.717,1.904,3.292,3.244
		c5.442,12.678,10.701,25.435,16.047,38.155c1.251,2.978,2.144,6.371,6.568,6.096c0.402-0.025,0.898,1.455,1.614,2.69
		C294.448,212.918,286.44,212.918,278.177,212.918z M270.992,175.65c-2.791,6.806-5.222,12.736-7.753,18.908
		c5.514,0,10.406,0,15.743,0C276.317,188.252,273.822,182.348,270.992,175.65z"/>
	<path d="M124.209,294.32c-0.839,0.625-1.666,1.774-2.518,1.793c-6.789,0.149-13.584,0.148-20.374,0.004
		c-0.893-0.019-1.763-1.109-3.117-2.022c1.293-0.632,1.507-0.824,1.726-0.831c6.026-0.195,6.546-0.879,4.044-6.537
		c-3.239-7.326-0.906-5.827-9.127-6.009c-1.634-0.036-3.276-0.092-4.904,0.016c-2.312,0.152-5.839-0.388-6.681,0.845
		c-2.16,3.165-3.125,7.145-4.155,10.887c1.398,2.271,6.149-1.51,5.353,3.727c-4.307,0-8.563,0.094-12.808-0.086
		c-0.774-0.033-1.5-1.183-2.033-2.343c5.311,0.371,6.588-3.301,8-6.665c5.34-12.729,10.615-25.486,15.914-38.232
		c0.659-1.586,1.068-3.804,3.412-3.045c1.248,0.404,2.595,1.713,3.123,2.945c5.49,12.806,10.799,25.689,16.215,38.527
		c1.367,3.239,2.521,6.882,7.55,5.9C123.957,293.568,124.083,293.944,124.209,294.32z M92.24,258.773
		c-2.817,6.821-5.261,12.739-7.828,18.955c5.403,0,10.316,0,15.8,0C97.572,271.451,95.095,265.56,92.24,258.773z"/>
	<path d="M67.825,249.803c0,3.286,0,6.651,0,10.016c-0.272,0.2-0.545,0.399-0.817,0.599c-0.723-0.825-1.483-1.621-2.161-2.482
		c-1.689-2.145-3.02-4.701-5.064-6.414c-6.816-5.716-16.247-3.696-19.856,4.463c-4.246,9.598-4.277,19.586-0.535,29.367
		c2.085,5.452,6.152,8.802,12.387,8.701c6.341-0.103,10.555-3.308,13.269-8.894c0.57-1.174,1.73-2.061,2.619-3.081
		c0.282,0.252,0.565,0.505,0.847,0.757c0,3.365,0,6.731,0,9.999c-4.566,1.198-8.899,2.458-13.291,3.466
		c-17.657,4.051-31.765-7.838-30.89-25.965c0.874-18.112,15.257-28.438,33.009-23.655C60.823,247.619,64.258,248.736,67.825,249.803
		z"/>
	<path d="M205.951,296.039c-0.996-2.706,0.442-3.003,2.352-2.843c1.797,0.151,3.364,0.016,3.305-2.392
		c-0.015-0.629,0.01-1.259,0.01-1.888c0.001-12.957,0.001-25.915,0.001-38.798c-6.758-1.958-10.965,0.444-12.639,6.893
		c-0.206,0.794-0.947,1.448-1.44,2.168c-0.46-0.84-1.275-1.662-1.317-2.522c-0.157-3.252-0.063-6.517-0.063-10.004
		c14.178,0,28.093,0,42.296,0c0,4.043,0,8.119,0,12.195c-0.248,0.212-0.496,0.424-0.744,0.637c-0.621-0.786-1.586-1.485-1.808-2.371
		c-1.436-5.744-4.332-7.915-10.186-7.746c-1.991,0.057-2.673,0.797-2.669,2.67c0.025,12.717,0.036,25.434-0.01,38.15
		c-0.009,2.542,1.195,3.324,3.531,3.03c2.056-0.259,3.225,0.322,2.211,2.823C221.267,296.039,213.741,296.039,205.951,296.039z"/>
	<path d="M188.732,166.713c0,3.445,0,6.7,0,9.956c-0.269,0.204-0.539,0.407-0.808,0.611c-0.724-0.806-1.506-1.568-2.159-2.428
		c-1.504-1.982-2.638-4.362-4.465-5.96c-7.403-6.475-17.396-4.154-20.981,5.007c-3.459,8.837-3.486,17.992-0.625,27.01
		c2.014,6.347,6.623,9.869,12.294,10.032c6.688,0.192,11.135-3.101,14.011-8.956c0.561-1.143,1.625-2.038,2.458-3.048
		c0.321,0.204,0.641,0.408,0.962,0.612c0,3.347,0,6.695,0,10.548c-6.221,1.269-12.406,3.399-18.665,3.64
		c-16.389,0.633-26.919-11.12-25.434-27.47c1.607-17.696,15.518-27.333,32.839-22.705
		C181.654,164.496,185.096,165.624,188.732,166.713z"/>
	<path d="M305.548,293.13c3.654,0,6.671,0.16,9.665-0.036c4.999-0.326,7.885-3.105,8.995-8.104c0.255-1.146,0.957-2.192,1.454-3.284
		c0.411,0.14,0.822,0.28,1.233,0.42c0,4.555,0,9.11,0,14.071c-4.458,0-8.936,0-13.414,0c-7.04,0-14.081-0.015-21.121,0.01
		c-1.787,0.006-3.447,0.011-2.478-2.821c1.126-0.11,2.336-0.229,3.895-0.381c0.095-1.342,0.269-2.688,0.272-4.034
		c0.022-11.692,0.014-23.384,0.012-35.076c0-2.263,0.434-4.807-3.254-4.48c-0.355,0.031-1.177-1.005-1.106-1.432
		c0.088-0.525,0.882-1.322,1.38-1.329c6.284-0.082,12.571-0.095,18.852,0.061c0.525,0.013,1.017,1.372,1.689,2.344
		c-6.071,0.835-6.073,0.835-6.073,6.362c-0.001,11.063,0,22.127,0,33.19C305.548,289.974,305.548,291.337,305.548,293.13z"/>
	<path d="M186.987,292.325c1.937,1.55,5.464-0.459,4.267,3.86c-6.158,0-12.413,0.038-18.664-0.066
		c-0.547-0.009-1.079-0.949-1.618-1.456c0.557-0.488,1.043-1.146,1.69-1.415c0.648-0.269,1.457-0.149,2.537-0.223
		c0.088-1.541,0.243-3.013,0.246-4.484c0.02-11.316-0.055-22.633,0.054-33.949c0.03-3.161,0.105-5.957-4.753-5.178
		c-0.025-0.397-0.051-0.794-0.076-1.191c0.848-0.55,1.683-1.554,2.545-1.577c5.403-0.146,10.813-0.129,16.217-0.006
		c0.72,0.016,1.42,0.936,2.13,1.437c-0.7,0.471-1.432,0.9-2.092,1.422c-0.858,0.679-2.368,1.425-2.376,2.155
		C186.949,265.333,186.987,279.015,186.987,292.325z"/>
	<path d="M360.328,165.428c0.684-0.648,1.353-1.838,2.055-1.857c5.528-0.156,11.063-0.145,16.593-0.018
		c0.688,0.016,1.353,1.009,2.028,1.55c-0.615,0.428-1.226,1.214-1.844,1.22c-2.352,0.022-2.601,1.467-2.599,3.27
		c0.011,12.448,0.021,24.896-0.011,37.343c-0.005,2.034,0.353,3.392,2.893,3.29c0.608-0.024,1.27,1.297,1.907,1.999
		c-0.194,0.288-0.388,0.575-0.581,0.863c-6.141,0-12.284,0.062-18.422-0.083c-0.72-0.017-1.413-1.167-2.865-2.452
		c2.469-0.323,3.675-0.481,5.309-0.695c0.06-1.262,0.178-2.594,0.18-3.926c0.015-11.568-0.054-23.136,0.051-34.703
		c0.028-3.044,0.125-5.737-4.591-4.866C360.394,166.052,360.361,165.74,360.328,165.428z"/>
</g>
</svg>
