<?xml version="1.0" encoding="utf-8"?>
<!-- Generator: Adobe Illustrator 26.0.3, SVG Export Plug-In . SVG Version: 6.00 Build 0)  -->
<!DOCTYPE svg PUBLIC "-//W3C//DTD SVG 1.1//EN" "http://www.w3.org/Graphics/SVG/1.1/DTD/svg11.dtd" [
	<!ENTITY ns_extend "http://ns.adobe.com/Extensibility/1.0/">
	<!ENTITY ns_ai "http://ns.adobe.com/AdobeIllustrator/10.0/">
	<!ENTITY ns_graphs "http://ns.adobe.com/Graphs/1.0/">
	<!ENTITY ns_vars "http://ns.adobe.com/Variables/1.0/">
	<!ENTITY ns_imrep "http://ns.adobe.com/ImageReplacement/1.0/">
	<!ENTITY ns_sfw "http://ns.adobe.com/SaveForWeb/1.0/">
	<!ENTITY ns_custom "http://ns.adobe.com/GenericCustomNamespace/1.0/">
	<!ENTITY ns_adobe_xpath "http://ns.adobe.com/XPath/1.0/">
]>
<svg version="1.1" id="Layer_1" xmlns:x="&ns_extend;" xmlns:i="&ns_ai;" xmlns:graph="&ns_graphs;"
	 xmlns="http://www.w3.org/2000/svg" xmlns:xlink="http://www.w3.org/1999/xlink" x="0px" y="0px" width="512px" height="512px"
	 viewBox="0 0 512 512" enable-background="new 0 0 512 512" xml:space="preserve">
<metadata>
	<sfw  xmlns="&ns_sfw;">
		<slices></slices>
		<sliceSourceBounds  bottomLeftOrigin="true" height="1212.363" width="2589.979" x="8.803" y="-1398.495"></sliceSourceBounds>
	</sfw>
</metadata>
<g>
	<path d="M315.634,287.182v-9.13h3.043v-3.32h-9.96v3.32h3.043v9.13H315.634z"/>
	<path d="M396.699,284.139h0.83l1.66,3.043h3.597l-2.213-3.873c0.553-0.277,1.107-0.83,1.383-1.66
		c0.277-0.553,0.553-1.383,0.553-2.213s-0.277-1.66-0.553-2.49c-0.277-0.83-0.83-1.383-1.66-1.66c-0.83-0.277-1.66-0.553-2.49-0.553
		h-4.98v12.45h3.597L396.699,284.139L396.699,284.139z M396.699,278.052h1.383c0.553,0,0.83,0,1.107,0.277
		c0.277,0.277,0.277,0.553,0.277,1.107s0,0.83-0.277,1.107c-0.277,0.277-0.553,0.277-1.107,0.277h-1.383V278.052z"/>
	<path d="M351.048,274.732v6.64c0,1.937,0.553,3.32,1.383,4.15c0.83,1.107,2.213,1.383,3.597,1.383c1.66,0,2.767-0.553,3.597-1.383
		c0.83-1.107,1.383-2.49,1.383-4.15v-6.64h-3.32v6.64c0,0.83,0,1.66-0.277,1.937s-0.553,0.553-1.107,0.553
		c-0.553,0-0.83-0.277-1.107-0.553s-0.277-1.107-0.277-1.937v-6.64H351.048z"/>
	<path d="M341.088,262.282v-24.901h-19.92c-1.937,0-3.597,0.83-4.98,2.213c-1.383,1.383-2.213,3.043-2.213,4.98v17.707h5.81v-17.707
		c0-0.277,0.277-0.83,0.553-1.107c0.277-0.277,0.553-0.553,1.107-0.553h14.387v19.367H341.088L341.088,262.282z"/>
	<path d="M391.995,256.195c-0.277,0.277-0.83,0.553-1.107,0.553h-17.43v5.533h17.984c1.937,0,3.32-0.83,4.703-2.213
		c1.383-1.383,1.937-3.043,1.937-5.257v-7.747h-19.644v-2.49c0-0.277,0.277-0.83,0.553-1.107s0.83-0.553,1.107-0.553h17.984v-5.533
		h-17.984c-1.937,0-3.32,0.83-4.703,2.213s-1.937,3.043-1.937,5.257v7.747h19.09v2.767
		C392.549,255.641,392.272,255.918,391.995,256.195z"/>
	<path d="M487.448,247.341v-9.684h-20.197c-1.937,0-3.597,0.83-4.98,2.213s-2.213,3.043-2.213,4.98v17.43h5.533v-7.747h11.62
		l4.15,7.747h5.533l-4.15-8.3c0.83-0.277,1.66-0.83,2.49-1.66C486.894,251.215,487.448,249.278,487.448,247.341z M481.914,247.341
		c0,0.553,0,0.83-0.277,1.107c-0.277,0.277-0.553,0.553-1.107,0.553h-14.664v-4.15c0-0.277,0.277-0.83,0.553-1.107
		c0.277-0.277,0.553-0.553,1.107-0.553h14.664v4.15H481.914z"/>
	<path d="M418.279,262.282v-19.09h9.684v-5.533h-24.901v5.533h9.96v19.09H418.279z"/>
	<path d="M483.574,283.862c-0.277,0-0.553,0.277-1.107,0.277s-1.107,0-1.937-0.277c-0.553-0.277-1.107-0.553-1.66-0.83l-1.107,3.043
		c0.553,0.277,1.383,0.553,2.213,0.83c0.83,0.277,1.66,0.277,2.767,0.277c1.107,0,1.937-0.277,2.767-0.553
		c0.83-0.277,1.383-0.83,1.66-1.383c0.277-0.553,0.553-1.383,0.553-1.937c0-0.83-0.277-1.66-0.553-1.937
		c-0.553-0.553-0.83-0.83-1.383-1.107c-0.553-0.277-1.383-0.553-2.213-0.553c-0.553,0-1.107-0.277-1.383-0.277
		c-0.277,0-0.553-0.277-0.553-0.553c0-0.553,0.553-0.83,1.383-0.83s1.937,0.277,3.043,0.83l1.107-2.767
		c-0.553-0.277-1.107-0.553-1.937-0.83c-0.83-0.277-1.383-0.277-2.213-0.277c-1.107,0-1.937,0.277-2.767,0.553
		c-0.83,0.277-1.383,0.83-1.66,1.383c-0.277,0.553-0.553,1.383-0.553,1.937c0,0.83,0.277,1.66,0.553,1.937
		c0.553,0.553,0.83,0.83,1.383,1.107s1.383,0.553,2.213,0.553c0.553,0.277,1.107,0.277,1.383,0.277c0.277,0,0.553,0.277,0.553,0.553
		C483.851,283.585,483.574,283.862,483.574,283.862z"/>
	<path d="M455.077,237.658h-17.984c-1.937,0-3.32,0.83-4.703,2.213c-1.383,1.383-1.937,3.043-1.937,5.257v17.154h5.257v-6.363h14.11
		v6.363h5.257V237.658z M435.71,250.385v-5.81c0-0.277,0.277-0.553,0.277-1.107c0.277-0.277,0.553-0.277,1.107-0.277h12.727v7.194
		C449.82,250.385,435.71,250.385,435.71,250.385z"/>
	<path d="M447.607,278.052v-3.043h-9.684v12.174h9.96v-3.043h-6.087v-1.66h4.98v-3.043h-4.98v-1.383
		C441.797,278.052,447.607,278.052,447.607,278.052z"/>
	<path d="M368.478,250.108h-5.533v6.64h-14.11v-11.897c0-0.553,0.277-0.83,0.553-1.107c0.277-0.277,0.553-0.553,1.107-0.553h16.877
		v-5.533h-16.877c-1.937,0-3.597,0.83-4.98,2.213s-1.937,3.043-1.937,5.257v17.154h24.901V250.108L368.478,250.108z"/>
	<path d="M242.315,260.068c1.383-1.383,2.213-3.043,2.213-5.257v-17.154h-20.197c-1.937,0-3.597,0.83-4.98,2.213
		s-2.213,3.043-2.213,5.257v9.96c0,1.937,0.83,3.873,2.213,5.257s3.043,2.213,4.98,2.213h13.004
		C239.272,262.282,240.932,261.728,242.315,260.068z M225.992,256.748L225.992,256.748h-1.66c-0.553,0-0.83,0-1.107-0.277
		s-0.553-0.553-0.553-1.107v-10.79c0-0.277,0.277-0.553,0.553-1.107c0.277-0.277,0.553-0.277,1.107-0.277h1.66l0,0h12.727v12.174
		c0,0.277-0.277,0.553-0.553,1.107c-0.277,0.277-0.553,0.277-1.107,0.277h-1.66l0,0H225.992z"/>
	<path d="M311.484,237.658h-4.98v24.901h4.98V237.658z"/>
	<path d="M234.292,278.052v-3.043h-9.684v12.174h9.96v-3.043h-6.087v-1.66h4.98v-3.043h-4.98v-1.383
		C228.482,278.052,234.292,278.052,234.292,278.052z"/>
	<path d="M186.151,274.732h-3.873l4.427,12.45h3.597l4.427-12.45h-3.32l-2.767,7.194L186.151,274.732z"/>
	<path d="M214.648,262.282v-24.901h-25.177c-1.937,0-3.597,0.83-4.98,2.213c-1.383,1.383-2.213,3.043-2.213,4.98v17.707h5.533
		v-17.707c0-0.277,0.277-0.83,0.553-1.107c0.277-0.277,0.553-0.553,1.107-0.553h6.087v19.367h5.533v-19.09h7.747v19.09H214.648
		L214.648,262.282z"/>
	<path d="M269.983,281.649l3.873,5.533h2.767v-12.45h-3.32v5.533l-3.873-5.533h-2.767v12.45h3.32V281.649z"/>
	<path d="M304.013,262.282v-24.901h-19.92c-1.937,0-3.597,0.83-4.98,2.213c-1.383,1.383-2.213,3.043-2.213,4.98v17.707h5.81v-17.707
		c0-0.277,0.277-0.83,0.553-1.107c0.277-0.277,0.553-0.553,1.107-0.553h14.387v19.367H304.013L304.013,262.282z"/>
	<path d="M274.133,247.341v-9.684h-20.197c-1.937,0-3.597,0.83-4.98,2.213s-2.213,3.043-2.213,4.98v17.43h5.533v-7.747h11.62
		l4.15,7.747h5.533l-4.15-8.3c0.83-0.277,1.66-0.83,2.49-1.66C273.579,251.215,274.133,249.278,274.133,247.341z M268.599,247.341
		c0,0.553,0,0.83-0.277,1.107c-0.277,0.277-0.553,0.553-1.107,0.553h-14.664v-4.15c0-0.277,0.277-0.83,0.553-1.107
		c0.277-0.277,0.553-0.553,1.107-0.553h14.664v4.15H268.599z"/>
	<path d="M106.469,274.732L8.803,366.587l91.855-97.666c4.703-5.257,4.98-13.004,0.553-18.26l-30.434-35.414l35.691,30.711
		c5.257,4.427,12.727,4.427,17.984,0l35.691-30.711l-30.711,35.691c-4.427,5.257-4.427,12.727,0,17.984l30.711,35.691
		l-35.414-30.434C119.472,269.752,111.449,269.752,106.469,274.732z"/>
</g>
</svg>
