<?xml version="1.0" encoding="utf-8"?>
<!-- Generator: Adobe Illustrator 26.0.3, SVG Export Plug-In . SVG Version: 6.00 Build 0)  -->
<!DOCTYPE svg PUBLIC "-//W3C//DTD SVG 1.1//EN" "http://www.w3.org/Graphics/SVG/1.1/DTD/svg11.dtd" [
	<!ENTITY ns_extend "http://ns.adobe.com/Extensibility/1.0/">
	<!ENTITY ns_ai "http://ns.adobe.com/AdobeIllustrator/10.0/">
	<!ENTITY ns_graphs "http://ns.adobe.com/Graphs/1.0/">
	<!ENTITY ns_vars "http://ns.adobe.com/Variables/1.0/">
	<!ENTITY ns_imrep "http://ns.adobe.com/ImageReplacement/1.0/">
	<!ENTITY ns_sfw "http://ns.adobe.com/SaveForWeb/1.0/">
	<!ENTITY ns_custom "http://ns.adobe.com/GenericCustomNamespace/1.0/">
	<!ENTITY ns_adobe_xpath "http://ns.adobe.com/XPath/1.0/">
]>
<svg version="1.1" id="Layer_1" xmlns:x="&ns_extend;" xmlns:i="&ns_ai;" xmlns:graph="&ns_graphs;"
	 xmlns="http://www.w3.org/2000/svg" xmlns:xlink="http://www.w3.org/1999/xlink" x="0px" y="0px" width="512px" height="512px"
	 viewBox="0 0 512 512" enable-background="new 0 0 512 512" xml:space="preserve">
<metadata>
	<sfw  xmlns="&ns_sfw;">
		<slices></slices>
		<sliceSourceBounds  bottomLeftOrigin="true" height="1212.363" width="2589.979" x="8.803" y="-1398.495"></sliceSourceBounds>
	</sfw>
</metadata>
<g>
	<path fill="#498ECC" d="M88.463,264.311L88.463,264.311c0,9.571-7.759,17.329-17.329,17.329c0,0,0,0,0,0h-6.521
		c-1.93,0.011-3.504-1.546-3.515-3.476c0-0.002,0-0.004,0-0.007l0,0c-0.004-1.927,1.556-3.492,3.482-3.496c0.011,0,0.022,0,0.032,0
		h6.521c5.718,0,10.354-4.633,10.358-10.351l0,0c0-5.72-4.637-10.358-10.358-10.358l0,0H52.787v40.252
		c0,1.927-1.562,3.489-3.489,3.489l0,0c-1.917-0.014-3.463-1.572-3.463-3.489v-47.224h25.299
		C80.704,246.982,88.463,254.741,88.463,264.311L88.463,264.311z"/>
	<path fill="#498ECC" d="M144.287,296.511L144.287,296.511c-1.714,0.845-3.79,0.153-4.654-1.551l-18.115-36.049l-18.127,36.049
		c-0.858,1.718-2.946,2.414-4.663,1.557c-0.003-0.002-0.007-0.003-0.01-0.005l0,0c-1.715-0.855-2.417-2.935-1.571-4.654
		l20.438-40.748l1.403-2.575c0.755-1.415,2.513-1.95,3.928-1.195c0.525,0.28,0.952,0.716,1.222,1.247l1.287,2.53l20.445,40.742
		C146.715,293.579,146.007,295.66,144.287,296.511z"/>
	<path fill="#498ECC" d="M258.987,250.471v43.735c0.084,1.925-1.409,3.554-3.335,3.637s-3.554-1.409-3.637-3.335l0,0v-12.875
		h-26.123v12.572c0.002,1.927-1.559,3.49-3.486,3.492c-1.927,0.002-3.49-1.559-3.492-3.486c0-0.002,0-0.004,0-0.006v-43.735
		c-0.002-1.927,1.559-3.49,3.486-3.492c1.927-0.002,3.49,1.559,3.492,3.486c0,0.002,0,0.004,0,0.006v24.191h26.103v-24.191
		c-0.083-1.925,1.411-3.553,3.336-3.636s3.553,1.411,3.636,3.336c0.004,0.1,0.004,0.2,0,0.3H258.987z"/>
	<path fill="#498ECC" d="M200.099,250.471c-0.007,1.92-1.562,3.476-3.483,3.483h-16.737v40.252c0.165,1.92-1.257,3.61-3.177,3.776
		c-1.92,0.165-3.61-1.257-3.776-3.177c-0.008-0.099-0.013-0.197-0.013-0.296c-0.006-0.101-0.006-0.202,0-0.303v-40.252h-16.827
		c-1.926,0.069-3.543-1.436-3.612-3.362c-0.068-1.908,1.409-3.516,3.316-3.61h40.851c1.916,0.007,3.464,1.566,3.457,3.482
		C200.099,250.467,200.099,250.469,200.099,250.471z"/>
	
		<linearGradient id="SVGID_1_" gradientUnits="userSpaceOnUse" x1="335.4741" y1="348.3111" x2="376.146" y2="307.6328" gradientTransform="matrix(1 0 0 1 -50 -56.58)">
		<stop  offset="0.18" style="stop-color:#3E5CAA"/>
		<stop  offset="1" style="stop-color:#51C8EC"/>
	</linearGradient>
	<path fill="url(#SVGID_1_)" d="M336.846,272.287L336.846,272.287c0.004,14.043-11.378,25.43-25.421,25.434
		c-0.004,0-0.009,0-0.013,0h-17.49c-3.283-0.004-5.942-2.666-5.942-5.948l0,0c0-3.283,2.659-5.945,5.942-5.948h17.49
		c7.466,0,13.518-6.052,13.518-13.518l0,0c0-7.466-6.052-13.518-13.518-13.518h-11.658v12.405c0,3.283-2.659,5.945-5.942,5.948l0,0
		c-3.279-0.011-5.932-2.669-5.935-5.948v-24.339h23.561C325.475,246.868,336.846,258.251,336.846,272.287z"/>
	
		<linearGradient id="SVGID_00000020378524501203546420000002993541286657458357_" gradientUnits="userSpaceOnUse" x1="408.2185" y1="357.6227" x2="446.7534" y2="319.0813" gradientTransform="matrix(1 0 0 1 -50 -56.58)">
		<stop  offset="0.18" style="stop-color:#3E5CAA"/>
		<stop  offset="1" style="stop-color:#51C8EC"/>
	</linearGradient>
	<path fill="url(#SVGID_00000020378524501203546420000002993541286657458357_)" d="M399.468,297.38L399.468,297.38
		c-2.841,0.972-5.959-0.333-7.261-3.038l-14.69-30.114l-14.806,30.204c-1.309,2.722-4.462,4.016-7.306,3l0,0
		c-3.065-1.101-4.657-4.478-3.556-7.543c0.001-0.003,0.002-0.006,0.003-0.008c0.062-0.184,0.135-0.365,0.219-0.541l18.848-38.926
		l0,0c1.156-2.4,3.587-3.922,6.251-3.914h0.766c2.637,0.015,5.035,1.535,6.173,3.914l0,0l18.81,38.823
		c1.406,2.949,0.155,6.479-2.794,7.886C399.911,297.221,399.692,297.307,399.468,297.38z"/>
	
		<linearGradient id="SVGID_00000032628182102169479330000004216628341165104052_" gradientUnits="userSpaceOnUse" x1="473.1173" y1="346.7451" x2="508.9436" y2="310.9187" gradientTransform="matrix(1 0 0 1 -50 -56.58)">
		<stop  offset="0.18" style="stop-color:#3E5CAA"/>
		<stop  offset="1" style="stop-color:#51C8EC"/>
	</linearGradient>
	<path fill="url(#SVGID_00000032628182102169479330000004216628341165104052_)" d="M415.896,271.978v0.566
		c0,13.865,11.24,25.105,25.105,25.105l0,0l0,0c13.865,0.032,25.131-11.182,25.163-25.047c0,0,0,0,0,0v-0.644
		c0-13.865-11.24-25.105-25.105-25.105l0,0c-13.865-0.032-25.131,11.182-25.163,25.047c0,0,0,0,0,0V271.978z M427.792,272.622
		v-0.644c0-7.303,5.919-13.225,13.222-13.229l0,0c7.306,0,13.229,5.923,13.229,13.229v0.644c0,7.302-5.92,13.222-13.222,13.222
		c-0.002,0-0.004,0-0.006,0l0,0c-7.305-0.007-13.222-5.931-13.222-13.235l0,0V272.622z"/>
</g>
</svg>
