<?xml version="1.0" encoding="utf-8"?>
<!-- Generator: Adobe Illustrator 26.0.3, SVG Export Plug-In . SVG Version: 6.00 Build 0)  -->
<!DOCTYPE svg PUBLIC "-//W3C//DTD SVG 1.1//EN" "http://www.w3.org/Graphics/SVG/1.1/DTD/svg11.dtd" [
	<!ENTITY ns_extend "http://ns.adobe.com/Extensibility/1.0/">
	<!ENTITY ns_ai "http://ns.adobe.com/AdobeIllustrator/10.0/">
	<!ENTITY ns_graphs "http://ns.adobe.com/Graphs/1.0/">
	<!ENTITY ns_vars "http://ns.adobe.com/Variables/1.0/">
	<!ENTITY ns_imrep "http://ns.adobe.com/ImageReplacement/1.0/">
	<!ENTITY ns_sfw "http://ns.adobe.com/SaveForWeb/1.0/">
	<!ENTITY ns_custom "http://ns.adobe.com/GenericCustomNamespace/1.0/">
	<!ENTITY ns_adobe_xpath "http://ns.adobe.com/XPath/1.0/">
]>
<svg version="1.1" id="Layer_1" xmlns:x="&ns_extend;" xmlns:i="&ns_ai;" xmlns:graph="&ns_graphs;"
	 xmlns="http://www.w3.org/2000/svg" xmlns:xlink="http://www.w3.org/1999/xlink" x="0px" y="0px" width="512px" height="512px"
	 viewBox="0 0 512 512" enable-background="new 0 0 512 512" xml:space="preserve">
<metadata>
	<sfw  xmlns="&ns_sfw;">
		<slices></slices>
		<sliceSourceBounds  bottomLeftOrigin="true" height="1212.363" width="2589.979" x="8.803" y="-1398.495"></sliceSourceBounds>
	</sfw>
</metadata>
<g>
	<path fill="#F2673D" d="M77.95,257.74c2.239,2.239,4.699,4.332,7.305,6.167c0.991,0.734,2.349,0.514,3.083-0.514
		c0.294-0.404,0.44-0.881,0.404-1.395c-0.624-13.839,0.551-56.64,37.222-67.395c1.138-0.33,2.239,0.33,2.57,1.395
		c0.11,0.33,0.11,0.734,0,1.065c-9.471,40.158,14.243,52.382,25.071,33.477c0.551-0.991,1.799-1.358,2.79-0.771
		c0.294,0.184,0.551,0.404,0.734,0.661c9.434,14.573,6.938,27.604,4.442,34.432c-0.551,1.578,0.22,3.267,1.799,3.818
		c0.771,0.294,1.689,0.22,2.423-0.184c1.578-0.881,3.083-1.945,4.368-3.267c0.44-0.44,1.175-0.44,1.578,0
		c0.22,0.22,0.33,0.514,0.33,0.771l0,0c0,27.531-22.318,49.812-49.812,49.812c-26.173,0-47.903-20.299-49.665-46.362
		c-0.22-3.304-0.11-6.681,0.33-9.984c0.22-1.615,1.725-2.79,3.377-2.57C76.849,256.969,77.436,257.263,77.95,257.74z"/>
	<path fill="#F15B2D" d="M224.625,251.881c-0.202,0.808-0.942,1.413-1.75,1.615c-2.894,0.606-5.653,1.75-8.144,3.298
		c-6.73,4.307-10.23,13.864-9.019,22.075c1.75,11.24,13.057,9.894,19.114,8.211c1.211-0.337,2.49,0.404,2.759,1.615
		c0.135,0.404,0.135,0.808,0,1.211c-0.606,2.288-1.346,4.509-1.75,5.788c-0.202,0.74-0.808,1.346-1.615,1.548
		c-29.479,8.211-38.834-17.835-27.325-38.497c8.211-14.807,21.47-17.566,27.527-17.97c1.211-0.135,2.356,0.942,2.49,2.154
		C226.859,244.501,224.625,251.881,224.625,251.881z"/>
	<path fill="#F15B2D" d="M264.131,297.311c-0.079,0.343-0.135,0.404-0.538,0.337l-10.297-1.75c-0.202,0-0.202-0.202-0.202-0.404
		l0.135-0.808c2.49-13.595,1.01-16.556,0.337-17.297c-0.942-0.606-1.817-1.01-2.961-1.211c-1.144-0.337-2.288,0.337-2.557,1.413
		c0,0.135-0.135,0.202-0.135,0.404l-2.288,17.768c-0.135,1.01-1.01,1.817-2.154,1.817l-6.865-0.269c-1.144,0-2.086-1.01-1.952-2.154
		v-0.135l5.452-58.082c0.135-1.144,1.01-1.952,2.288-1.817c0.299-0.015,9.019,2.423,9.019,2.423c1.01,0.337,1.615,1.211,1.548,2.288
		l-2.759,21.2c-0.135,1.01,0.538,2.086,1.548,2.288c3.365,0.808,7.269,2.154,9.961,4.644
		C264.939,270.659,269.246,278.264,264.131,297.311z"/>
	<path fill="#F15B2D" d="M285.534,262.852c0.135,0,0.202,0.135,0.202,0.202l0,0l-3.163,36.478h-0.404
		c-1.413,0-8.615-0.202-9.49-0.404l-0.337-0.135l2.154-33.651c0-0.135,0.135-0.202,0.202-0.202L285.534,262.852z M275.236,253.833
		c-0.404-0.942-0.404-1.952-0.135-2.894c0.269-0.942,0.942-1.75,1.75-2.288c2.086-1.413,4.846-1.01,6.259,1.01
		c0.538,0.606,0.74,1.413,0.808,2.288c0,0.538,0,0.942-0.202,1.413c-0.404,1.01-1.211,1.817-2.288,2.288
		c-0.606,0.337-1.144,0.404-1.75,0.538C277.928,256.39,276.179,255.448,275.236,253.833z"/>
	<g>
		<path fill="#FAAF43" d="M311.714,270.726c-0.808,1.077-2.288,1.279-3.298,0.538c0,0-10.436-8.224-12.451-8.211
			c-1.279-0.135-2.356,0.808-2.49,2.154l-1.952,28.671v0.337l7.807,3.365c0.337,0.067,0.606,0.202,0.942,0.202
			c1.346,0,2.356-1.01,2.356-2.356l-0.135-9.894c0-0.606,0.202-1.211,0.606-1.615c0.808-0.942,2.356-1.077,3.298-0.135l9.894,9.355
			c0.269,0.269,0.673,0.471,1.211,0.606c1.279,0.202,2.49-0.74,2.692-1.952l4.507-26.516l-12.516,4.441
			C312.186,269.716,311.916,270.389,311.714,270.726z"/>
		<polygon fill="#F89521" points="327.396,248.785 314.106,255.165 312.186,269.716 324.702,265.275 324.704,265.274 		"/>
		<polygon fill="#F47C4B" points="314.106,255.165 327.396,248.785 329.964,233.996 316.394,238.002 		"/>
		<path fill="#F15B2B" d="M329.492,217.843l-9.22,1.413c-1.01,0.269-1.817,1.077-1.952,2.086l-1.926,16.66l13.57-4.007
			c0,0,2.286-13.481,2.288-13.492C332.658,218.195,330.704,217.641,329.492,217.843z"/>
	</g>
	<path fill="#F15B2D" d="M361.115,263.861c1.346,0.135,2.288,1.211,2.288,2.557l-2.288,39.507
		c-1.413,15.547-12.653,16.624-16.355,16.96h-0.606c-6.865,0.538-14.201-3.298-15.009-11.845c-0.538-5.855,1.75-9.22,3.836-11.105
		c2.356-1.817,5.115-2.894,8.009-3.163c4.846,0,6.663-0.74,0.337-1.211c-4.105-0.336-12.047-9.893-11.845-16.624
		c0.135-4.442,1.817-8.615,5.048-11.711c3.096-2.961,7.269-4.509,11.643-4.307c2.288,0.135,4.509,0.808,6.461,1.817l0.135-1.548
		L361.115,263.861z M352.769,282.706c0.808-4.442-1.548-8.817-5.788-10.567c-0.942-0.337-1.952-0.538-2.961-0.404
		c-0.808,0.135-1.615,0.404-2.356,0.808c-1.75,1.01-2.961,2.759-3.298,4.846c-0.808,4.442,1.548,8.817,5.653,10.567
		c1.75,0.74,3.836,0.538,5.452-0.404C351.221,286.475,352.433,284.792,352.769,282.706L352.769,282.706z M339.712,311.983
		c1.144,0.942,3.298,0.538,3.702,0.538c1.75-0.202,3.5-0.808,5.048-1.75c0.202-0.135,0.337-0.337,0.538-0.404
		c0.74-0.808,1.144-1.952,1.211-2.961c-2.692-0.337-5.452-0.202-8.144,0.337c-0.74,0.135-1.548,0.404-2.288,0.74
		c-0.538,0.538-0.808,1.211-0.808,1.952C338.972,310.906,339.174,311.511,339.712,311.983L339.712,311.983z"/>
	<path fill="#F15B2D" d="M404.256,296.57l-1.548,0.538c-0.404,0.135-0.808,0.337-1.346,0.404c-0.942,0.202-1.952,0.404-2.894,0.538
		c-1.952,0.202-5.519,0.202-7.403-1.615c-1.817,1.144-3.904,1.75-6.057,1.952c-1.01,0.135-2.086,0.135-3.096,0
		c-1.615-0.135-3.163-0.404-4.711-1.01c-2.961-1.144-5.115-3.567-6.192-6.596c-0.808-3.096-0.337-6.259,1.346-9.019
		c2.894-5.048,9.961-7.942,15.816-6.259l0.538,0.202c-0.202-0.538-0.538-1.01-1.01-1.346c-3.567-2.288-9.355,0.942-9.49,1.01
		l-1.615,0.942l-0.74-1.615l-2.961-6.798c-0.202-0.74,0.538-1.01,0.942-1.346c2.49-1.144,5.048-2.086,7.74-2.557
		c5.519-1.144,10.365-0.606,13.999,1.413c5.653,3.365,4.644,10.095,3.904,15.547c-0.135,0.942-0.337,1.952-0.404,2.759
		c0,0.404-0.135,0.74-0.135,1.144s-0.135,0.942-0.202,1.615c0,0.135,0.135,0.135,0.202,0.135l1.346-0.74L404.256,296.57z
		 M388.238,289.705c1.952-1.144,2.961-3.163,2.356-4.846c-0.337-0.942-1.01-1.615-1.952-1.952c-0.74-0.337-1.548-0.404-2.288-0.337
		c-0.606,0.135-1.211,0.202-1.75,0.404l-0.337,0.135c-1.211,0.538-2.154,1.548-2.692,2.759c-0.538,1.01-0.337,2.356,0.538,3.163
		c0.74,0.808,1.75,1.346,2.894,1.346C386.151,290.513,387.228,290.176,388.238,289.705L388.238,289.705z"/>
	<path fill="#F15B2D" d="M437.772,267.697l-5.048,9.557c-0.135,0.202-0.404,0.135-0.606-0.135c-2.356-2.154-4.644-2.961-6.865-2.49
		c-1.01,0.202-1.952,0.606-2.759,1.144l-1.615,20.124c-0.135,0.808-0.74,1.346-1.548,1.211c-0.135,0-0.337,0-0.404-0.135l-8.749-3.5
		c-0.135-0.135-0.202-0.202-0.135-0.538l2.961-30.825c0.135-0.74,0.74-1.346,1.548-1.211l9.019,0.74l-0.135,1.615
		c4.846-0.942,8.413-1.413,14.201,3.702C437.772,267.361,437.772,267.563,437.772,267.697z"/>
	<path fill="#F15B2D" d="M455.137,262.65c0.135,0,0.202,0,0.202,0.135c0,0,0,0,0,0.135l-3.163,36.478h-0.538
		c-1.413,0-8.615-0.202-9.49-0.404l-0.337-0.135l2.086-33.651c0-0.135,0.135-0.202,0.202-0.202L455.137,262.65z M444.974,253.698
		c-0.404-0.942-0.404-1.952-0.135-2.894c0.269-0.942,0.942-1.75,1.75-2.288c2.086-1.413,4.846-1.01,6.259,1.01
		c0.538,0.606,0.74,1.413,0.808,2.154c0,0.538,0,0.942-0.202,1.413c-0.404,1.01-1.211,1.817-2.288,2.288
		c-0.606,0.337-1.144,0.404-1.75,0.538C447.666,256.189,445.781,255.381,444.974,253.698z"/>
	<path fill="#EF4138" d="M166.181,289.514c-8.4,15.658-24.927,26.297-43.925,26.297c-26.173,0-47.903-20.299-49.665-46.362
		c-0.22-3.304-0.11-6.681,0.33-9.984c0.22-1.615,1.725-2.79,3.377-2.57c0.551,0.073,1.138,0.367,1.652,0.844
		c2.239,2.239,4.699,4.332,7.305,6.167c0.991,0.734,2.349,0.514,3.083-0.514c0.294-0.404,0.44-0.881,0.404-1.395
		c-0.785-13.997,1.563-42.309,19.217-57.589c0,0-15.703,29.357-11.892,59.666c0,0,0.862,5.989-0.953,6.897
		c-1.815,0.907-3.857,1.089-7.305,0.363s-5.628-1.466-6.898-1.103c-1.27,0.363-2.698,1.217-2.358,3.009
		c0.169,0.892,14.882,32.85,43.721,32.85C152.865,306.09,166.181,289.514,166.181,289.514z"/>
</g>
</svg>
