<?xml version="1.0" encoding="utf-8"?>
<!-- Generator: Adobe Illustrator 26.0.3, SVG Export Plug-In . SVG Version: 6.00 Build 0)  -->
<!DOCTYPE svg PUBLIC "-//W3C//DTD SVG 1.1//EN" "http://www.w3.org/Graphics/SVG/1.1/DTD/svg11.dtd" [
	<!ENTITY ns_extend "http://ns.adobe.com/Extensibility/1.0/">
	<!ENTITY ns_ai "http://ns.adobe.com/AdobeIllustrator/10.0/">
	<!ENTITY ns_graphs "http://ns.adobe.com/Graphs/1.0/">
	<!ENTITY ns_vars "http://ns.adobe.com/Variables/1.0/">
	<!ENTITY ns_imrep "http://ns.adobe.com/ImageReplacement/1.0/">
	<!ENTITY ns_sfw "http://ns.adobe.com/SaveForWeb/1.0/">
	<!ENTITY ns_custom "http://ns.adobe.com/GenericCustomNamespace/1.0/">
	<!ENTITY ns_adobe_xpath "http://ns.adobe.com/XPath/1.0/">
]>
<svg version="1.1" id="Layer_1" xmlns:x="&ns_extend;" xmlns:i="&ns_ai;" xmlns:graph="&ns_graphs;"
	 xmlns="http://www.w3.org/2000/svg" xmlns:xlink="http://www.w3.org/1999/xlink" x="0px" y="0px" width="550px" height="550px"
	 viewBox="0 0 512 512" enable-background="new 0 0 512 512" xml:space="preserve">
<metadata>
	<sfw  xmlns="&ns_sfw;">
		<slices></slices>
		<sliceSourceBounds  bottomLeftOrigin="true" height="1212.363" width="2589.979" x="8.803" y="-1398.495"></sliceSourceBounds>
	</sfw>
</metadata>
<g>
	<g>
		<path fill="#040404" d="M48.371,200.501c11.528-9.336,25.979-14.369,40.835-14.369s29.226,5.196,40.754,14.532
			c0,0.406-0.325,0.568-0.568,0.812c-4.79,4.871-9.661,9.661-14.451,14.532c-0.081,0.162-0.244,0.325-0.406,0.406
			c-0.162,0.081-0.325,0.162-0.568,0.162c-0.162,0-0.406,0-0.568-0.081s-0.325-0.162-0.487-0.325
			c-7.063-4.465-15.262-6.819-23.624-6.901s-16.561,2.192-23.705,6.495c-0.406,0.244-0.812,0.487-1.218,0.812c-0.081,0,0,0,0,0
			L48.371,200.501z"/>
	</g>
	<g>
		<path fill="#040404" d="M129.797,232.731c5.277-5.358,10.554-10.797,15.831-16.237c20.945,25.897,17.211,61.861,0,82.482
			c-5.277-5.358-10.473-10.716-15.831-16.074C139.62,266.341,139.783,249.536,129.797,232.731z"/>
	</g>
	<g>
		<path fill="#040404" d="M129.716,315.538c-11.528,9.336-25.979,14.451-40.835,14.451s-29.226-5.115-40.835-14.451
			c5.277-5.358,10.554-10.635,15.831-15.993c16.643,10.391,33.285,10.229,49.846,0.081
			C119.081,304.821,124.439,310.18,129.716,315.538z"/>
	</g>
	<g>
		<path fill="#040404" d="M47.884,232.65c-9.904,16.805-9.904,33.61,0,50.415l-15.831,15.912c-18.266-22.082-19.24-58.371,0-82.238
			C37.33,222.096,42.607,227.373,47.884,232.65z"/>
	</g>
	<g>
		<path fill="#040404" d="M493.416,292.806h-7.55c-0.487-2.76-0.081-5.52-0.568-8.443c-0.649,0.568-1.137,1.218-1.624,1.948
			c-3.491,4.222-8.443,6.819-13.801,7.306c-4.303,0.568-8.687,0-12.665-1.542c-3.897-1.461-7.388-3.897-9.985-7.144
			c-2.598-3.247-4.303-7.144-4.79-11.284c-0.974-5.033-0.649-10.229,0.812-15.181c1.218-4.222,3.572-8.037,6.901-10.96
			c3.328-2.923,7.469-4.709,11.853-5.277c5.115-0.974,10.391-0.325,15.019,1.867c2.598,1.218,4.952,3.085,6.738,5.277
			c0.568,0.731,1.055,1.461,1.461,2.354v-29.794h8.199L493.416,292.806L493.416,292.806z M467.437,285.825
			c4.384,0.081,8.605-1.461,11.853-4.465c3.247-2.923,5.196-7.063,5.52-11.447c0.487-3.491,0-7.063-1.542-10.229
			c-1.543-3.166-3.978-5.845-6.982-7.631c-2.273-1.299-4.79-2.03-7.388-2.273c-2.598-0.244-5.196,0.162-7.631,1.055
			c-2.435,0.812-4.627,2.111-6.413,3.978s-3.085,4.059-3.734,6.576c-1.218,4.059-1.299,8.443-0.081,12.583
			c0.974,3.491,3.166,6.657,6.17,8.768C460.131,284.932,463.784,285.987,467.437,285.825L467.437,285.825z"/>
	</g>
	<g>
		<path fill="#040404" d="M245.645,271.212h-41.809c0.244,3.004,1.299,5.764,3.085,8.199c1.786,2.354,4.222,4.222,6.982,5.196
			c2.76,1.137,5.764,1.624,8.768,1.461c4.303-0.162,8.443-1.542,12.015-3.897c0.974-0.649,1.867-1.461,2.598-2.435
			c1.867,1.705,3.653,3.329,5.52,5.115c-1.137,1.461-2.435,2.679-3.897,3.653c-4.952,3.491-10.879,5.277-16.967,5.358
			c-3.491,0.162-7.063-0.406-10.391-1.624c-4.222-1.461-7.956-4.059-10.797-7.55s-4.546-7.712-5.033-12.177
			c-0.974-5.277-0.406-10.797,1.705-15.749c1.624-4.059,4.303-7.55,7.794-10.148c3.491-2.598,7.631-4.222,11.934-4.709
			c4.14-0.568,8.362-0.244,12.34,0.893c4.059,1.055,7.712,3.247,10.473,6.332c2.841,3.085,4.627,6.982,5.277,11.041
			C246.132,263.905,246.214,267.558,245.645,271.212z M237.771,263.986c0-0.568,0.081-0.974,0-1.461
			c-0.244-2.679-1.137-5.196-2.76-7.306c-1.624-2.111-3.816-3.734-6.251-4.627c-2.76-0.974-5.602-1.38-8.524-1.218
			c-2.598,0-5.196,0.649-7.469,1.867c-2.354,1.218-4.303,2.923-5.845,5.033c-1.624,2.192-2.598,4.79-2.923,7.55
			C215.202,263.986,226.405,263.986,237.771,263.986L237.771,263.986z"/>
	</g>
	<g>
		<path fill="#040404" d="M346.718,293.862c-3.41,0.081-6.819-0.487-10.067-1.786c-3.166-1.299-6.089-3.166-8.524-5.602
			c-3.978-4.059-6.413-9.417-6.901-15.1c-0.731-5.52,0.244-11.041,2.679-15.993c1.786-3.653,4.465-6.819,7.794-9.174
			c3.328-2.354,7.225-3.816,11.284-4.222c4.709-0.731,9.58-0.162,13.964,1.624c4.059,1.542,7.631,4.222,10.229,7.631
			c2.679,3.41,4.303,7.55,4.79,11.853c0.893,4.709,0.487,9.58-1.055,14.045c-1.38,4.221-3.897,8.037-7.306,10.879
			s-7.55,4.709-11.934,5.358C350.047,293.781,348.342,293.862,346.718,293.862z M364.172,267.964
			c0.081-2.273-0.325-4.546-1.055-6.738c-0.974-2.76-2.517-5.196-4.709-7.225c-2.192-2.03-4.709-3.41-7.55-4.059
			c-2.841-0.731-5.764-0.731-8.605,0c-2.841,0.731-5.358,2.192-7.55,4.14c-2.679,2.841-4.465,6.332-5.115,10.148
			c-0.731,3.816-0.325,7.712,1.137,11.366c4.465,10.96,17.617,12.746,25.573,7.55c2.517-1.624,4.546-3.897,5.926-6.576
			C363.604,273.891,364.254,270.968,364.172,267.964z"/>
	</g>
	<g>
		<path fill="#040404" d="M430.499,292.888h-7.956c-0.244-0.487-0.244-1.055-0.162-1.624v-26.141c0-1.948-0.325-3.978-0.893-5.845
			c-0.649-2.192-1.867-4.222-3.572-5.764c-1.705-1.542-3.816-2.598-6.089-3.085c-2.679-0.812-5.439-0.812-8.118-0.081
			c-2.679,0.731-5.115,2.192-6.982,4.222c-2.841,2.923-4.384,6.819-4.303,10.879c-0.081,8.605,0,17.13,0,25.735
			c0.081,0.568,0,1.137-0.081,1.705h-8.037v-50.009h7.55c0.162,2.517,0.244,4.952,0.406,7.306c0.406,0.081,0.487-0.244,0.649-0.406
			c2.273-2.841,5.196-5.033,8.524-6.332c3.328-1.299,6.982-1.705,10.554-1.137c2.76,0.244,5.439,1.055,7.875,2.354
			c2.436,1.299,4.546,3.166,6.251,5.358c2.679,3.572,4.222,7.794,4.465,12.177c0.081,1.38,0.162,2.679,0.162,3.978v25.004
			C430.742,291.751,430.661,292.319,430.499,292.888z"/>
	</g>
	<g>
		<path fill="#040404" d="M281.528,242.96h7.712c0.162,2.192,0.406,4.465,0.649,6.901c1.461-2.517,3.653-4.546,6.17-5.926
			c2.598-1.38,5.439-2.111,8.362-1.948c4.384-0.162,8.605,1.137,12.096,3.734c-1.218,2.354-2.435,4.709-3.653,6.982
			c-0.568,0-1.137-0.244-1.542-0.649c-3.166-1.786-6.982-2.354-10.554-1.461c-3.572,0.812-6.657,3.004-8.768,6.008
			c-1.624,2.517-2.435,5.439-2.354,8.443v26.141c0.081,0.568,0,1.137-0.162,1.705h-8.037V242.96H281.528z"/>
	</g>
	<g>
		<path fill="#040404" d="M265.941,292.888h-8.118v-70.71h8.118V292.888z"/>
	</g>
	<g>
		<path fill="#040404" d="M157.562,315.538c0,2.192-0.731,4.384-1.948,6.251c-1.218,1.867-3.004,3.247-5.115,4.059
			c-2.03,0.812-4.303,1.055-6.495,0.568c-2.192-0.487-4.14-1.542-5.683-3.166c-1.542-1.624-2.598-3.572-3.004-5.764
			c-0.406-2.192-0.162-4.465,0.731-6.495s2.354-3.816,4.14-5.033c1.867-1.218,4.059-1.867,6.251-1.867
			c1.461,0,2.923,0.325,4.303,0.893c1.38,0.568,2.598,1.38,3.653,2.517c1.055,1.055,1.867,2.273,2.435,3.653
			C157.318,312.615,157.643,314.076,157.562,315.538z"/>
	</g>
	<g>
		<path fill="#040404" d="M31.972,326.822c-2.273,0.081-4.465-0.568-6.332-1.786c-1.867-1.218-3.41-3.004-4.303-5.033
			c-0.893-2.03-1.137-4.384-0.731-6.576c0.406-2.192,1.461-4.222,3.085-5.845c1.624-1.624,3.572-2.679,5.845-3.166
			c2.192-0.406,4.465-0.244,6.576,0.649c2.111,0.893,3.816,2.354,5.115,4.222c1.218,1.867,1.867,4.059,1.867,6.332
			c0,1.461-0.244,2.923-0.812,4.303c-0.568,1.38-1.38,2.598-2.354,3.653c-1.055,1.055-2.273,1.867-3.572,2.435
			C34.894,326.497,33.433,326.741,31.972,326.822z"/>
	</g>
	<g>
		<path fill="#040404" d="M157.562,199.933c0.081,1.461-0.162,2.923-0.731,4.384c-0.487,1.38-1.299,2.679-2.354,3.734
			c-1.055,1.055-2.273,1.948-3.653,2.517c-1.38,0.568-2.841,0.893-4.303,0.893s-2.923-0.244-4.303-0.893
			c-1.38-0.568-2.598-1.38-3.653-2.435c-1.055-1.055-1.867-2.354-2.354-3.734c-0.568-1.38-0.812-2.841-0.731-4.303
			c-0.081-1.461,0.162-2.923,0.731-4.384c0.487-1.38,1.299-2.679,2.354-3.734c1.055-1.055,2.273-1.948,3.653-2.517
			c1.38-0.568,2.841-0.893,4.303-0.893s2.923,0.244,4.303,0.893c1.38,0.568,2.598,1.38,3.653,2.435
			c1.055,1.055,1.867,2.354,2.354,3.734C157.399,196.929,157.643,198.391,157.562,199.933z"/>
	</g>
	<g>
		<path fill="#040404" d="M43.013,199.852c0,2.192-0.649,4.384-1.948,6.17c-1.218,1.867-3.004,3.247-5.033,4.059
			s-4.303,1.055-6.495,0.649s-4.14-1.542-5.683-3.085c-1.542-1.542-2.598-3.572-3.085-5.764c-0.406-2.192-0.244-4.384,0.649-6.495
			c0.893-2.111,2.273-3.816,4.14-5.033c1.867-1.218,3.978-1.867,6.17-1.867c1.461,0,2.923,0.244,4.303,0.812s2.598,1.38,3.653,2.435
			c1.055,1.055,1.867,2.273,2.435,3.653C42.769,196.929,43.013,198.391,43.013,199.852z"/>
	</g>
	<g>
		<path fill="#040404" d="M77.028,243.041c0,0.731-0.325,1.461-0.893,2.03c-0.568,0.487-1.299,0.812-2.03,0.812
			c-0.731,0-1.461-0.325-2.03-0.812c-0.568-0.568-0.812-1.299-0.812-2.03c0.081-0.731,0.406-1.461,0.893-1.948
			c0.568-0.487,1.299-0.812,2.03-0.731c0.731,0,1.461,0.244,2.03,0.812C76.703,241.58,77.028,242.311,77.028,243.041z"/>
	</g>
	<g>
		<path fill="#040404" d="M51.943,217.631c0.406,0,0.731,0.081,1.055,0.162c0.325,0.162,0.649,0.325,0.893,0.568
			c0.244,0.244,0.487,0.568,0.649,0.893c0.162,0.325,0.244,0.731,0.244,1.055c0,0.731-0.325,1.461-0.893,1.948
			c-0.568,0.487-1.299,0.812-2.03,0.731c-0.406,0-0.731,0-1.137-0.162c-0.325-0.162-0.649-0.325-0.974-0.568
			c-0.244-0.244-0.487-0.568-0.649-0.893c-0.162-0.325-0.244-0.731-0.244-1.137s0.081-0.731,0.244-1.137
			c0.162-0.325,0.406-0.649,0.649-0.893c0.244-0.244,0.649-0.487,0.974-0.568C51.131,217.631,51.537,217.631,51.943,217.631
			L51.943,217.631z"/>
	</g>
	<g>
		<path fill="#040404" d="M74.187,275.596c-0.731,0-1.461-0.325-2.03-0.812c-0.568-0.487-0.893-1.218-0.893-1.948
			c0-0.731,0.325-1.461,0.893-2.03c0.568-0.487,1.299-0.812,2.03-0.812c0.406,0,0.731,0.081,1.055,0.162
			c0.325,0.162,0.649,0.325,0.893,0.568c0.244,0.244,0.487,0.568,0.649,0.893c0.162,0.325,0.244,0.731,0.244,1.055
			c0,0.406-0.081,0.731-0.244,1.055c-0.162,0.325-0.325,0.649-0.649,0.893c-0.244,0.244-0.568,0.487-0.974,0.568
			C74.917,275.596,74.593,275.596,74.187,275.596L74.187,275.596z"/>
	</g>
	<g>
		<path fill="#040404" d="M48.939,295.404c0.081-0.731,0.406-1.461,0.893-1.948c0.568-0.487,1.218-0.812,1.948-0.812
			c0.406,0,0.731,0.081,1.137,0.162c0.325,0.162,0.649,0.325,0.974,0.568c0.244,0.244,0.487,0.568,0.649,0.893
			c0.162,0.325,0.244,0.731,0.244,1.137s-0.081,0.731-0.244,1.055c-0.162,0.325-0.406,0.649-0.649,0.893
			c-0.244,0.244-0.568,0.487-0.974,0.568c-0.325,0.162-0.731,0.162-1.137,0.162c-0.731,0-1.461-0.325-1.948-0.812
			C49.264,296.866,48.939,296.135,48.939,295.404z"/>
	</g>
	<g>
		<path fill="#040404" d="M96.512,268.046c-0.731,0-1.461-0.325-1.948-0.812c-0.568-0.487-0.812-1.218-0.893-1.948
			c0-0.406,0.081-0.731,0.244-1.055s0.406-0.649,0.649-0.893c0.325-0.244,0.649-0.406,0.974-0.568
			c0.325-0.081,0.731-0.162,1.137-0.162s0.731,0.081,1.055,0.162c0.325,0.162,0.649,0.325,0.893,0.649
			c0.244,0.244,0.487,0.568,0.568,0.893c0.162,0.325,0.162,0.731,0.162,1.055c-0.081,0.731-0.406,1.461-0.893,1.948
			C97.973,267.802,97.243,268.046,96.512,268.046z"/>
	</g>
	<g>
		<path fill="#040404" d="M133.938,300.194c0.487,0.081,1.055,0.325,1.461,0.649c0.406,0.325,0.731,0.812,0.812,1.299
			c0.162,0.487,0.162,1.055,0,1.542c-0.162,0.487-0.406,0.974-0.812,1.299s-0.893,0.568-1.461,0.649
			c-0.487,0.081-1.055,0-1.542-0.244c-0.487-0.244-0.893-0.568-1.137-1.055c-0.244-0.487-0.406-0.974-0.406-1.542
			c0-0.406,0.162-0.731,0.325-1.055c0.162-0.325,0.406-0.649,0.731-0.893c0.325-0.244,0.649-0.406,0.974-0.568
			C133.207,300.113,133.613,300.194,133.938,300.194z"/>
	</g>
	<g>
		<path fill="#040404" d="M111.369,238.251c-0.406,0-0.731-0.081-1.137-0.162c-0.325-0.162-0.649-0.325-0.974-0.568
			c-0.244-0.244-0.487-0.568-0.649-0.893c-0.162-0.325-0.244-0.731-0.162-1.137c0-0.406,0.081-0.731,0.244-1.055
			c0.162-0.325,0.406-0.649,0.649-0.893c0.244-0.244,0.649-0.406,0.974-0.568c0.325-0.081,0.731-0.162,1.137-0.081
			c0.406,0,0.731,0.081,1.055,0.162c0.325,0.162,0.649,0.325,0.893,0.568c0.244,0.244,0.487,0.568,0.649,0.893
			c0.162,0.325,0.244,0.731,0.162,1.055c0,0.406-0.081,0.731-0.244,1.055c-0.162,0.325-0.406,0.649-0.649,0.893
			c-0.244,0.244-0.568,0.406-0.974,0.568C112.18,238.251,111.775,238.251,111.369,238.251z"/>
	</g>
	<g>
		<path fill="#040404" d="M133.694,210.162c0.731,0,1.461,0.244,2.03,0.731c0.568,0.487,0.893,1.218,0.974,1.948
			c0,0.406-0.081,0.731-0.244,1.137c-0.162,0.325-0.406,0.649-0.649,0.893c-0.244,0.244-0.568,0.487-0.974,0.568
			c-0.325,0.162-0.731,0.162-1.137,0.162c-0.731,0-1.461-0.244-2.03-0.812c-0.568-0.487-0.893-1.218-0.893-1.948
			c0-0.406,0.081-0.731,0.244-1.055c0.162-0.325,0.325-0.649,0.649-0.893c0.244-0.244,0.568-0.487,0.893-0.568
			C132.963,210.243,133.369,210.162,133.694,210.162z"/>
	</g>
	<g>
		<path fill="#040404" d="M129.229,220.391c0,0.568-0.162,1.055-0.406,1.542c-0.325,0.487-0.731,0.812-1.218,1.055
			c-0.487,0.244-1.055,0.244-1.542,0.162c-0.568-0.081-1.055-0.325-1.38-0.731c-0.406-0.406-0.649-0.893-0.731-1.38
			c-0.081-0.568-0.081-1.055,0.162-1.542c0.162-0.487,0.568-0.893,0.974-1.218c0.487-0.325,0.974-0.487,1.542-0.487
			c0.731,0,1.38,0.244,1.948,0.812C128.904,218.93,129.229,219.661,129.229,220.391z"/>
	</g>
	<g>
		<path fill="#040404" d="M118.675,230.701c-0.731,0-1.38-0.325-1.948-0.812c-0.487-0.487-0.812-1.218-0.812-1.948
			c0-0.731,0.244-1.461,0.812-1.948c0.487-0.487,1.218-0.812,1.948-0.812s1.38,0.325,1.948,0.812
			c0.487,0.487,0.812,1.218,0.812,1.948c0,0.731-0.244,1.461-0.812,1.948C120.136,230.377,119.406,230.701,118.675,230.701z"/>
	</g>
	<g>
		<path fill="#040404" d="M106.904,242.96c0,0.325,0,0.731-0.162,1.055c-0.162,0.325-0.325,0.649-0.568,0.893
			c-0.244,0.244-0.568,0.487-0.893,0.649c-0.325,0.162-0.649,0.244-1.055,0.244s-0.731-0.081-1.055-0.162
			c-0.325-0.162-0.649-0.325-0.893-0.568s-0.487-0.568-0.649-0.893c-0.162-0.325-0.244-0.731-0.244-1.055
			c0-0.731,0.325-1.38,0.812-1.948c0.487-0.487,1.218-0.812,1.867-0.893c0.731,0,1.38,0.325,1.948,0.812
			C106.579,241.58,106.904,242.229,106.904,242.96z"/>
	</g>
	<g>
		<path fill="#040404" d="M126.306,298.164c-0.731-0.081-1.38-0.406-1.867-0.974c-0.487-0.568-0.731-1.299-0.649-2.03
			c0.081-0.731,0.406-1.461,0.974-1.867c0.568-0.487,1.299-0.731,2.03-0.649c0.731,0.081,1.38,0.406,1.867,0.974
			c0.487,0.568,0.731,1.299,0.649,1.948c-0.081,0.731-0.406,1.38-0.893,1.867C127.768,298.002,127.037,298.246,126.306,298.164z"/>
	</g>
	<g>
		<path fill="#040404" d="M96.35,253.351c-0.731,0-1.38-0.325-1.948-0.812c-0.487-0.487-0.812-1.218-0.812-1.948
			c0-0.406,0.081-0.731,0.162-1.055c0.162-0.325,0.325-0.649,0.568-0.893c0.244-0.244,0.568-0.487,0.893-0.568
			c0.325-0.162,0.731-0.244,1.055-0.162c0.406,0,0.731,0.081,1.055,0.244c0.325,0.162,0.649,0.325,0.893,0.649
			c0.244,0.244,0.487,0.568,0.568,0.893c0.162,0.325,0.162,0.731,0.162,1.055c0,0.731-0.325,1.38-0.812,1.867
			C97.73,253.027,97.08,253.351,96.35,253.351z"/>
	</g>
	<g>
		<path fill="#040404" d="M84.497,250.591c0,0.731-0.325,1.38-0.812,1.948c-0.487,0.487-1.218,0.812-1.948,0.812
			s-1.38-0.325-1.867-0.812c-0.487-0.487-0.812-1.218-0.812-1.948c0-0.731,0.244-1.38,0.812-1.948
			c0.487-0.487,1.218-0.812,1.867-0.812c0.325,0,0.731,0.081,1.055,0.244c0.325,0.162,0.649,0.325,0.893,0.568
			c0.244,0.244,0.487,0.568,0.568,0.893C84.497,249.861,84.497,250.266,84.497,250.591z"/>
	</g>
	<g>
		<path fill="#040404" d="M106.904,272.917c0,0.406-0.081,0.731-0.162,1.055c-0.162,0.325-0.325,0.649-0.649,0.893
			c-0.244,0.244-0.568,0.487-0.893,0.568c-0.325,0.162-0.731,0.162-1.055,0.162c-0.406,0-0.731-0.081-1.055-0.244
			c-0.325-0.162-0.649-0.406-0.893-0.649c-0.244-0.244-0.406-0.568-0.568-0.974c-0.081-0.325-0.162-0.731-0.081-1.055
			c0-0.731,0.325-1.38,0.893-1.867c0.568-0.487,1.218-0.731,1.948-0.731s1.38,0.325,1.867,0.893
			C106.66,271.455,106.904,272.186,106.904,272.917z"/>
	</g>
	<g>
		<path fill="#040404" d="M81.818,262.525c0.731,0,1.38,0.244,1.948,0.812c0.487,0.487,0.812,1.218,0.812,1.867
			c0,0.731-0.244,1.38-0.731,1.948c-0.487,0.487-1.137,0.812-1.867,0.893c-0.406,0-0.731-0.081-1.055-0.162
			c-0.325-0.162-0.649-0.325-0.893-0.568c-0.244-0.244-0.487-0.568-0.568-0.893c-0.162-0.325-0.162-0.731-0.162-1.055
			s0.081-0.731,0.162-1.055c0.162-0.325,0.325-0.649,0.568-0.893c0.244-0.244,0.568-0.487,0.893-0.568
			C81.087,262.606,81.493,262.525,81.818,262.525z"/>
	</g>
	<g>
		<path fill="#040404" d="M118.756,290.614c-0.568,0-1.055-0.162-1.542-0.406c-0.487-0.325-0.812-0.731-1.055-1.218
			c-0.244-0.487-0.244-1.055-0.162-1.624c0.081-0.568,0.325-1.055,0.731-1.461s0.893-0.649,1.38-0.812
			c0.568-0.081,1.055-0.081,1.624,0.162c0.487,0.244,0.974,0.568,1.218,0.974c0.325,0.487,0.487,0.974,0.487,1.542
			c0,0.731-0.244,1.461-0.812,1.948C120.136,290.29,119.487,290.614,118.756,290.614z"/>
	</g>
	<g>
		<path fill="#040404" d="M62.172,288.098c0,0.325-0.081,0.731-0.244,1.055c-0.162,0.325-0.325,0.568-0.649,0.812
			c-0.244,0.244-0.568,0.406-0.893,0.568c-0.325,0.081-0.649,0.162-1.055,0.162c-0.731-0.081-1.38-0.406-1.867-0.893
			c-0.487-0.568-0.731-1.218-0.731-1.948c0-0.406,0.081-0.731,0.244-1.055c0.162-0.325,0.406-0.649,0.649-0.893
			c0.244-0.244,0.568-0.406,0.974-0.568c0.325-0.081,0.731-0.162,1.055-0.162c0.325,0,0.731,0.162,1.055,0.325
			c0.325,0.162,0.568,0.406,0.812,0.649c0.244,0.244,0.406,0.568,0.487,0.893C62.172,287.367,62.253,287.773,62.172,288.098z"/>
	</g>
	<g>
		<path fill="#040404" d="M59.412,230.701c-0.731,0-1.38-0.325-1.867-0.893c-0.487-0.487-0.731-1.218-0.731-1.948
			c0-0.406,0.081-0.731,0.162-1.055c0.162-0.325,0.325-0.649,0.568-0.893c0.244-0.244,0.568-0.487,0.893-0.568
			c0.325-0.162,0.731-0.162,1.055-0.162c0.325,0,0.731,0.081,1.055,0.244c0.325,0.162,0.649,0.406,0.893,0.649
			c0.244,0.244,0.406,0.568,0.568,0.974c0.081,0.325,0.162,0.731,0.162,1.055c0,0.731-0.325,1.38-0.893,1.867
			C60.792,230.458,60.142,230.701,59.412,230.701z"/>
	</g>
	<g>
		<path fill="#040404" d="M67.043,277.706c0.325,0,0.731,0.081,1.055,0.244c0.325,0.162,0.649,0.325,0.893,0.568
			s0.406,0.568,0.568,0.893c0.162,0.325,0.162,0.649,0.162,1.055c0,0.731-0.325,1.38-0.893,1.867
			c-0.487,0.487-1.218,0.731-1.948,0.731c-0.731,0-1.38-0.325-1.867-0.812c-0.487-0.487-0.812-1.218-0.812-1.867
			c0-0.406,0.081-0.731,0.244-1.055c0.162-0.325,0.325-0.649,0.649-0.893c0.244-0.244,0.568-0.406,0.974-0.568
			C66.312,277.706,66.637,277.625,67.043,277.706z"/>
	</g>
	<g>
		<path fill="#040404" d="M111.531,277.706c0.406,0,0.731,0,1.055,0.162c0.325,0.162,0.649,0.325,0.974,0.568
			c0.244,0.244,0.487,0.568,0.649,0.893c0.162,0.325,0.244,0.731,0.162,1.055c0,0.731-0.325,1.38-0.893,1.867
			c-0.487,0.487-1.218,0.731-1.948,0.731s-1.38-0.244-1.948-0.812c-0.487-0.487-0.812-1.218-0.812-1.948
			c0-0.325,0.081-0.731,0.162-1.055c0.162-0.325,0.325-0.649,0.568-0.893c0.244-0.244,0.568-0.487,0.893-0.568
			C110.8,277.788,111.206,277.706,111.531,277.706z"/>
	</g>
	<g>
		<path fill="#040404" d="M44.555,215.601c-0.731,0-1.38-0.244-1.948-0.731c-0.487-0.487-0.812-1.137-0.893-1.867
			c0-0.406,0.081-0.731,0.244-1.055c0.162-0.325,0.325-0.649,0.649-0.893c0.244-0.244,0.568-0.487,0.893-0.568
			c0.325-0.162,0.731-0.162,1.055-0.162c0.325,0,0.731,0.081,1.055,0.162c0.325,0.081,0.649,0.325,0.893,0.568
			c0.244,0.244,0.487,0.568,0.568,0.893c0.162,0.325,0.162,0.649,0.162,1.055c0,0.325-0.081,0.731-0.162,1.055
			c-0.162,0.325-0.325,0.649-0.568,0.893c-0.244,0.244-0.568,0.487-0.893,0.568C45.286,215.52,44.961,215.601,44.555,215.601z"/>
	</g>
	<g>
		<path fill="#040404" d="M44.555,300.275c0.325,0,0.731,0,1.055,0.162c0.325,0.162,0.649,0.325,0.893,0.568
			c0.244,0.244,0.487,0.568,0.649,0.893c0.162,0.325,0.244,0.649,0.244,1.055c0,0.731-0.325,1.38-0.812,1.867
			c-0.487,0.487-1.218,0.812-1.867,0.812c-0.731,0-1.38-0.244-1.948-0.731c-0.487-0.487-0.812-1.137-0.893-1.867
			c0-0.325,0.081-0.731,0.162-1.055c0.162-0.325,0.325-0.649,0.568-0.893c0.244-0.244,0.568-0.487,0.893-0.568
			C43.824,300.356,44.149,300.275,44.555,300.275z"/>
	</g>
	<g>
		<path fill="#040404" d="M89.287,260.82c-0.325,0-0.731,0-1.055-0.162c-0.325-0.081-0.649-0.325-0.893-0.568
			s-0.487-0.568-0.649-0.893c-0.162-0.325-0.244-0.649-0.244-1.055c0-0.325,0.081-0.731,0.162-1.055
			c0.162-0.325,0.325-0.649,0.568-0.893c0.244-0.244,0.568-0.487,0.893-0.649c0.325-0.162,0.649-0.244,1.055-0.244
			s0.731,0,1.055,0.162c0.325,0.162,0.649,0.325,0.974,0.568c0.244,0.244,0.487,0.568,0.649,0.893
			c0.162,0.325,0.244,0.731,0.244,1.055c0,0.325-0.081,0.731-0.162,1.055c-0.162,0.325-0.325,0.649-0.568,0.893
			c-0.244,0.244-0.568,0.487-0.893,0.568C90.017,260.739,89.693,260.82,89.287,260.82z"/>
	</g>
	<g>
		<path fill="#040404" d="M66.88,238.17c-0.325,0-0.731-0.081-1.055-0.162c-0.325-0.162-0.649-0.325-0.893-0.568
			c-0.244-0.244-0.487-0.568-0.568-0.893c-0.162-0.325-0.162-0.731-0.162-1.055c0-0.406,0.081-0.731,0.244-1.055
			c0.162-0.325,0.325-0.649,0.649-0.893c0.244-0.244,0.568-0.487,0.893-0.568c0.325-0.162,0.731-0.162,1.055-0.162
			c0.325,0,0.731,0.081,1.055,0.244c0.325,0.162,0.649,0.325,0.893,0.649c0.244,0.244,0.406,0.568,0.568,0.893
			c0.162,0.325,0.162,0.731,0.162,1.055c0,0.325-0.081,0.731-0.162,1.055c-0.162,0.325-0.325,0.649-0.649,0.893
			c-0.244,0.244-0.568,0.406-0.893,0.568C67.53,238.17,67.205,238.251,66.88,238.17z"/>
	</g>
</g>
</svg>
