<?xml version="1.0" encoding="utf-8"?>
<!-- Generator: Adobe Illustrator 26.0.3, SVG Export Plug-In . SVG Version: 6.00 Build 0)  -->
<!DOCTYPE svg PUBLIC "-//W3C//DTD SVG 1.1//EN" "http://www.w3.org/Graphics/SVG/1.1/DTD/svg11.dtd" [
	<!ENTITY ns_extend "http://ns.adobe.com/Extensibility/1.0/">
	<!ENTITY ns_ai "http://ns.adobe.com/AdobeIllustrator/10.0/">
	<!ENTITY ns_graphs "http://ns.adobe.com/Graphs/1.0/">
	<!ENTITY ns_vars "http://ns.adobe.com/Variables/1.0/">
	<!ENTITY ns_imrep "http://ns.adobe.com/ImageReplacement/1.0/">
	<!ENTITY ns_sfw "http://ns.adobe.com/SaveForWeb/1.0/">
	<!ENTITY ns_custom "http://ns.adobe.com/GenericCustomNamespace/1.0/">
	<!ENTITY ns_adobe_xpath "http://ns.adobe.com/XPath/1.0/">
]>
<svg version="1.1" id="Layer_1" xmlns:x="&ns_extend;" xmlns:i="&ns_ai;" xmlns:graph="&ns_graphs;"
	 xmlns="http://www.w3.org/2000/svg" xmlns:xlink="http://www.w3.org/1999/xlink" x="0px" y="0px" width="512px" height="512px"
	 viewBox="0 40 512 512" enable-background="new 0 0 512 512" xml:space="preserve">
<metadata>
	<sfw  xmlns="&ns_sfw;">
		<slices></slices>
		<sliceSourceBounds  bottomLeftOrigin="true" height="1212.363" width="2589.979" x="8.803" y="-1398.495"></sliceSourceBounds>
	</sfw>
</metadata>
<g>
	<g>
		<g>
			<path fill="#F1D051" d="M253.746,342.589c-0.055,1.246-0.693,2.398-1.723,3.101c-14.887,10.148-31.48,18.144-46.969,27.477
				c-1.044,0.59-3.019,0.563-4.067-0.038c-14.994-8.593-29.908-17.326-44.822-26.06c-1.062-0.622-1.863-0.688-2.984-0.038
				c-14.907,8.642-29.854,17.214-44.767,25.847c-1.402,0.812-2.563,1.055-4.072,0.171c-15.395-9.686-32.203-17.557-46.978-28.057
				c-1.141-0.811-1.846-2.104-1.884-3.503c-0.485-17.574-0.246-35.272-0.246-52.886c0-2.634,1.492-3.947,2.217-4.371
				c14.665-8.567,29.38-17.048,44.14-25.45c1.642-0.935,2.21-1.934,2.2-3.795c0.004-16.56-0.243-33.14-0.035-49.694
				c0.021-1.642,0.719-3.305,2.111-4.176c21.175-13.246,31.348-19.09,47.03-27.754c0.935-0.516,2.682-0.525,3.605,0.005
				c15.798,9.072,31.53,18.258,47.25,27.464c1.971,1.204,1.715,3.326,1.715,5.377c0,16.464,0.018,32.928-0.044,49.391
				c-0.006,1.614,0.507,2.505,1.892,3.305c14.604,8.437,29.153,16.97,43.769,25.386c2.177,1.254,2.994,2.708,2.974,5.29
				C253.635,307.212,254.52,325.038,253.746,342.589z M248.875,292.416c-0.105-0.061-0.086-0.05-0.191-0.111
				c-13.899,7.967-27.787,15.954-41.716,23.87c-1.301,0.739-1.366,1.703-1.364,2.923c0.158,15.912-0.273,31.774,0.184,47.681
				c14.099-8.05,27.596-15.91,41.493-24.005c0.944-0.55,1.534-1.558,1.546-2.65C249.001,324.233,248.805,308.314,248.875,292.416z
				 M157.554,292.179c-0.099-0.064-0.197-0.129-0.296-0.193c-0.153,15.967-0.009,31.953-0.121,47.926
				c-0.006,1.405,0.566,2.109,1.694,2.761c13.831,7.986,27.548,16.023,41.39,24.017c0.633-16.048,0.045-32.317,0.175-48.443
				c-0.004-0.709-0.786-1.674-1.468-2.08C185.225,308.021,171.371,300.131,157.554,292.179z M157.965,282.54
				c13.706-7.871,27.402-15.759,41.136-23.58c1.182-0.673,1.379-1.485,1.377-2.673c-0.027-16.126-0.016-32.157-0.017-48.295
				c-14.616,8.342-28.554,16.465-43.007,24.851c-0.725,16.264-0.018,32.869-0.25,49.249
				C157.544,282.292,157.625,282.34,157.965,282.54z M198.057,203.508c-14.367-8.361-28.364-16.521-42.399-24.617
				c-0.541-0.312-1.56-0.237-2.151,0.063c-14.078,7.913-28.044,16.132-42.04,24.117c13.321,8.595,28.059,16.278,41.826,24.61
				c1.017,0.593,1.703,0.618,2.746,0.009C170.149,219.466,183.763,211.723,198.057,203.508z M152.056,282.932
				c0.299-16.222,0.032-32.435,0.051-48.664c-0.004-0.733-0.691-1.759-1.353-2.148c-14.031-8.034-27.755-16.644-42.002-24.257
				c0,16.351-0.022,32.43,0.068,48.509c0.004,0.767,0.833,1.814,1.564,2.248C124.316,266.866,137.986,274.744,152.056,282.932z
				 M62.87,287.039c14.117,8.217,27.863,16.186,41.559,24.24c1.409,0.829,2.401,0.778,3.77-0.016
				c13.672-8.052,27.534-15.639,41.121-23.846c-13.729-8.568-27.991-16.271-41.877-24.612c-1.124-0.659-1.849-0.373-2.767,0.157
				C90.61,271.064,77.042,278.844,62.87,287.039z M246.277,287.767c-13.851-8.519-28.118-16.434-42.155-24.681
				c-0.57-0.329-1.713-0.175-2.343,0.184c-13.888,8.133-28.153,15.722-41.787,24.226c13.798,8.157,27.682,16.086,41.471,24.25
				c1.304,0.768,2.175,0.605,3.342-0.074C218.708,303.625,232.273,295.878,246.277,287.767z M152.167,292.017
				c-14.26,7.598-28.088,16.154-42.245,24.017c-1.166,0.664-1.176,1.492-1.176,2.536c0.145,15.947-0.268,31.878,0.17,47.816
				c14.126-7.765,27.917-16.08,41.979-23.967c1.24-0.706,1.285-1.558,1.283-2.692C152.155,323.758,152.171,308.03,152.167,292.017z
				 M103.547,366.441c0.535-16.116,0.052-32.255,0.134-48.395c-0.005-0.768-0.831-1.823-1.563-2.253
				c-13.857-8.015-27.543-16.307-41.545-24.059c-0.305,16.027,0.01,32.054-0.153,48.09c-0.005,1.374,0.621,1.932,1.644,2.523
				C76.029,350.431,89.464,358.295,103.547,366.441z"/>
			<path fill="#F1D051" d="M363.068,244.447c10.555-0.015,21.168,0.058,31.661,0.058c7.525,0,12.245,4.427,12.189,13.147
				c0.152,5.377,0.046,11.086-5.235,14.376c8.784,3.957,7.178,13.746,6.135,21.346c-0.882,6.31-6.803,8.938-12.453,8.938
				c-10.754,0-21.508,0-32.623,0c0-19.204,0-38.322,0-57.44C362.851,244.731,362.96,244.589,363.068,244.447z M371.824,253.325
				c0,4.825,0,10.012,0,15.131c7.594-0.054,14.921,0.106,22.264-0.059c4.874-0.82,3.935-5.666,3.964-9.384
				c-0.071-3.974-1.652-5.688-5.617-5.688C385.698,253.325,378.244,253.325,371.824,253.325z M394.974,293.207
				c5.206,0,4.417-5.943,4.417-10.067c0-4.073-1.166-5.62-4.466-5.62c-7.626,0-15.251,0-22.905,0c0,5.398,0,10.49,0,15.747
				C379.798,293.212,387.383,293.373,394.974,293.207z"/>
			<path fill="#F1D051" d="M339.567,280.39c-4.92,0-9.84,0-14.986,0c0-3.117,0-6.031,0-8.945c0.136-0.111,0.271-0.221,0.407-0.332
				c7.946,0,15.891,0,23.939,0c0,7.449,0.296,14.932,0.296,22.699c0,5.616-4.14,8.745-9.871,8.542
				c-10.106-0.003-20.212-0.026-30.318-0.04c-5.385-0.706-8.059-4.31-8.004-9.562c-0.001-13.282,0.122-26.565-0.08-39.844
				c-0.056-3.688,3.829-8.597,8.355-8.563c10.403,0.076,20.808-0.044,31.211,0.045c9.827,0.47,8.456,9.955,8.362,16.717
				c-2.946,0-5.721,0-8.898,0c0-2.403,0-4.873,0-7.342c-10.05,0-21.578-0.186-29.322-0.186c0,12.849-0.358,26.703-0.358,39.026
				l-0.101,0.056c0.066,0.143,0.131,0.286,0.197,0.429c9.69-0.144,19.453-0.005,29.168-0.052c0.294,0,0.379-0.071,0.379-0.35
				c0-3.982,0-7.964,0-11.946C339.946,280.481,339.919,280.39,339.567,280.39z"/>
			<path fill="#F1D051" d="M414.786,244.403c2.887,0.408,8.782-1.114,10.254,1.159c5.737,14.973,10.847,29.429,16.899,44.409
				c5.958-14.968,10.648-29.639,16.879-44.379c1.512-2.336,7.298-0.767,10.258-1.189c-7.076,18.696-13.891,35.929-20.966,54.585
				c-1.245,4.012-3.672,3.455-6.432,3.455c-3.812,0-4.725-0.043-6.415-4.485C428.415,279.955,421.486,262.572,414.786,244.403z"/>
			<path fill="#F1D051" d="M363.068,244.447c-0.109,0.142-0.217,0.284-0.326,0.426C362.851,244.731,362.96,244.589,363.068,244.447z
				"/>
			<path fill="#F1D051" d="M339.544,253.578c0.146,0.062,0.292,0.124,0.439,0.186C339.836,253.702,339.69,253.64,339.544,253.578z"
				/>
			<path fill="#F1D051" d="M324.988,271.113c-0.136,0.111-0.271,0.221-0.407,0.332C324.717,271.334,324.853,271.224,324.988,271.113
				z"/>
			<path fill="#F1D051" d="M348.914,295.4c0.043-0.169,0.086-0.338,0.129-0.507C349,295.062,348.957,295.231,348.914,295.4z"/>
			<path fill="#F1D051" d="M395.366,302.313c0.163,0.019,0.327,0.039,0.49,0.058C395.692,302.351,395.529,302.332,395.366,302.313z"
				/>
			<path fill="#F1D051" d="M308.544,302.373c0.164-0.02,0.327-0.039,0.491-0.059C308.872,302.334,308.708,302.353,308.544,302.373z"
				/>
			<path fill="#F1D051" d="M393.594,268.456c0.165-0.02,0.33-0.039,0.494-0.059C393.923,268.417,393.758,268.436,393.594,268.456z"
				/>
			<path fill="#F1D051" d="M394.48,293.266c0.165-0.02,0.33-0.039,0.495-0.059C394.809,293.227,394.644,293.247,394.48,293.266z"/>
			<path fill="#F1D051" d="M310.202,292.66c0.066,0.143,0.132,0.286,0.197,0.429C310.333,292.945,310.268,292.803,310.202,292.66z"
				/>
		</g>
	</g>
</g>
</svg>
