<?xml version="1.0" encoding="utf-8"?>
<!-- Generator: Adobe Illustrator 26.0.3, SVG Export Plug-In . SVG Version: 6.00 Build 0)  -->
<!DOCTYPE svg PUBLIC "-//W3C//DTD SVG 1.1//EN" "http://www.w3.org/Graphics/SVG/1.1/DTD/svg11.dtd" [
	<!ENTITY ns_extend "http://ns.adobe.com/Extensibility/1.0/">
	<!ENTITY ns_ai "http://ns.adobe.com/AdobeIllustrator/10.0/">
	<!ENTITY ns_graphs "http://ns.adobe.com/Graphs/1.0/">
	<!ENTITY ns_vars "http://ns.adobe.com/Variables/1.0/">
	<!ENTITY ns_imrep "http://ns.adobe.com/ImageReplacement/1.0/">
	<!ENTITY ns_sfw "http://ns.adobe.com/SaveForWeb/1.0/">
	<!ENTITY ns_custom "http://ns.adobe.com/GenericCustomNamespace/1.0/">
	<!ENTITY ns_adobe_xpath "http://ns.adobe.com/XPath/1.0/">
]>
<svg version="1.1" id="Layer_1" xmlns:x="&ns_extend;" xmlns:i="&ns_ai;" xmlns:graph="&ns_graphs;"
	 xmlns="http://www.w3.org/2000/svg" xmlns:xlink="http://www.w3.org/1999/xlink" x="0px" y="0px" width="512px" height="512px"
	 viewBox="0 0 512 512" enable-background="new 0 0 512 512" xml:space="preserve">
<metadata>
	<sfw  xmlns="&ns_sfw;">
		<slices></slices>
		<sliceSourceBounds  bottomLeftOrigin="true" height="1212.363" width="2589.979" x="8.803" y="-1398.495"></sliceSourceBounds>
	</sfw>
</metadata>
<g>
	<path d="M288.328,136.592c3.371,0,4.409,2.644,4.417,4.453c0.016,3.718,0.108,7.439-0.013,11.152
		c-0.185,5.704-3.244,9.515-8.263,11.908c-4.126,1.967-8.528,2.215-13.002,2.113c-2.862-0.065-5.75-0.418-8.554,0.58
		c-3.393,1.207-4.338,2.504-4.341,6.111c-0.003,3.278,0.063,6.558-0.038,9.833c-0.098,3.18-2.996,5.128-5.857,4.024
		c-1.63-0.629-2.69-1.856-2.723-3.604c-0.078-4.235-0.242-8.489,0.058-12.705c0.418-5.855,4.011-9.421,9.263-11.56
		c3.978-1.62,8.126-1.475,12.287-1.347c3.043,0.094,6.065,0.07,8.954-1.166c2.544-1.089,3.567-2.484,3.572-5.206
		c0.006-2.958-0.009-5.916,0.013-8.874C284.128,138.604,285.682,136.592,288.328,136.592z"/>
	<path d="M102.468,271.232c0.242-1.249,0.386-2.527,0.742-3.742c3.5-11.923,16.962-14.859,24.635-9.532
		c1.267,0.88,2.393,1.994,3.464,3.114c1.19,1.244,1.131,2.966,0.021,4.106c-1.108,1.137-2.826,1.234-4.126,0.215
		c-0.88-0.69-1.711-1.445-2.617-2.097c-3.163-2.279-6.56-2.419-9.971-0.74c-3.618,1.781-5.656,4.815-5.878,8.838
		c-0.354,6.4,4.273,11.268,10.453,11.15c2.806-0.053,4.785-1.58,6.293-3.8c0.17-0.25,0.123-0.748,0.009-1.072
		c-0.804-2.279,0.505-4.261,2.909-4.336c0.639-0.02,1.279-0.007,1.919,0.003c1.84,0.027,2.625,0.687,2.66,2.488
		c0.064,3.357,0.051,6.717,0.024,10.075c-0.013,1.555-0.869,2.444-2.296,2.545c-1.462,0.103-2.292-0.609-2.591-2.223
		c-0.27-1.459-0.735-1.699-1.743-0.805c-4.681,4.152-9.807,3.851-14.943,1.229c-5.252-2.682-8.083-7.193-8.769-13.048
		c-0.037-0.313-0.129-0.619-0.195-0.928C102.468,272.192,102.468,271.712,102.468,271.232z"/>
	<path d="M261.931,216.146c0-2.8-0.032-5.6,0.008-8.4c0.051-3.533,1.388-4.822,4.918-4.825c1.24-0.001,2.485-0.054,3.718,0.044
		c3.717,0.297,5.99,4.227,4.359,7.585c-0.39,0.802-0.347,1.331,0.144,2.052c4.441,6.521,12.186,8.316,19.502,4.484
		c8.542-4.475,11.301-13.971,8.978-21.543c-2.785-9.077-10.972-14.349-20.037-13.102c-3.368,0.463-6.123,2.205-8.677,4.325
		c-0.923,0.766-1.836,1.544-2.772,2.292c-2.222,1.776-5.154,1.677-7.081-0.221c-2.001-1.971-2.217-4.779-0.294-7.033
		c4.826-5.658,10.747-9.374,18.36-9.928c9.943-0.723,18.363,2.442,24.948,9.995c14.103,16.177,5.57,42.198-15.316,46.82
		c-7.31,1.618-13.884,0.369-19.429-4.979c-0.383-0.369-1.24-0.649-1.662-0.469c-1.269,0.345-1.142,2.055-1.183,2.332
		c-0.37,2.497-1.962,3.797-4.479,3.663c-2.317-0.123-3.939-1.72-3.989-4.094C261.884,222.146,261.931,219.145,261.931,216.146z"/>
	<path d="M247.879,224.917c-0.031,2.757-1.722,4.361-4.48,4.319c-2.16-0.033-3.573-1.273-3.956-3.428
		c-0.173-0.973,0.122-2.195-1.185-2.639c-1.293-0.439-1.852,0.698-2.586,1.343c-5.502,4.834-11.874,5.729-18.758,4.112
		c-11.867-2.788-20.441-12.592-21.87-24.903c-1.372-11.825,4.958-23.613,15.742-28.847c8.763-4.253,17.645-4.409,26.378,0.168
		c3.104,1.627,5.649,4.045,7.912,6.706c1.897,2.23,1.791,5.001-0.115,6.942c-1.986,2.023-4.867,2.158-7.163,0.415
		c-2.346-1.782-4.567-3.838-7.153-5.175c-7.075-3.656-15.882-1.321-21.137,5.286c-7.726,9.714-3.891,24.188,7.607,28.711
		c6.762,2.66,13.455,0.654,17.567-5.239c0.497-0.713,0.621-1.289,0.208-2.156c-1.688-3.537,0.791-7.47,4.727-7.594
		c1.278-0.04,2.559-0.037,3.838-0.009c2.953,0.065,4.332,1.379,4.403,4.353C247.932,210.281,247.911,222.038,247.879,224.917z"/>
	<path d="M326.857,265.556c0,0.428-0.001,0.855,0,1.283c0.014,6.076,0.028,12.152,0.041,18.227c0.005,2.222-0.855,3.47-2.567,3.735
		c-2.045,0.316-3.554-0.997-3.567-3.164c-0.022-3.638-0.029-21.067-0.066-26.143c0-3.705,0-3.591,1.052-4.002
		c2.207-0.512,3.909,0.084,5.37,2.004c2.901,3.811,6.025,7.451,9.06,11.16c0.223,0.273,0.472,0.525,0.764,0.848
		c0.236-0.214,0.461-0.368,0.624-0.573c3.261-4.091,6.544-8.165,9.754-12.296c1.012-1.302,2.273-1.326,3.652-1.074
		c1.335,0.244,1.901,1.235,2.112,2.452c0.122,0.705,0.165,1.431,0.166,2.148c0.011,8.435,0.004,16.87,0.01,25.304
		c0.001,1.238-0.353,2.3-1.475,2.945c-1.094,0.628-2.218,0.605-3.299-0.061c-1.066-0.657-1.386-1.679-1.385-2.87
		c0.007-6.156,0.002-12.312,0.001-18.469c0-0.435,0-0.87,0-1.593c-0.387,0.369-0.617,0.539-0.787,0.757
		c-2.141,2.736-4.273,5.479-6.408,8.219c-0.196,0.252-0.392,0.504-0.602,0.744c-1.692,1.927-2.958,1.925-4.586-0.098
		c-2.226-2.768-4.399-5.578-6.598-8.368c-0.319-0.405-0.658-0.794-0.987-1.19C327.043,265.505,326.95,265.531,326.857,265.556z"/>
	<path d="M136.968,272.12c-0.007-9.18,7.444-16.638,16.617-16.631c9.235,0.007,16.771,7.407,16.778,16.474
		c0.007,9.43-7.416,16.913-16.752,16.887C144.351,288.823,136.975,281.41,136.968,272.12z M153.592,282.789
		c5.867,0.007,10.572-4.7,10.597-10.6c0.025-5.861-4.71-10.606-10.58-10.603c-5.742,0.003-10.485,4.796-10.488,10.599
		C143.119,278.004,147.837,282.782,153.592,282.789z"/>
	<path d="M190.272,288.849c-9.216,0.044-16.723-7.404-16.765-16.634c-0.041-9.107,7.397-16.676,16.428-16.717
		c9.379-0.043,16.949,7.256,16.986,16.375C206.96,281.335,199.635,288.804,190.272,288.849z M190.259,261.588
		c-5.819-0.019-10.533,4.722-10.552,10.61c-0.018,5.747,4.67,10.558,10.322,10.59c5.986,0.034,10.727-4.674,10.746-10.67
		C200.794,266.37,196.037,261.606,190.259,261.588z"/>
	<path d="M211.954,272.202c0-4.159,0.01-8.318-0.01-12.476c-0.004-0.753-0.096-1.512-0.212-2.258
		c-0.208-1.339,0.146-1.912,1.515-1.991c1.554-0.09,3.12-0.101,4.676-0.033c3.105,0.135,6.306-0.082,9.291,0.61
		c7.935,1.839,13.071,9.173,12.557,17.297c-0.494,7.798-6.608,14.428-14.528,15.319c-3.515,0.396-7.108,0.175-10.663,0.112
		c-1.606-0.028-2.615-1.355-2.621-3.144C211.944,281.159,211.954,276.68,211.954,272.202z M218.22,261.416
		c0,7.091,0,14.183,0,21.343c1.878,0,3.674,0.096,5.458-0.017c8.032-0.508,12.625-9.485,8.37-16.317
		C228.863,261.313,224.153,260.816,218.22,261.416z"/>
	<path d="M365.73,275.029c0,2.572,0,4.996,0,7.564c0.448,0.031,0.866,0.083,1.284,0.084c4.4,0.01,8.8-0.008,13.2,0.023
		c1.893,0.013,3.066,0.838,3.392,2.25c0.485,2.106-0.832,3.817-3.067,3.892c-1.678,0.056-3.36,0.014-5.04,0.013
		c-4.04,0-8.08,0.012-12.12-0.007c-2.724-0.013-3.864-1.156-3.867-3.871c-0.009-8.4-0.011-16.8-0.011-25.2
		c0-2.7-0.328-4.339,1.691-4.339c3.8-0.026,7.6-0.009,11.4-0.009c2.52,0,5.04-0.011,7.56,0.004c2.211,0.013,3.414,1.077,3.406,2.97
		c-0.008,1.912-1.161,2.94-3.416,2.952c-4.28,0.023-8.56,0.008-12.84,0.009c-0.475,0-0.951,0-1.524,0c0,2.644,0,5.21,0,7.934
		c0.465,0,0.893,0,1.32,0c3.28,0.001,6.56-0.01,9.84,0.007c1.943,0.01,3.203,1.134,3.209,2.807c0.006,1.757-1.241,2.905-3.239,2.916
		c-3.28,0.018-6.56,0.002-9.84,0.001C366.639,275.029,366.211,275.029,365.73,275.029z"/>
	<path d="M285.454,280.888c0,1.6,0.012,3.2-0.003,4.799c-0.017,1.77-0.778,2.662-2.32,2.763c-1.467,0.096-2.322-0.684-2.59-2.361
		c-0.193-1.209-0.856-1.561-1.655-0.75c-5.324,5.4-13.954,3.157-18.484-1.045c-9.366-8.688-6.04-24.004,6.064-28.054
		c6.244-2.09,12.781-0.327,17.123,4.616c1.268,1.443,1.35,3.129,0.21,4.312c-1.143,1.186-2.847,1.226-4.316,0.086
		c-0.852-0.661-1.649-1.397-2.535-2.006c-5.518-3.797-12.997-1.127-15.268,5.429c-2.417,6.979,2.836,14.171,10.178,13.859
		c2.681-0.114,4.61-1.645,6.077-3.78c0.207-0.357,0.197-0.652,0.197-1.1c0-4.299,0.36-4.292,2.858-4.331
		c0.56-0.009,1.12-0.002,1.68,0.005c2.014,0.028,2.727,0.715,2.772,2.759c0.035,1.599,0.007,3.199,0.007,4.799
		C285.45,280.888,285.452,280.888,285.454,280.888z"/>
	<path d="M316.43,285.596c0.008,1.589-1.043,2.832-2.443,3.163c-1.429,0.337-2.923-0.386-3.543-1.8
		c-0.577-1.316-1.103-2.656-1.59-4.008c-0.225-0.624-0.554-0.862-1.226-0.857c-3.439,0.029-6.878,0.031-10.317-0.002
		c-0.683-0.007-0.998,0.264-1.226,0.859c-0.47,1.231-0.978,2.449-1.498,3.661c-0.858,1.998-2.43,2.776-4.188,2.1
		c-1.704-0.655-2.32-2.337-1.504-4.413c2.25-5.726,4.54-11.436,6.817-17.152c1.079-2.71,2.167-5.416,3.241-8.127
		c0.161-0.407,0.318-0.827,0.389-1.255c0.165-0.99,0.402-1.879,1.566-2.15c1.316-0.306,2.594-0.345,3.525,0.796
		c0.546,0.669,1.004,1.452,1.329,2.254c3.467,8.554,6.902,17.122,10.333,25.691C316.286,284.831,316.366,285.351,316.43,285.596z
		 M297.839,277.025c3.18,0,6.137,0,9.26,0c-1.535-3.919-3.009-7.68-4.622-11.797C300.856,269.351,299.376,273.115,297.839,277.025z"
		/>
	<path d="M396.1,288.852c-2.408-0.044-5.64-0.853-8.137-3.514c-1.023-1.09-1.813-2.349-1.797-3.928
		c0.02-1.969,1.743-3.187,3.551-2.414c0.774,0.33,1.492,0.929,2.068,1.559c2.146,2.348,5.778,3.221,8.668,1.892
		c0.734-0.338,1.433-0.896,1.955-1.516c0.859-1.018,0.821-2.548-0.236-3.341c-1.418-1.064-2.987-1.963-4.586-2.738
		c-2.69-1.304-5.513-2.344-7.799-4.369c-4.172-3.695-3.238-9.967,0.919-12.859c4.717-3.281,12.091-2.667,16.19,1.377
		c0.339,0.334,0.648,0.711,0.911,1.107c0.921,1.388,0.908,2.96-0.003,3.868c-0.9,0.897-3.095,1.022-4.252,0.165
		c-0.831-0.616-1.565-1.362-2.373-2.012c-1.878-1.509-3.951-1.62-6.085-0.677c-2.408,1.064-2.827,3.679-0.639,5.093
		c2.262,1.461,4.831,2.438,7.212,3.727c1.712,0.927,3.481,1.841,4.971,3.069c3.677,3.031,3.842,8.187,0.544,11.66
		C404.769,287.542,401.318,288.875,396.1,288.852z"/>
	<path fill="#ED1F81" d="M225.35,197.697c1.53,0,2.881-0.02,4.232,0.006c1.314,0.025,2.112,0.782,2.102,1.933
		c-0.01,1.172-0.809,1.965-2.081,1.992c-1.354,0.029-2.71,0.007-4.247,0.007c0,1.395,0.006,2.735-0.002,4.076
		c-0.009,1.515-0.693,2.339-1.939,2.356c-1.236,0.018-1.988-0.797-2.032-2.296c-0.039-1.316-0.008-2.634-0.008-4.136
		c-1.342,0-2.643,0.009-3.943-0.002c-1.502-0.013-2.313-0.706-2.328-1.963c-0.015-1.271,0.757-1.943,2.295-1.962
		c1.272-0.016,2.545-0.003,3.981-0.003c0-1.451-0.038-2.791,0.011-4.129c0.047-1.261,0.772-2.015,1.868-2.073
		c1.212-0.064,2.053,0.689,2.083,1.937C225.375,194.792,225.35,196.147,225.35,197.697z"/>
	<path d="M233.679,318.348c-1.725,0-3.353,0.003-4.982-0.003c-0.359-0.001-0.746,0.042-1.066-0.079
		c-0.241-0.092-0.544-0.24-0.544-0.631c0-0.383,0.377-0.561,0.593-0.566c2.317-0.045,4.635-0.058,6.952-0.002
		c0.513,0,0.656,0.51,0.662,0.791c0.057,2.477,0.065,5.849,0.011,8.325c-0.007,0.301-1.351,0.265-1.384-0.074
		c-0.092-0.939-0.032-2.786-0.032-3.85c-1.048,0.905-1.866,1.836-2.876,2.448c-6.335,3.833-14.212,0.502-16.004-6.857
		c-1.093-4.488,0.133-8.461,3.779-11.391c3.608-2.9,7.704-3.389,11.927-1.474c1.232,0.559,2.258,1.613,3.297,2.532
		c0.242,0.214,0.685,0.775,0.218,1.218c-0.299,0.284-0.964-0.012-1.204-0.256c-2.098-2.135-4.556-3.27-7.601-3.175
		c-5.573,0.173-9.739,5.131-9.215,11.056c0.48,5.438,5.463,9.278,10.905,8.403C230.32,324.246,233.293,321.438,233.679,318.348z"/>
	<path d="M278.357,314.933c-0.002-3.239,0.027-6.478-0.019-9.716c-0.014-0.979,0.284-1.35,1.295-1.311
		c1.717,0.067,3.438,0,5.157,0.016c6.264,0.057,11.219,5.131,11.14,11.396c-0.077,6.154-5.058,10.963-11.307,10.922
		c-1.599-0.011-3.201-0.052-4.798,0.014c-1.115,0.046-1.487-0.426-1.477-1.483C278.378,321.491,278.359,318.212,278.357,314.933z
		 M279.863,324.824c2.078,0,4.039,0.17,5.962-0.031c6.697-0.698,10.63-7.952,7.649-13.957c-2.29-4.613-4.936-5.342-13.611-5.342
		C279.863,311.902,279.863,318.321,279.863,324.824z"/>
	<path d="M237.49,305.285c0-0.419-0.006-1.302,0.707-1.302c0.866,0,0.76,0.609,0.76,1.326c-0.003,4.158-0.033,8.317,0.007,12.475
		c0.028,2.946,1.398,5.151,4.056,6.41c2.703,1.28,5.324,0.917,7.641-0.951c1.778-1.432,2.611-3.378,2.606-5.68
		c-0.01-4.118-0.009-8.237,0.012-12.355c0.002-0.477-0.045-1.234,0.686-1.234c0.831,0,0.763,0.614,0.763,1.191
		c-0.003,4.358,0.084,8.719-0.046,13.073c-0.139,4.659-4.085,8.116-8.895,8.007c-4.594-0.105-8.273-3.808-8.292-8.386
		C237.474,313.304,237.49,309.935,237.49,305.285z"/>
	<path d="M260.704,314.859c0-3.235-0.006-6.471,0.006-9.706c0.002-0.505-0.122-1.131,0.677-1.131c0.819,0,0.739,0.767,0.742,1.18
		c0.048,6.111,0.066,12.362,0.006,18.473c-0.012,1.191,0.368,1.463,1.493,1.443c3.714-0.067,7.429-0.026,11.144-0.023
		c0.358,0,0.74-0.04,1.067,0.07c0.203,0.068,0.446,0.385,0.444,0.588c-0.001,0.193-0.264,0.462-0.474,0.554
		c-0.239,0.105-0.548,0.066-0.827,0.066c-4.351,0-8.531,0.025-12.822,0.025c-1.113,0.014-1.488-0.388-1.477-1.454
		c0.033-3.315,0.012-6.77,0.012-10.085C260.698,314.859,260.701,314.859,260.704,314.859z"/>
	<path fill="#ED1F80" d="M292.778,196.117c1.997,0.011,3.564,1.592,3.535,3.566c-0.029,1.979-1.635,3.535-3.627,3.513
		c-1.906-0.021-3.462-1.608-3.471-3.539C289.207,197.666,290.778,196.105,292.778,196.117z"/>
	<path fill="#FEEA00" d="M282.906,193.424c0.014-2.005,1.56-3.529,3.576-3.525c1.909,0.004,3.483,1.582,3.498,3.508
		c0.015,1.975-1.571,3.584-3.541,3.591C284.457,197.005,282.892,195.422,282.906,193.424z"/>
	<path fill="#5CC9E0" d="M280.099,196.112c2.02,0.007,3.558,1.547,3.549,3.553c-0.009,1.977-1.61,3.539-3.603,3.516
		c-1.913-0.022-3.488-1.603-3.495-3.509C276.542,197.687,278.119,196.105,280.099,196.112z"/>
	<path fill="#89C540" d="M286.417,209.606c-2.003-0.007-3.49-1.479-3.507-3.474c-0.018-2.026,1.522-3.58,3.543-3.575
		c1.958,0.005,3.527,1.554,3.53,3.486C289.985,208.079,288.45,209.613,286.417,209.606z"/>
	<path fill="#ED1F80" d="M117.819,270.288c0-0.89-0.133-1.674,0.049-2.376c0.114-0.439,0.651-0.972,1.089-1.075
		c0.673-0.158,1.091,0.345,1.092,1.078c0.002,0.749,0,1.497,0,2.37c0.895,0,1.644-0.015,2.391,0.004
		c0.745,0.019,1.224,0.376,1.228,1.164c0.003,0.807-0.518,1.097-1.244,1.15c-0.743,0.054-1.764-0.146-2.15,0.257
		c-0.398,0.415-0.199,1.423-0.22,2.172c-0.021,0.77-0.366,1.244-1.149,1.219c-0.776-0.024-1.102-0.516-1.095-1.281
		c0.006-0.715-0.035-1.431-0.06-2.146c-0.001-0.032-0.046-0.063-0.181-0.235c-0.638,0-1.388,0.015-2.138-0.004
		c-0.742-0.019-1.246-0.358-1.22-1.159c0.025-0.778,0.515-1.127,1.264-1.136C116.193,270.282,116.911,270.288,117.819,270.288z"/>
	<path d="M258.146,303.975c0.704,0,0.805,0.188,0.805,1.118c0.002,6.67,0.008,14.335-0.035,21.004
		c-0.002,0.361-1.382,0.411-1.384,0.076c-0.041-6.949-0.03-14.174-0.026-21.123C257.505,304.538,257.48,303.975,258.146,303.975z"/>
	<path fill="#FEEA00" d="M273.291,268.115c-0.001,1.047-0.863,1.917-1.901,1.92c-1.057,0.003-1.905-0.839-1.91-1.897
		c-0.005-1.06,0.838-1.912,1.892-1.911C272.435,266.226,273.292,267.07,273.291,268.115z"/>
	<path fill="#ED1F80" d="M274.819,269.555c1.052,0.022,1.871,0.862,1.865,1.913c-0.007,1.083-0.922,1.94-2.012,1.884
		c-1.038-0.054-1.84-0.934-1.8-1.975C272.914,270.318,273.753,269.533,274.819,269.555z"/>
	<path fill="#89C540" d="M271.329,272.987c1.014-0.028,1.926,0.825,1.962,1.836c0.038,1.072-0.732,1.913-1.798,1.964
		c-1.129,0.054-2.004-0.756-2.009-1.86C269.479,273.885,270.306,273.016,271.329,272.987z"/>
	<path fill="#5CC9E0" d="M268.021,273.356c-1.029,0.015-1.914-0.838-1.938-1.867c-0.024-1.044,0.812-1.907,1.874-1.934
		c1.09-0.028,1.893,0.757,1.903,1.861C269.869,272.519,269.091,273.34,268.021,273.356z"/>
</g>
</svg>
