<?xml version="1.0" encoding="utf-8"?>
<!-- Generator: Adobe Illustrator 26.0.3, SVG Export Plug-In . SVG Version: 6.00 Build 0)  -->
<!DOCTYPE svg PUBLIC "-//W3C//DTD SVG 1.1//EN" "http://www.w3.org/Graphics/SVG/1.1/DTD/svg11.dtd" [
	<!ENTITY ns_extend "http://ns.adobe.com/Extensibility/1.0/">
	<!ENTITY ns_ai "http://ns.adobe.com/AdobeIllustrator/10.0/">
	<!ENTITY ns_graphs "http://ns.adobe.com/Graphs/1.0/">
	<!ENTITY ns_vars "http://ns.adobe.com/Variables/1.0/">
	<!ENTITY ns_imrep "http://ns.adobe.com/ImageReplacement/1.0/">
	<!ENTITY ns_sfw "http://ns.adobe.com/SaveForWeb/1.0/">
	<!ENTITY ns_custom "http://ns.adobe.com/GenericCustomNamespace/1.0/">
	<!ENTITY ns_adobe_xpath "http://ns.adobe.com/XPath/1.0/">
]>
<svg version="1.1" id="Layer_1" xmlns:x="&ns_extend;" xmlns:i="&ns_ai;" xmlns:graph="&ns_graphs;"
	 xmlns="http://www.w3.org/2000/svg" xmlns:xlink="http://www.w3.org/1999/xlink" x="0px" y="0px" width="512px" height="512px"
	 viewBox="0 0 512 512" enable-background="new 0 0 512 512" xml:space="preserve">
<metadata>
	<sfw  xmlns="&ns_sfw;">
		<slices></slices>
		<sliceSourceBounds  bottomLeftOrigin="true" height="1212.363" width="2589.979" x="8.803" y="-1398.495"></sliceSourceBounds>
	</sfw>
</metadata>
<g>
	<g>
		<g id="Layer_1-2_00000053546488959491080180000005611823943313502107_">
			<path fill="#010101" d="M99.72,300.573c0.5,0.8,1,1.9,1.6,3.1c0.6,1.2,1.2,2.6,1.9,4c0.7,1.4,1.3,2.9,1.9,4.4l1.8,4.2
				c0.6-1.3,1.1-2.7,1.8-4.2s1.3-3,1.9-4.4s1.3-2.8,1.9-4c0.6-1.2,1.1-2.3,1.6-3.1h5.4c0.3,1.7,0.5,3.7,0.7,5.9
				c0.2,2.2,0.4,4.4,0.6,6.8c0.2,2.4,0.3,4.7,0.5,7.1c0.2,2.4,0.3,4.6,0.4,6.6h-5.8c-0.1-2.6-0.2-5.3-0.3-8.4
				c-0.1-3-0.3-6.1-0.6-9.1c-0.5,1.1-1,2.2-1.5,3.5l-1.7,3.9c-0.5,1.3-1.1,2.5-1.6,3.7l-1.3,3h-4.1l-1.3-3c-0.5-1.2-1-2.4-1.6-3.7
				c-0.6-1.3-1.1-2.6-1.7-3.9s-1.1-2.5-1.5-3.5c-0.2,3.1-0.4,6.1-0.6,9.1c-0.1,3-0.2,5.8-0.3,8.4h-5.9c0.1-2.1,0.2-4.3,0.4-6.6
				c0.2-2.3,0.3-4.7,0.5-7.1c0.2-2.4,0.4-4.6,0.6-6.8c0.2-2.2,0.5-4.1,0.7-5.9H99.72z"/>
			<path fill="#010101" d="M144.42,326.973c-0.3-0.9-0.6-1.9-0.9-2.8c-0.3-0.9-0.7-1.9-1-2.9h-10.3c-0.3,1-0.7,1.9-1,2.9
				s-0.6,1.9-0.9,2.8h-6.2c1-2.8,1.9-5.5,2.8-7.9c0.9-2.4,1.8-4.7,2.6-6.8c0.8-2.1,1.7-4.1,2.5-6.1c0.8-2,1.7-3.8,2.6-5.6h5.6
				c0.9,1.8,1.7,3.7,2.5,5.6c0.8,1.9,1.7,3.9,2.5,6.1c0.8,2.1,1.7,4.4,2.6,6.8c0.9,2.4,1.8,5,2.8,7.9H144.42z M137.32,306.573
				c-0.1,0.4-0.3,0.9-0.6,1.6l-0.9,2.3c-0.3,0.9-0.7,1.8-1.1,2.9c-0.4,1.1-0.8,2.1-1.2,3.3h7.5c-0.4-1.1-0.8-2.2-1.2-3.3
				c-0.4-1.1-0.7-2-1.1-2.9l-0.8-2.3C137.72,307.473,137.42,306.973,137.32,306.573z"/>
			<path fill="#010101" d="M161.92,300.273c4,0,7,0.7,9.1,2.1c2.1,1.4,3.2,3.6,3.2,6.6c0.1,1.6-0.4,3.2-1.3,4.5
				c-1,1.2-2.2,2.2-3.7,2.7c0.5,0.6,1.1,1.4,1.7,2.3c0.6,0.9,1.2,1.7,1.7,2.7s1.1,1.9,1.7,2.9c0.6,1,1,2,1.5,3h-6.6
				c-0.5-0.9-1-1.7-1.5-2.6c-0.5-0.9-1-1.8-1.5-2.6c-0.5-0.8-1-1.6-1.6-2.4c-0.5-0.7-1-1.4-1.5-2h-2.9v9.6h-5.9v-26
				c1.3-0.3,2.7-0.4,4-0.5C159.52,300.373,160.82,300.273,161.92,300.273z M162.22,305.373c-0.4,0-0.8,0-1.2,0l-1,0.1v7.1h1.7
				c1.6,0.1,3.3-0.2,4.8-0.8c1-0.6,1.6-1.7,1.4-2.9c0.1-1.1-0.5-2.2-1.5-2.7C165.22,305.573,163.72,305.273,162.22,305.373
				L162.22,305.373z"/>
			<path fill="#010101" d="M195.02,326.973c-0.5-0.9-1.2-1.8-1.9-2.8c-0.7-1-1.5-2-2.3-3s-1.7-2-2.6-2.9c-0.9-0.9-1.8-1.7-2.7-2.4
				v11.1h-5.9v-26.3h5.9v9.9c1.5-1.6,3.1-3.3,4.6-5c1.6-1.8,3-3.4,4.4-4.9h7c-1.8,2.1-3.6,4.2-5.4,6.1c-1.8,1.9-3.7,4-5.7,5.9
				c2.2,1.9,4.3,4,6.1,6.3c2,2.5,3.9,5.2,5.6,8H195.02z"/>
			<path fill="#010101" d="M205.52,326.973v-26.3h17.8v5h-11.9v5.2h10.5v4.9h-10.5v6.3h12.7v5L205.52,326.973z"/>
			<path fill="#010101" d="M248.02,300.573v5.1h-7.9v21.3h-5.9v-21.3h-7.9v-5.1H248.02z"/>
			<path fill="#010101" d="M278.62,326.973c-0.3-0.9-0.6-1.9-0.9-2.8l-1-2.9h-10.3c-0.3,1-0.7,1.9-1,2.9c-0.3,1-0.6,1.9-0.9,2.8
				h-6.2c1-2.8,1.9-5.5,2.8-7.9c0.9-2.4,1.8-4.7,2.6-6.8c0.9-2.1,1.7-4.1,2.5-6.1c0.8-2,1.7-3.8,2.6-5.6h5.6
				c0.9,1.8,1.7,3.7,2.6,5.6c0.9,1.9,1.7,3.9,2.5,6.1c0.8,2.2,1.7,4.4,2.6,6.8c0.9,2.4,1.8,5,2.8,7.9H278.62z M271.52,306.573
				c-0.1,0.4-0.3,0.9-0.6,1.6l-0.9,2.3c-0.3,0.9-0.7,1.8-1.1,2.9c-0.4,1.1-0.8,2.1-1.2,3.3h7.5c-0.4-1.1-0.8-2.2-1.2-3.3
				s-0.7-2-1.1-2.9c-0.4-0.9-0.6-1.6-0.9-2.3C271.72,307.473,271.72,306.973,271.52,306.573z"/>
			<path fill="#010101" d="M299.42,327.473c-4.3,0-7.6-1.2-9.8-3.6c-2.2-2.4-3.4-5.8-3.4-10.1c0-2,0.3-4,1-5.8
				c0.6-1.6,1.6-3.1,2.8-4.3c1.2-1.2,2.7-2.1,4.3-2.7c1.7-0.6,3.5-0.9,5.4-0.9c1,0,2,0.1,3,0.2c0.8,0.1,1.6,0.3,2.4,0.6
				c0.6,0.2,1.2,0.4,1.7,0.7c0.5,0.2,0.8,0.4,1,0.5l-1.7,4.8c-0.9-0.5-1.8-0.8-2.8-1.1c-1.2-0.3-2.4-0.5-3.7-0.5
				c-0.9,0-1.8,0.2-2.7,0.5c-0.9,0.3-1.7,0.8-2.3,1.5c-0.7,0.7-1.3,1.6-1.6,2.6c-0.4,1.2-0.6,2.6-0.6,3.9c0,1.1,0.1,2.3,0.4,3.4
				c0.2,1,0.7,1.9,1.3,2.7c0.6,0.8,1.4,1.4,2.3,1.8c1.1,0.5,2.3,0.7,3.5,0.7c0.8,0,1.6,0,2.3-0.1c0.7-0.1,1.3-0.2,1.8-0.4
				c0.5-0.1,1-0.3,1.4-0.5l1.1-0.5l1.6,4.8c-1.1,0.6-2.3,1.1-3.5,1.4C302.92,327.273,301.22,327.473,299.42,327.473z"/>
			<path fill="#010101" d="M319.82,300.273c4,0,7,0.7,9.1,2.1c2.1,1.4,3.1,3.6,3.1,6.6c0.1,1.6-0.4,3.2-1.3,4.5
				c-0.9,1.2-2.2,2.2-3.7,2.7c0.5,0.6,1.1,1.4,1.7,2.3c0.6,0.9,1.2,1.7,1.7,2.7s1.1,1.9,1.7,2.9c0.6,1,1,2,1.5,3h-6.7
				c-0.5-0.9-1-1.7-1.5-2.6c-0.5-0.9-1-1.8-1.5-2.6c-0.5-0.8-1-1.6-1.6-2.4s-1-1.4-1.5-2h-2.9v9.6h-5.9v-26c1.3-0.3,2.7-0.4,4-0.5
				C317.42,300.373,318.72,300.273,319.82,300.273z M320.12,305.373c-0.4,0-0.8,0-1.2,0l-1,0.1v7.1h1.7c1.6,0.1,3.3-0.2,4.8-0.8
				c1-0.6,1.5-1.7,1.4-2.9c0.1-1.1-0.5-2.2-1.4-2.7C323.12,305.573,321.62,305.273,320.12,305.373z"/>
			<path fill="#010101" d="M361.82,313.773c0,2-0.3,4-1,5.9c-0.6,1.6-1.5,3.1-2.8,4.3c-1.2,1.2-2.6,2.1-4.2,2.6
				c-1.7,0.6-3.4,0.9-5.2,0.9c-1.7,0-3.5-0.3-5.1-0.9c-1.6-0.6-3-1.5-4.2-2.6c-1.2-1.2-2.2-2.7-2.8-4.3c-0.7-1.9-1-3.9-1-5.9
				s0.3-4.1,1.1-5.9c0.6-1.6,1.6-3.1,2.9-4.3c1.2-1.2,2.6-2.1,4.2-2.6c1.6-0.6,3.3-0.9,5-0.9s3.5,0.3,5.1,0.9s3,1.5,4.2,2.6
				c1.2,1.2,2.2,2.7,2.8,4.3C361.52,309.673,361.82,311.773,361.82,313.773z M341.72,313.773c0,1.2,0.1,2.4,0.5,3.5
				c0.3,1,0.7,1.9,1.4,2.7c0.6,0.7,1.3,1.3,2.2,1.7s2,0.6,3,0.6s2-0.2,3-0.6c0.9-0.4,1.6-1,2.2-1.7c0.6-0.8,1.1-1.7,1.4-2.7
				c0.3-1.1,0.5-2.3,0.5-3.5c0-1.2-0.1-2.4-0.5-3.5c-0.3-1-0.7-1.9-1.4-2.7c-0.6-0.7-1.3-1.3-2.2-1.7c-0.9-0.4-1.9-0.6-3-0.6
				c-1,0-2.1,0.2-3,0.6s-1.6,1-2.2,1.8c-0.6,0.8-1.1,1.7-1.4,2.7C341.82,311.373,341.72,312.573,341.72,313.773L341.72,313.773z"/>
			<path fill="#010101" d="M373.92,322.373c0.7,0,1.4-0.1,2.1-0.2c0.5-0.1,0.9-0.3,1.3-0.6c0.3-0.2,0.5-0.5,0.7-0.9
				c0.1-0.4,0.2-0.7,0.2-1.1c0-0.9-0.5-1.7-1.2-2.1c-1.3-0.8-2.7-1.4-4.2-1.8c-0.9-0.3-1.7-0.6-2.6-1c-0.8-0.4-1.6-0.9-2.3-1.5
				c-0.7-0.6-1.3-1.3-1.7-2.2c-0.5-1-0.7-2-0.6-3.1c0-1.1,0.2-2.3,0.7-3.3c0.4-1,1.1-1.8,1.9-2.5c0.9-0.7,1.9-1.3,3-1.6
				c1.3-0.4,2.6-0.6,4-0.6c1.5,0,3.1,0.2,4.6,0.6c1.1,0.3,2.2,0.7,3.2,1.3l-1.7,4.7c-0.8-0.4-1.6-0.7-2.5-1
				c-1.1-0.3-2.1-0.5-3.2-0.4c-1.1-0.1-2.1,0.1-3.1,0.6c-0.6,0.4-1,1.1-0.9,1.8c0,0.4,0.1,0.9,0.3,1.2c0.3,0.4,0.6,0.7,1,0.9
				c0.5,0.3,0.9,0.5,1.4,0.7c0.5,0.2,1.1,0.4,1.8,0.7c1.3,0.5,2.5,1,3.6,1.5c0.9,0.4,1.8,1,2.5,1.7c0.7,0.6,1.2,1.4,1.5,2.3
				c0.3,1,0.5,2.1,0.5,3.2c0.1,2.2-0.8,4.3-2.6,5.7c-1.7,1.4-4.3,2-7.8,2c-1.1,0-2.1-0.1-3.2-0.2c-0.8-0.1-1.7-0.3-2.5-0.5
				c-0.6-0.2-1.3-0.4-1.9-0.6c-0.4-0.2-0.9-0.4-1.3-0.6l1.7-4.7c0.9,0.5,1.9,0.9,2.9,1.1
				C371.02,322.273,372.52,322.473,373.92,322.373z"/>
			<path fill="#010101" d="M396.02,322.373c0.7,0,1.4-0.1,2.1-0.2c0.5-0.1,0.9-0.3,1.3-0.6c0.3-0.2,0.5-0.5,0.7-0.9
				c0.1-0.4,0.2-0.7,0.2-1.1c0-0.9-0.5-1.7-1.2-2.1c-1.3-0.8-2.7-1.4-4.2-1.8c-0.9-0.3-1.7-0.6-2.6-1c-0.8-0.4-1.6-0.9-2.3-1.5
				c-0.7-0.6-1.3-1.3-1.7-2.2c-0.5-1-0.7-2-0.6-3.1c0-1.1,0.2-2.3,0.7-3.3c0.4-1,1.1-1.8,1.9-2.5c0.9-0.7,1.9-1.3,3-1.6
				c1.3-0.4,2.6-0.6,4-0.6c1.6,0,3.1,0.2,4.6,0.6c1.1,0.3,2.2,0.7,3.2,1.3l-1.7,4.7c-0.8-0.4-1.6-0.7-2.5-1
				c-1.1-0.3-2.2-0.5-3.3-0.4c-1.1-0.1-2.1,0.1-3.1,0.6c-0.6,0.4-1,1.1-0.9,1.8c0,0.4,0.1,0.9,0.3,1.2c0.3,0.4,0.6,0.7,1,0.9
				c0.5,0.3,0.9,0.5,1.5,0.7c0.5,0.2,1.1,0.4,1.8,0.7c1.4,0.5,2.6,1,3.6,1.5c0.9,0.4,1.8,1,2.5,1.7c0.7,0.7,1.2,1.4,1.5,2.3
				c0.4,1,0.5,2.1,0.5,3.2c0.1,2.2-0.9,4.3-2.6,5.7c-1.7,1.3-4.3,2-7.8,2c-1.1,0-2.1-0.1-3.1-0.2c-0.8-0.1-1.7-0.3-2.5-0.5
				c-1.1-0.3-2.2-0.7-3.2-1.3l1.7-4.7C391.02,321.973,393.52,322.473,396.02,322.373L396.02,322.373z"/>
			<path fill="#010101" d="M361.02,201.173c-0.2-1-0.7-2-1.4-2.7c-13.6-12.8-40.3-38.6-45.1-43.3c-0.6-0.6-2.5-2.5-2.5-2.5
				c-6.5-4.6-12.9-5.1-19.1,0.8l-45.2,45.6c-0.2-0.2-0.3-0.4-0.5-0.6c-13.5-12.8-40.3-38.6-45-43.3c-0.6-0.6-2.4-2.5-2.4-2.5
				c-6.5-4.6-12.9-5.1-19.1,0.8l-87,87.9c-2,1.9-2,5.1,0,7.1l0.1,0.1c8.8,8.4,30.4,29,33.3,31.7c1.8,1.7,4.7,1.7,6.5-0.1l73.3-74.2
				c2.9-3,6.2-5.5,9.8-7.5c2.5-1.4,6.7-2.1,8.9-1.5c1.9,0.5,11,5.6,15.7,8.7l-35.3,35.7c-2,1.9-2,5.1,0,7.1l0.1,0.1
				c8.8,8.4,30.4,29,33.3,31.7c1.8,1.7,4.7,1.7,6.5-0.1l73.3-74.2c2.9-3,6.2-5.5,9.8-7.5c2.5-1.5,6.7-2.1,8.9-1.5
				c1.9,0.5,11.4,5.9,16,8.9c0.9,0.6,2,0.9,3.1,0.7h0.1C359.72,206.173,361.42,203.773,361.02,201.173z"/>
			<path fill="#010101" d="M336.12,239.973l27.6-27.6c3.2-3.2,8.4-3.2,11.7,0l27.5,27.6c3.2,3.2,3.2,8.4,0,11.7l-27.6,27.5
				c-3.2,3.2-8.4,3.2-11.7,0l-27.6-27.6C332.92,248.373,332.92,243.173,336.12,239.973z"/>
		</g>
	</g>
</g>
</svg>
