<?xml version="1.0" encoding="utf-8"?>
<!-- Generator: Adobe Illustrator 26.0.3, SVG Export Plug-In . SVG Version: 6.00 Build 0)  -->
<!DOCTYPE svg PUBLIC "-//W3C//DTD SVG 1.1//EN" "http://www.w3.org/Graphics/SVG/1.1/DTD/svg11.dtd" [
	<!ENTITY ns_extend "http://ns.adobe.com/Extensibility/1.0/">
	<!ENTITY ns_ai "http://ns.adobe.com/AdobeIllustrator/10.0/">
	<!ENTITY ns_graphs "http://ns.adobe.com/Graphs/1.0/">
	<!ENTITY ns_vars "http://ns.adobe.com/Variables/1.0/">
	<!ENTITY ns_imrep "http://ns.adobe.com/ImageReplacement/1.0/">
	<!ENTITY ns_sfw "http://ns.adobe.com/SaveForWeb/1.0/">
	<!ENTITY ns_custom "http://ns.adobe.com/GenericCustomNamespace/1.0/">
	<!ENTITY ns_adobe_xpath "http://ns.adobe.com/XPath/1.0/">
]>
<svg version="1.1" id="Layer_1" xmlns:x="&ns_extend;" xmlns:i="&ns_ai;" xmlns:graph="&ns_graphs;"
	 xmlns="http://www.w3.org/2000/svg" xmlns:xlink="http://www.w3.org/1999/xlink" x="0px" y="0px" width="600px" height="600px"
	 viewBox="0 0 512 512" enable-background="new 0 0 512 512" xml:space="preserve">
<metadata>
	<sfw  xmlns="&ns_sfw;">
		<slices></slices>
		<sliceSourceBounds  bottomLeftOrigin="true" height="1212.363" width="2589.979" x="8.803" y="-1398.495"></sliceSourceBounds>
	</sfw>
</metadata>
<g>
	<path fill="#FFFFFF" d="M61.724,220.564l-38.702,22.383v44.677l38.702,22.383l38.702-22.383v-44.677L61.724,220.564z
		 M61.724,220.564l-38.702,22.383v44.677l38.702,22.383l38.702-22.383v-44.677L61.724,220.564z"/>
	<path fill="#203669" d="M76.973,292.439h-5.529l-6.599-6.064v-3.121l6.866-6.51V266.4l8.918-5.796l10.166,7.669L76.973,292.439z
		 M54.145,276.209l0.981-9.72l-3.299-8.65h19.708l-3.299,8.65l0.892,9.72h-7.58H54.145z M58.693,286.375l-6.599,6.153h-5.618
		l-13.911-24.166l10.255-7.58l9.007,5.707v10.344l6.866,6.51C58.693,283.343,58.693,286.375,58.693,286.375z M46.386,239.915h30.498
		l3.656,15.516H42.819L46.386,239.915z M61.724,220.564l-38.702,22.383v44.677l38.702,22.383l38.702-22.383v-44.677L61.724,220.564z
		"/>
	<path fill="#23366F" d="M143.855,285.929c-10.255,0-17.746-8.026-17.746-17.835s7.58-18.103,17.835-18.103
		c6.51,0,10.523,2.408,13.733,5.886l-4.905,5.261c-2.408-2.586-4.994-4.28-8.917-4.28c-5.707,0-9.898,4.994-9.898,11.058
		c0,6.242,4.28,11.147,10.344,11.147c3.745,0,6.421-1.784,8.917-4.28l4.726,4.726C154.467,283.254,150.543,285.929,143.855,285.929"
		/>
	<path fill="#23366F" d="M172.837,285.929H164.9v-35.848h7.937v8.382c2.14-5.083,6.153-8.65,12.217-8.382v8.382h-0.446
		c-6.866,0-11.682,4.459-11.682,13.644L172.837,285.929L172.837,285.929z"/>
	<polygon fill="#23366F" points="226.342,249.992 208.952,295.56 200.927,295.56 204.761,285.929 189.78,249.992 198.162,249.992 
		208.328,276.566 218.138,249.992 	"/>
	<path fill="#23366F" d="M249.616,256.858c-5.351,0-9.988,4.37-9.988,11.058c0,6.777,4.726,11.058,9.988,11.058
		c5.44,0,9.809-4.28,9.809-11.058C259.426,261.139,254.967,256.858,249.616,256.858 M251.4,285.84
		c-5.618,0-9.274-2.854-11.593-6.064v15.784h-7.937v-45.568h7.937v6.421c2.586-3.567,6.153-6.421,11.593-6.421
		c8.115,0,16.052,6.421,16.052,17.924C267.451,279.33,259.604,285.84,251.4,285.84"/>
	<path fill="#23366F" d="M284.751,257.483v16.943c0,3.032,1.516,4.28,4.28,4.28h3.121v7.045h-5.44
		c-5.707,0-9.809-2.586-9.809-10.077v-18.192h-4.37v-6.777h4.37v-9.453h7.937v9.453h7.402v6.777L284.751,257.483L284.751,257.483z"
		/>
	<path fill="#23366F" d="M317.033,256.858c-6.331,0-10.434,4.994-10.434,11.058c0,6.153,4.37,11.147,10.434,11.147
		c6.331,0,10.434-4.994,10.434-11.058C327.644,261.941,323.275,256.858,317.033,256.858 M317.033,285.929
		c-10.434,0-18.192-8.026-18.192-17.835c0-9.898,7.847-18.103,18.37-18.103c10.523,0,18.281,8.026,18.281,17.924
		C335.492,277.725,327.734,285.929,317.033,285.929"/>
	<path fill="#23366F" d="M410.934,256.858c-6.331,0-10.434,4.994-10.434,11.058c0,6.153,4.37,11.147,10.434,11.147
		c6.331,0,10.433-4.994,10.433-11.058C421.546,261.941,417.176,256.858,410.934,256.858 M410.934,285.929
		c-10.434,0-18.192-8.026-18.192-17.835c0-9.898,7.847-18.103,18.37-18.103s18.281,8.026,18.281,17.924
		C429.393,277.725,421.546,285.929,410.934,285.929"/>
	<path fill="#23366F" d="M476.299,249.992c7.491,0,12.128,4.726,12.128,13.198v22.65h-7.937v-20.332
		c0-5.529-2.586-8.382-6.956-8.382c-4.28,0-7.402,3.032-7.402,8.561v20.243h-7.937v-20.421c0-5.351-2.675-8.382-6.956-8.382
		c-4.37,0-7.402,3.299-7.402,8.65v20.154h-7.937v-35.938h7.937v5.886c2.229-3.032,5.172-5.886,10.434-5.886
		c4.994,0,8.382,2.408,10.255,6.064C467.471,252.4,471.038,249.992,476.299,249.992"/>
	<polygon fill="#23366F" points="350.027,278.617 350.027,282.719 349.76,283.076 346.282,285.038 345.836,285.038 342.358,283.076 
		342.18,282.719 342.18,278.617 342.358,278.26 345.836,276.298 346.282,276.298 349.76,278.26 	"/>
	<path fill="#23366F" d="M373.926,285.84c-10.255-0.268-17.568-8.382-17.478-18.192c0.178-9.809,7.937-17.924,18.192-17.657
		c6.51,0.178,10.523,2.675,13.644,6.242l-4.994,5.172c-2.319-2.586-4.905-4.459-8.828-4.459c-5.707-0.089-9.988,4.726-10.077,10.879
		c-0.178,6.242,4.013,11.236,10.077,11.325c3.745,0.089,6.51-1.605,9.007-4.102l4.637,4.815
		C384.717,283.432,380.704,286.019,373.926,285.84"/>
</g>
</svg>
