<?xml version="1.0" encoding="utf-8"?>
<!-- Generator: Adobe Illustrator 26.0.3, SVG Export Plug-In . SVG Version: 6.00 Build 0)  -->
<!DOCTYPE svg PUBLIC "-//W3C//DTD SVG 1.1//EN" "http://www.w3.org/Graphics/SVG/1.1/DTD/svg11.dtd" [
	<!ENTITY ns_extend "http://ns.adobe.com/Extensibility/1.0/">
	<!ENTITY ns_ai "http://ns.adobe.com/AdobeIllustrator/10.0/">
	<!ENTITY ns_graphs "http://ns.adobe.com/Graphs/1.0/">
	<!ENTITY ns_vars "http://ns.adobe.com/Variables/1.0/">
	<!ENTITY ns_imrep "http://ns.adobe.com/ImageReplacement/1.0/">
	<!ENTITY ns_sfw "http://ns.adobe.com/SaveForWeb/1.0/">
	<!ENTITY ns_custom "http://ns.adobe.com/GenericCustomNamespace/1.0/">
	<!ENTITY ns_adobe_xpath "http://ns.adobe.com/XPath/1.0/">
]>
<svg version="1.1" id="Layer_1" xmlns:x="&ns_extend;" xmlns:i="&ns_ai;" xmlns:graph="&ns_graphs;"
	 xmlns="http://www.w3.org/2000/svg" xmlns:xlink="http://www.w3.org/1999/xlink" x="0px" y="0px" width="512px" height="512px"
	 viewBox="0 0 512 512" enable-background="new 0 0 512 512" xml:space="preserve">
<metadata>
	<sfw  xmlns="&ns_sfw;">
		<slices></slices>
		<sliceSourceBounds  bottomLeftOrigin="true" height="1212.363" width="2589.979" x="8.803" y="-1398.495"></sliceSourceBounds>
	</sfw>
</metadata>
<g id="partners_x2F_animocabrands_x5F_logo">
	<g id="Commonly_x2F_AnimocaBrands" transform="translate(38.130183, 9.183435)">
		<path id="Fill-1" fill-rule="evenodd" clip-rule="evenodd" fill="#34A3DC" d="M126.634,144.414c0,0.466,0,0.933,0,1.399
			c0,3.731,1.199,4.664,4.931,4.131c1.999-0.333,4.064-0.466,6.13-0.6c7.063-0.6,7.329-0.8,7.129-7.996c0-0.333,0-0.6,0-0.933
			c-0.2-2.066-1.199-3.265-3.398-3.065c-3.865,0.333-7.729,0.533-11.594,0.999c-1.999,0.267-3.265,1.599-3.198,3.798
			C126.634,142.882,126.634,143.681,126.634,144.414L126.634,144.414z M182.537,236.231c-2.998,8.529-5.93,17.057-8.995,25.919
			c6.397-0.533,12.46-1.066,18.79-1.599c-3.132-8.329-6.197-16.391-9.195-24.387L182.537,236.231z M43.479,260.218
			c2.599-0.2,5.064-0.267,7.463-0.533c3.398-0.4,6.796-0.733,10.128-1.466c2.932-0.6,5.064-2.532,5.863-5.464
			c1.466-5.264,0.067-9.262-5.664-9.528c-5.93-0.267-11.86,0.333-17.857,0.533v16.458H43.479z M107.444,256.02
			c4.531-0.4,8.995-0.6,13.326-1.266c2.998-0.533,6.063-1.399,8.795-2.798c2.932-1.466,3.931-5.397,2.998-9.128
			c-0.733-2.865-3.332-5.197-6.53-5.197c-6.197,0.067-12.327,0.533-18.59,0.8V256.02z M63.402,268.946
			c-4.531-0.4-9.128,0.067-13.659,0.2c-2.066,0.067-4.198,0.333-6.263,0.533v18.257c5.131-0.4,9.995-0.6,14.859-1.266
			c2.665-0.4,5.397-1.266,7.729-2.465c3.731-1.999,4.464-5.664,3.998-9.528C69.598,271.345,67.666,269.28,63.402,268.946
			L63.402,268.946z M370.035,228.302c2.998,1.199,6.263,1.732,9.462,2.399c7.996,1.732,16.524,2.132,22.121,9.462V218.84
			c-0.133,0-0.2,0-0.333-0.067c-0.4,1.133-0.8,2.332-1.333,3.465c-1.866,3.931-7.729,5.064-9.861,0.666
			c-0.533-0.999-0.999-2.132-1.732-2.932c-1.533-1.599-2.998-3.798-4.997-4.464c-5.264-1.799-10.461-0.933-14.792,2.732
			C364.838,221.506,365.504,226.436,370.035,228.302L370.035,228.302z M264.159,216.841c-9.328,0.8-19.056,1.666-28.984,2.532
			c9.395,13.393,18.59,26.586,27.785,39.778c0.2-0.067,0.333-0.067,0.533-0.133v-2.399c0-10.261-0.067-20.522,0-30.783
			C263.56,222.905,263.893,219.973,264.159,216.841L264.159,216.841z M142.759,162.138c-0.2-2.066-1.599-3.398-3.665-3.198
			c-2.265,0.2-4.531,0.4-6.796,0.8c-2.665,0.466-3.265,1.333-3.265,3.998c0,8.462,0,16.858,0,25.32c0,8.595,0,17.191,0,25.786
			c0,2.265,1.066,3.398,3.132,3.332c2.066-0.133,4.064-0.466,6.13-0.6c3.731-0.2,4.531-2.199,4.531-5.464
			c-0.067-16.125,0-32.183,0-48.307C142.759,163.204,142.759,162.671,142.759,162.138L142.759,162.138z M302.605,266.148
			c4.398-0.466,8.595-0.999,12.86-1.333c7.529-0.533,11.727-4.931,13.793-11.727c2.132-6.796,2.199-13.726,0.466-20.589
			c-1.732-6.93-6.13-10.194-13.259-10.128c-3.798,0-7.663,0.4-11.46,0.4c-2.066,0-2.599,0.733-2.532,2.665
			c0.067,12.793,0.067,25.586,0.067,38.379C302.472,264.615,302.539,265.282,302.605,266.148L302.605,266.148z M348.114,197.585
			c7.263,1.266,14.259-0.333,21.122-2.332c7.196-2.132,5.73-2.732,5.797-7.929c0.067-3.998-1.066-4.598-5.064-3.798
			c-5.197,1.066-10.461,1.999-15.725,2.532c-3.798,0.4-6.33-2.399-6.33-6.197c0-3.531,0-7.063,0-10.594
			c0-3.132,0.267-6.33-0.067-9.395c-0.466-4.664,3.332-8.928,8.862-8.795c4.864,0.133,9.795,0.067,14.659,0.133
			c2.532,0,3.598-1.066,3.665-3.598c0-1.333-0.067-2.599,0-3.931c0.133-2.132-0.8-3.265-2.865-3.665
			c-7.196-1.533-14.525-1.399-21.588,0.267c-9.661,2.265-16.258,10.261-16.458,19.456c-0.2,7.196-0.133,14.392,0,21.588
			C334.388,189.856,339.852,196.119,348.114,197.585L348.114,197.585z M66,219.64c0,3.332,1.199,4.398,4.531,4.198
			c1.533-0.133,3.065-0.333,4.531-0.466c3.398-0.2,4.664-1.399,4.664-4.797c0-11.727,0-23.454,0-35.181
			c0-4.064,2.865-7.463,6.596-7.862c2.798-0.267,5.597-0.6,8.395-0.866c4.531-0.466,7.529,2.199,7.529,6.73c0,1.866,0,3.665,0,5.53
			c0,9.861,0,19.789,0,29.651c0,3.198,1.533,4.398,4.664,3.998c1.333-0.2,2.732-0.267,4.131-0.4
			c3.731-0.333,5.197-1.666,5.064-5.264c-0.2-5.93-0.067-11.794-0.067-17.724c0-5.73,0-11.527,0-17.257
			c0-8.262-4.797-14.725-12.926-16.258c-7.929-1.533-15.925-0.8-23.454,1.932c-7.729,2.798-12.926,8.462-13.526,17.124
			c-0.4,6.463-0.2,12.993-0.267,19.523C65.934,207.98,65.934,213.776,66,219.64L66,219.64z M39.481,213.643
			c0,0.466-1.199,1.266-1.932,1.333c-4.398,0.466-8.862,0.8-13.259,1.066c-3.998,0.267-6.596-1.466-7.196-4.797
			c-0.6-3.531,1.533-7.129,5.131-8.129c1.866-0.533,3.931-0.533,5.863-0.8c1.866-0.2,3.798-0.4,5.73-0.6
			c1.799-0.133,3.665-0.2,5.797-0.333C39.548,205.581,39.615,209.645,39.481,213.643L39.481,213.643z M53.141,220.306
			c0-11.261,0-22.521,0-33.782c0-1.732,0-3.531-0.4-5.264c-1.799-7.396-8.529-12.86-16.191-12.593
			c-5.597,0.2-11.261,0.999-16.791,1.999c-5.064,0.933-5.464,1.799-5.464,6.93c0,0.6,0,1.199,0,1.866
			c0.133,2.665,1.199,3.465,3.798,3.065c4.531-0.733,9.062-1.066,13.526-1.999c4.997-1.066,9.195,3.398,7.529,9.128
			c-3.865,0.333-7.862,0.8-11.794,1.066c-6.397,0.4-12.26,1.866-17.391,6.063c-7.663,6.33-9.262,17.99-3.065,25.186
			c4.931,5.73,11.594,6.596,18.59,5.93c7.529-0.666,15.058-1.533,22.588-2.132C52.274,225.303,53.141,224.571,53.141,220.306
			L53.141,220.306z M418.942,180.395c-4.064,0.4-7.996,0.733-11.927,1.066c-1.666,0.133-3.398,0.533-4.997,0.333
			c-3.265-0.333-5.464-2.865-5.597-5.997c-0.133-2.998,2.599-6.73,5.664-7.129c5.53-0.733,11.061-1.133,16.858-1.666
			L418.942,180.395L418.942,180.395z M432.601,150.211c-0.067-8.062-6.197-14.659-14.192-15.658
			c-6.397-0.866-12.593,0.4-18.79,1.732c-5.863,1.333-5.863,1.533-5.797,7.529c0,0.466,0,0.933,0,1.399
			c0.133,2.532,1.466,3.332,3.998,2.932c4.997-0.8,10.061-1.533,15.125-1.999c1.266-0.133,2.798,0.666,3.865,1.466
			c2.465,1.799,2.332,4.598,2.066,7.596c-3.731,0.333-7.329,0.6-10.927,0.933c-4.864,0.466-9.728,0.8-14.126,3.198
			c-7.929,4.264-11.927,11.594-10.994,20.456c0.866,8.062,9.462,14.459,18.856,13.726c9.062-0.666,18.124-1.599,27.185-2.399
			c2.732-0.267,3.731-1.333,3.731-4.131C432.668,174.731,432.668,162.471,432.601,150.211L432.601,150.211z M155.352,212.444
			c0,0.133,0.067,0.333,0.067,0.466c0.133,1.999,1.333,2.865,3.198,2.732c2.066-0.133,4.131-0.4,6.197-0.533
			c3.198-0.267,4.131-1.266,4.131-4.464c0-11.594,0-23.187,0-34.714c0-4.797,2.932-8.196,7.463-8.595
			c2.465-0.2,4.864-0.333,7.329-0.466c5.73-0.333,7.862,1.666,7.862,7.396c0,11.061,0,22.055,0,33.115
			c0,0.733-0.067,1.533,0.067,2.265c0.267,1.866,1.133,2.932,3.198,2.798c1.999-0.2,3.931-0.333,5.93-0.466
			c3.132-0.2,4.464-1.533,4.464-4.731c0-11.527,0-22.988,0-34.515c0-5.264,3.065-8.395,8.262-8.662
			c2.066-0.067,4.131-0.267,6.197-0.533c5.664-0.6,8.329,1.732,8.329,7.396c0,9.661,0,19.323,0,28.984c0,2.066,0,4.131,0.067,6.197
			s1.133,3.132,3.198,2.998c2.399-0.133,4.731-0.2,7.063-0.533c2.332-0.333,3.198-1.599,3.198-4.264c0-12.26-0.067-24.52,0-36.78
			c0.067-7.796-5.464-12.993-11.594-14.992c-4.331-1.399-8.729-0.8-13.193-0.533c-6.663,0.4-13.06,1.466-17.99,5.863
			c-2.732-0.933-4.997-2.265-7.263-2.465c-4.331-0.333-8.662-0.267-12.993,0.133c-3.398,0.333-6.863,0.866-9.995,2.132
			c-7.729,3.065-12.926,8.662-13.126,17.324C155.219,187.457,155.418,199.984,155.352,212.444L155.352,212.444z M288.946,184.725
			c2.265,0.067,3.798,1.666,3.798,3.931c-0.067,2.599-2.066,4.464-4.797,4.398c-2.132-0.067-3.665-1.599-3.665-3.798
			C284.349,186.724,286.414,184.659,288.946,184.725L288.946,184.725z M303.538,183.326c1.999,0.067,3.798,1.866,3.798,3.798
			c0.067,2.332-2.332,4.797-4.664,4.731c-2.066,0-3.998-1.932-3.931-3.998C298.741,185.592,301.206,183.26,303.538,183.326
			L303.538,183.326z M245.969,154.009c1.732-0.2,3.332-1.133,4.464-1.599c4.664,4.264,9.328,8.529,14.459,13.193
			c-3.332,1.133-5.93,1.999-8.462,2.865c-1.666-2.532-3.398-3.265-5.73-2.599c-1.866,0.533-3.398,2.599-3.531,4.598
			c-0.133,2.132,0.8,3.531,2.665,4.331c2.265,0.933,4.131,0,6.796-3.465c2.132,0.999,4.331,2.066,6.596,2.998
			c1.266,0.466,1.466,1.266,1.532,2.465c0.067,1.999,0.2,3.998,0.733,5.863c3.998,15.325,17.99,23.854,33.582,21.055
			c17.924-3.198,32.116-21.722,27.718-40.778c-3.398-14.925-16.658-22.854-30.25-21.788c-6.063,0.466-11.727,2.465-16.724,6.063
			c-0.999,0.733-1.732,0.866-2.798,0c-1.732-1.399-3.598-2.532-5.33-3.731c1.133-3.731,0.733-5.397-1.333-6.796
			c-1.732-1.133-4.131-0.933-5.93,0.466c-1.666,1.333-2.465,4.064-1.666,5.997c0.933,2.265,2.599,2.932,6.663,2.465
			c0.466,2.998,0.933,5.997,1.466,9.328c-6.13-2.066-11.794-3.931-17.391-5.93c-0.533-0.2-1.066-1.066-1.266-1.732
			c-0.866-3.465-3.132-4.997-6.596-4.398c-2.998,0.533-5.131,3.531-4.797,6.796C240.972,152.21,243.238,154.342,245.969,154.009
			L245.969,154.009z M398.753,262.084c-7.596,9.462-25.786,11.527-35.581,7.196c-5.863-2.599-10.394-9.195-10.194-14.859
			c0.067-2.665,1.999-5.064,4.531-5.664c2.932-0.733,4.931,0.133,6.463,2.932c0.999,1.799,1.866,3.665,2.798,5.464
			c1.266,2.399,3.398,3.798,5.93,4.264c4.864,0.866,9.595,0.4,13.793-2.532c3.065-2.132,4.797-5.064,4.198-8.795
			c-0.6-3.665-3.398-5.264-6.663-5.997c-5.264-1.133-10.594-1.999-15.858-3.265c-4.598-1.066-8.862-2.998-11.66-7.129
			c-3.665-5.464-2.998-14.326,1.732-19.323c2.465-2.599,5.53-4.598,8.062-6.596c-13.726,1.199-28.051,2.465-42.444,3.798
			c0.133,0.133,0.2,0.2,0.2,0.267c0.4,0.133,0.733,0.2,1.133,0.267c8.795,1.866,14.192,7.396,16.858,15.725
			c2.932,9.128,2.798,18.39-0.067,27.452c-3.265,10.394-10.128,17.257-21.122,19.19c-5.131,0.866-10.261,1.333-15.458,1.799
			c-3.398,0.333-6.863,0.466-10.328,0.466c-3.065,0-4.464-1.199-5.064-4.198c-0.267-1.199-0.4-2.399-0.4-3.598
			c0-14.925,0-29.917-0.067-44.842c0-3.598-0.067-7.129,3.398-9.795c-6.463,0.6-12.527,1.133-18.257,1.666
			c0.333,2.532,0.866,4.864,0.866,7.196c0.067,15.192,0.067,30.383,0,45.575c0,1.732-0.067,3.531-0.267,5.264
			c-0.333,2.998-1.866,5.064-4.797,6.063c-3.998,1.333-7.463,0-10.394-4.198c-5.33-7.529-10.528-15.192-15.791-22.721
			c-3.198-4.598-6.33-9.195-9.928-14.326v13.992c0,7.996,0,15.925,0,23.92c0,4.131-2.798,6.996-6.53,6.996
			c-3.531,0-5.33-2.132-5.464-6.663c0-0.666,0-1.399,0-2.066c0-15.125-0.067-30.184,0.067-45.309c0-2.998,0.666-5.997,0.999-9.128
			c-10.861,0.933-22.255,1.932-33.582,2.932c1.066,1.999,2.132,3.798,2.932,5.73c3.931,9.328,7.862,18.657,11.727,27.985
			c2.732,6.663,5.464,13.326,7.996,20.122c1.199,3.132-0.866,6.53-4.198,7.862c-3.265,1.266-5.797,0.267-7.463-3.198
			c-1.466-3.132-2.865-6.397-4.064-9.661c-0.533-1.466-1.199-1.999-2.798-1.866c-7.929,0.733-15.858,1.333-23.787,1.999
			c-0.2,0.666-0.4,1.266-0.666,1.932c-1.533,3.998-2.998,7.929-4.664,11.86c-0.999,2.332-2.998,3.265-5.597,3.198
			c-2.332-0.067-4.331-1.066-4.864-3.132c-0.466-1.999-0.333-4.398,0.333-6.33c1.666-5.131,3.731-10.128,5.664-15.192
			c5.131-13.326,10.261-26.586,15.392-39.978c-12.86,1.133-26.053,2.265-40.045,3.531c8.995,3.731,11.394,10.528,10.194,18.723
			c-1.266,8.529-7.729,12.393-15.192,14.925c0.133,0.267,0.133,0.466,0.267,0.533c7.796,4.931,12.393,12.26,15.791,20.522
			c0.466,1.199,0.466,2.865,0.067,4.131c-0.866,2.599-3.265,3.598-5.73,3.865c-2.865,0.333-4.997-1.333-6.463-3.598
			c-2.865-4.331-5.53-8.795-8.395-13.06c-1.533-2.265-3.132-4.531-5.064-6.463c-3.865-3.931-8.795-2.465-13.659-2.465
			c0,6.197,0.067,12.127,0,18.124c0,1.932-0.133,3.865-0.466,5.664c-0.666,3.132-3.798,5.264-7.263,5.064
			c-2.998-0.2-4.731-2.066-5.131-5.664c-0.133-1.133-0.2-2.265-0.2-3.465c0-15.192-0.067-30.384,0.067-45.575
			c0-2.599,0.666-5.197,0.999-7.862c-7.396,0.666-15.192,1.333-23.521,2.066c11.261,5.664,11.66,21.322,0.133,27.652
			c2.599,1.732,6.063,3.132,8.262,5.664c4.731,5.597,4.064,12.06,0.933,18.19c-3.731,7.263-10.528,9.728-18.124,10.661
			c-6.13,0.733-12.327,1.466-18.457,1.732c-4.064,0.2-8.395,1.932-12.327-0.866c-0.666,1.932,0.2,2.465,1.866,2.865
			c42.11,10.994,84.288,22.055,126.398,33.049c55.17,14.459,110.407,28.918,165.577,43.443c1.533,0.4,2.332,0.2,3.132-1.133
			c23.92-37.78,47.907-75.492,71.828-113.272c0.6-0.999,0.8-2.265,1.199-3.398C400.619,259.552,399.753,260.818,398.753,262.084
			L398.753,262.084z"/>
	</g>
</g>
</svg>
