<?xml version="1.0" encoding="utf-8"?>
<!-- Generator: Adobe Illustrator 26.0.3, SVG Export Plug-In . SVG Version: 6.00 Build 0)  -->
<!DOCTYPE svg PUBLIC "-//W3C//DTD SVG 1.1//EN" "http://www.w3.org/Graphics/SVG/1.1/DTD/svg11.dtd" [
	<!ENTITY ns_extend "http://ns.adobe.com/Extensibility/1.0/">
	<!ENTITY ns_ai "http://ns.adobe.com/AdobeIllustrator/10.0/">
	<!ENTITY ns_graphs "http://ns.adobe.com/Graphs/1.0/">
	<!ENTITY ns_vars "http://ns.adobe.com/Variables/1.0/">
	<!ENTITY ns_imrep "http://ns.adobe.com/ImageReplacement/1.0/">
	<!ENTITY ns_sfw "http://ns.adobe.com/SaveForWeb/1.0/">
	<!ENTITY ns_custom "http://ns.adobe.com/GenericCustomNamespace/1.0/">
	<!ENTITY ns_adobe_xpath "http://ns.adobe.com/XPath/1.0/">
]>
<svg version="1.1" id="Layer_1" xmlns:x="&ns_extend;" xmlns:i="&ns_ai;" xmlns:graph="&ns_graphs;"
	 xmlns="http://www.w3.org/2000/svg" xmlns:xlink="http://www.w3.org/1999/xlink" x="0px" y="0px" width="512px" height="512px"
	 viewBox="0 0 512 512" enable-background="new 0 0 512 512" xml:space="preserve">
<metadata>
	<sfw  xmlns="&ns_sfw;">
		<slices></slices>
		<sliceSourceBounds  bottomLeftOrigin="true" height="1212.363" width="2589.979" x="8.803" y="-1398.495"></sliceSourceBounds>
	</sfw>
</metadata>
<g>
	
		<linearGradient id="SVGID_1_" gradientUnits="userSpaceOnUse" x1="203.9431" y1="395.1265" x2="205.9153" y2="458.2358" gradientTransform="matrix(1 0 0 1 -120.9449 -132.6378)">
		<stop  offset="0" style="stop-color:#F09249"/>
		<stop  offset="1" style="stop-color:#DF5A2B"/>
	</linearGradient>
	<path fill-rule="evenodd" clip-rule="evenodd" fill="url(#SVGID_1_)" d="M108.249,301.428c20.7,0,37.5-16.6,37.9-37.2v-0.6
		c0,34.9-28.3,63.1-63.1,63.1c-34.9,0-63.1-28.3-63.1-63.1h50.5C70.349,284.528,87.249,301.428,108.249,301.428z"/>
	
		<linearGradient id="SVGID_00000154421620381897068650000018160220505272915093_" gradientUnits="userSpaceOnUse" x1="203.8944" y1="396.2658" x2="203.8944" y2="459.3658" gradientTransform="matrix(1 0 0 1 -120.9449 -132.6378)">
		<stop  offset="0" style="stop-color:#E57725"/>
		<stop  offset="1" style="stop-color:#F2B24D"/>
	</linearGradient>
	<path fill-rule="evenodd" clip-rule="evenodd" fill="url(#SVGID_00000154421620381897068650000018160220505272915093_)" d="
		M57.749,301.428c-20.7,0-37.5-16.6-37.9-37.2v-0.6c0,34.9,28.3,63.1,63.1,63.1c34.9,0,63.1-28.3,63.1-63.1h-50.5
		C95.549,284.528,78.649,301.428,57.749,301.428z"/>
	
		<linearGradient id="SVGID_00000124863619495965498090000012300879024965567151_" gradientUnits="userSpaceOnUse" x1="203.8944" y1="396.2371" x2="203.8944" y2="335.8059" gradientTransform="matrix(1 0 0 1 -120.9449 -132.6378)">
		<stop  offset="0" style="stop-color:#E57725"/>
		<stop  offset="1" style="stop-color:#DE4A33"/>
	</linearGradient>
	<path fill-rule="evenodd" clip-rule="evenodd" fill="url(#SVGID_00000124863619495965498090000012300879024965567151_)" d="
		M57.749,225.728c-20.7,0-37.5,16.6-37.9,37.2v0.6c0-34.9,28.3-63.1,63.1-63.1c34.9,0,63.1,28.3,63.1,63.1h-50.5
		C95.549,242.728,78.649,225.728,57.749,225.728z"/>
	
		<linearGradient id="SVGID_00000072983876307508111760000004037132575615079866_" gradientUnits="userSpaceOnUse" x1="203.9944" y1="396.2371" x2="203.9944" y2="333.1371" gradientTransform="matrix(1 0 0 1 -120.9449 -132.6378)">
		<stop  offset="0" style="stop-color:#EF9148"/>
		<stop  offset="1" style="stop-color:#F3C44E"/>
	</linearGradient>
	<path fill-rule="evenodd" clip-rule="evenodd" fill="url(#SVGID_00000072983876307508111760000004037132575615079866_)" d="
		M108.249,225.728c20.7,0,37.5,16.6,37.9,37.2v0.6c0-34.9-28.3-63.1-63.1-63.1c-34.9,0-63.1,28.3-63.1,63.1h50.5
		C70.349,242.728,87.249,225.728,108.249,225.728z"/>
	<path fill="#F09249" d="M69.749,262.928h-49.3v1.3h49.2v-1.3H69.749z"/>
	<path fill="#E57625" d="M145.449,262.928h-49.2v1.3h49.2V262.928z"/>
	<path fill="#040404" d="M177.649,289.628l0.3-44c0-0.1,0-0.3,0.1-0.4c0.1-0.1,0.2-0.2,0.3-0.2c0.2,0,0.4,0.1,0.5,0.4l10.9,39.2
		c0.4,1.5,1.2,2.7,2.4,3.6s2.5,1.3,4.1,1.3h0.3c1.6,0,2.9-0.4,4.1-1.3c1.2-0.9,2-2.1,2.4-3.6l10.7-39.2c0.1-0.2,0.2-0.4,0.5-0.4
		c0.1,0,0.2,0.1,0.3,0.2c0.1,0.1,0.1,0.2,0.1,0.4v44h6.6v-44.7c0-1.4-0.3-2.6-0.8-3.8c-0.5-1.1-1.2-2-2.1-2.6s-1.9-1-3-1h-0.8
		c-1.6,0-2.9,0.4-4.1,1.3c-1.1,0.9-1.9,2-2.4,3.5l-11.4,39.4c-0.1,0.2-0.2,0.4-0.5,0.4s-0.4-0.1-0.5-0.4l-11-39.3
		c-0.4-1.5-1.2-2.8-2.4-3.6c-1.2-0.9-2.5-1.3-4.1-1.3c-1.3,0-2.4,0.3-3.5,0.9c-1,0.6-1.8,1.5-2.4,2.6c-0.6,1.1-0.9,2.3-0.9,3.7
		l-0.4,44.8h6.7V289.628z"/>
	<path fill="#040404" d="M254.649,267.528c0-2.5-0.8-4.7-2.5-6.7s-4.1-3-7.2-3s-5.5,1.1-7.3,3.3c-1.8,2.2-2.6,4.4-2.6,6.5v0.4h19.7
		v-0.5H254.649z M261.849,270.928c0,0.6,0,1,0,1.3c0,0.3,0,0.7,0,1.2h-26.9v0.4c0,2.8,0.9,5.2,2.7,7.2c1.8,2,4.2,3,7.2,3
		c4.5,0,7.6-1.7,9.3-5.2h6.9c-0.9,3.6-2.8,6.4-5.8,8.4c-3,2-6.4,3-10.5,3c-5.2,0-9.3-1.8-12.4-5.3s-4.6-8.3-4.6-14.1
		c0-5.9,1.5-10.6,4.5-14.1c3-3.5,7.2-5.3,12.5-5.3s9.5,1.8,12.5,5.3C260.349,260.328,261.849,265.028,261.849,270.928z"/>
	<path fill="#040404" d="M266.749,289.628h6.7v-21.5c0-2.6,0.9-5,2.8-7c1.8-2,4.4-3.1,7.8-3.1h1.1c0.2,0,0.6,0.1,1.1,0.2v-6.6
		l-1.5-0.2h-0.6c-2.6,0-5,0.9-7.1,2.7s-3.3,3.3-3.9,4.6h-0.6l0.6-6.4h-6.4V289.628z"/>
	<path fill="#040404" d="M296.649,289.628h-6.6v-37.4h6.6V289.628z M289.049,241.828c0-1.2,0.4-2.2,1.3-3s1.9-1.3,3-1.3
		c1.2,0,2.2,0.4,3,1.3c0.8,0.8,1.3,1.9,1.3,3c0,1.2-0.4,2.2-1.3,3.1c-0.8,0.8-1.8,1.3-3,1.3s-2.2-0.4-3-1.3
		C289.449,244.028,289.049,243.028,289.049,241.828z"/>
	<path fill="#040404" d="M313.749,241.528h-6.4v5v5.7h-7.4v5.5h6.9v21.3c0,3.4,0.9,6,2.7,7.8c1.8,1.8,4.2,2.7,7.3,2.7
		c1.2,0,2.2-0.1,3.1-0.3c0.9-0.1,1.5-0.3,1.7-0.4v-6.2c-0.2,0.1-0.7,0.2-1.3,0.3c-0.7,0-1.2,0.1-1.5,0.1c-1.8,0-3.1-0.4-3.9-1.2
		c-0.7-0.8-1.1-2.1-1.1-3.9v-20.2h7.8v-5.5h-7.8v-10.7H313.749z"/>
	<path fill="#040404" d="M379.449,273.328c0,3-1.5,6.4-4.5,10.5c-1.5,1.9-3.6,3.4-6.3,4.7c-2.7,1.3-5.8,1.9-9.2,1.9
		c-7.4,0-13-2.4-16.6-7.2c-3.6-4.8-5.4-11.3-5.4-19.3c0-8.1,2-14.7,5.9-19.6c3.9-4.9,9.3-7.4,16.2-7.4c3.5,0,6.7,0.7,9.5,2
		s4.9,2.9,6.3,4.8c2.9,4.2,4.3,7.6,4.3,10.2h-7c-2.3-6.9-6.7-10.5-13.1-10.7c-4.8,0-8.6,1.8-11.2,5.4c-2.6,3.6-3.9,8.6-3.9,15.1
		c0,6.4,1.3,11.5,3.9,15.1s6.3,5.4,11.2,5.4c3.7,0,6.6-1.1,8.8-3.4c2.1-2.3,3.6-4.7,4.4-7.4h6.7V273.328z"/>
	<path fill="#040404" d="M390.749,289.628h-6.6v-37.4h6.6V289.628z M383.049,241.828c0-1.2,0.4-2.2,1.3-3s1.9-1.3,3-1.3
		c1.2,0,2.2,0.4,3,1.3c0.8,0.8,1.3,1.9,1.3,3c0,1.2-0.4,2.2-1.3,3.1c-0.8,0.8-1.8,1.3-3,1.3s-2.2-0.4-3-1.3
		C383.449,244.028,383.049,243.028,383.049,241.828z"/>
	<path fill="#040404" d="M397.049,289.628h6.7v-21.5c0-2.6,0.9-5,2.8-7c1.8-2,4.4-3.1,7.8-3.1h1.1c0.2,0,0.6,0.1,1.1,0.2v-6.6
		l-1.5-0.2h-0.6c-2.7,0-5,0.9-7.1,2.7s-3.3,3.3-3.9,4.6h-0.6l0.6-6.4h-6.4V289.628z"/>
	<path fill="#040404" d="M443.649,264.828c-1.6-4.5-4.8-6.8-9.6-7.1c-3.2,0-5.8,1.2-7.7,3.6c-1.9,2.5-2.9,5.6-2.9,9.5s1,7.1,2.9,9.5
		s4.5,3.6,7.7,3.6c4.8-0.2,8.1-2.6,9.6-7.1h7c-1,4.1-2.9,7.4-5.8,9.8c-2.9,2.4-6.5,3.6-10.8,3.6c-5.4,0-9.7-1.8-12.7-5.3
		s-4.5-8.3-4.5-14.1c0-5.9,1.5-10.6,4.5-14.1c3.1-3.5,7.3-5.3,12.7-5.3c4.4,0,8.1,1.2,10.9,3.6c2.9,2.4,4.8,5.7,5.7,9.8H443.649z"/>
	<path fill="#040404" d="M462.149,289.628h-6.7v-52h6.6v52H462.149z"/>
	<path fill="#040404" d="M494.049,267.528c0-2.5-0.8-4.7-2.5-6.7s-4.1-3-7.2-3c-3.1,0-5.6,1.1-7.3,3.3c-1.8,2.2-2.7,4.4-2.7,6.5v0.4
		h19.7V267.528z M501.249,270.928c0,0.6,0,1,0,1.3c0,0.3,0,0.7,0,1.2h-26.9v0.4c0,2.8,0.9,5.2,2.7,7.2s4.2,3,7.2,3
		c4.5,0,7.6-1.7,9.3-5.2h6.9c-0.9,3.6-2.8,6.4-5.8,8.4s-6.4,3-10.5,3c-5.2,0-9.3-1.8-12.4-5.3c-3.1-3.6-4.6-8.3-4.6-14.1
		c0-5.9,1.5-10.6,4.5-14.1c3-3.5,7.2-5.3,12.5-5.3s9.5,1.8,12.5,5.3C499.849,260.328,501.249,265.028,501.249,270.928z"/>
</g>
</svg>
