<?xml version="1.0" encoding="utf-8"?>
<!-- Generator: Adobe Illustrator 26.0.3, SVG Export Plug-In . SVG Version: 6.00 Build 0)  -->
<!DOCTYPE svg PUBLIC "-//W3C//DTD SVG 1.1//EN" "http://www.w3.org/Graphics/SVG/1.1/DTD/svg11.dtd" [
	<!ENTITY ns_extend "http://ns.adobe.com/Extensibility/1.0/">
	<!ENTITY ns_ai "http://ns.adobe.com/AdobeIllustrator/10.0/">
	<!ENTITY ns_graphs "http://ns.adobe.com/Graphs/1.0/">
	<!ENTITY ns_vars "http://ns.adobe.com/Variables/1.0/">
	<!ENTITY ns_imrep "http://ns.adobe.com/ImageReplacement/1.0/">
	<!ENTITY ns_sfw "http://ns.adobe.com/SaveForWeb/1.0/">
	<!ENTITY ns_custom "http://ns.adobe.com/GenericCustomNamespace/1.0/">
	<!ENTITY ns_adobe_xpath "http://ns.adobe.com/XPath/1.0/">
]>
<svg version="1.1" id="Layer_1" xmlns:x="&ns_extend;" xmlns:i="&ns_ai;" xmlns:graph="&ns_graphs;"
	 xmlns="http://www.w3.org/2000/svg" xmlns:xlink="http://www.w3.org/1999/xlink" x="0px" y="0px" width="512px" height="512px"
	 viewBox="0 0 512 512" enable-background="new 0 0 512 512" xml:space="preserve">
<metadata>
	<sfw  xmlns="&ns_sfw;">
		<slices></slices>
		<sliceSourceBounds  bottomLeftOrigin="true" height="1208.277" width="2589.979" x="8.803" y="-1394.409"></sliceSourceBounds>
	</sfw>
</metadata>
<g>
	<path d="M216.962,242.927c-1.801,1.745-3.705,3.588-5.606,5.429c-22.515-23.803-22.873-65.205,0.103-89.708
		c1.814,1.934,3.627,3.867,5.381,5.736C197.736,190.382,197.681,216.5,216.962,242.927z"/>
	<path d="M307.801,164.231c1.795-1.778,5.509-5.379,5.679-5.51c20.883,21.039,24.892,62.645,0.294,89.689
		c-1.903-1.909-3.807-3.818-5.718-5.735C327.827,219.409,326.637,186.023,307.801,164.231z"/>
	<path d="M301.934,249.125c1.754,1.772,3.611,3.648,5.469,5.525c-22.937,21.78-63.821,23.719-89.601,0.269
		c1.938-1.853,3.882-3.712,5.755-5.502C249.408,268.341,275.486,268.353,301.934,249.125z"/>
	<path d="M223.326,158.255c-1.95-1.969-3.813-3.85-5.676-5.731c23.186-22.198,64.777-23.379,89.772-0.074
		c-1.961,1.855-3.92,3.708-5.89,5.572C278.399,138.274,245.037,139.614,223.326,158.255z"/>
	<path d="M319.226,256.238c-0.004,2.218-1.938,4.153-4.088,4.089c-2.137-0.063-3.931-1.874-3.962-3.999
		c-0.033-2.292,1.732-4.127,3.983-4.139C317.45,252.177,319.23,253.949,319.226,256.238z"/>
	<path d="M213.842,151.009c-0.035,2.195-1.757,3.96-3.891,3.987c-2.356,0.03-4.166-1.855-4.078-4.248
		c0.082-2.246,1.735-3.816,4.012-3.811C212.252,146.942,213.88,148.618,213.842,151.009z"/>
	<path d="M315.128,146.945c2.354-0.04,4.085,1.634,4.1,3.962c0.014,2.245-1.835,4.109-4.049,4.084
		c-2.139-0.024-3.946-1.799-3.997-3.926C311.126,148.706,312.774,146.985,315.128,146.945z"/>
	<path d="M309.343,155.073c0.792-0.013,1.375,0.55,1.379,1.333c0.005,0.755-0.617,1.382-1.362,1.374
		c-0.72-0.008-1.328-0.605-1.345-1.321C307.996,155.666,308.551,155.087,309.343,155.073z"/>
	<path d="M215.171,155.073c0.792-0.013,1.375,0.55,1.379,1.333c0.005,0.755-0.617,1.382-1.362,1.374
		c-0.72-0.008-1.328-0.605-1.345-1.321C213.825,155.666,214.379,155.087,215.171,155.073z"/>
	<path d="M305.811,158.722c0.792-0.013,1.375,0.55,1.379,1.333c0.005,0.755-0.617,1.382-1.362,1.374
		c-0.72-0.008-1.328-0.605-1.345-1.321C304.464,159.314,305.019,158.735,305.811,158.722z"/>
	<path d="M218.723,245.693c0.792-0.013,1.375,0.55,1.379,1.333c0.005,0.755-0.617,1.382-1.362,1.374
		c-0.72-0.008-1.328-0.605-1.345-1.321C217.377,246.286,217.931,245.707,218.723,245.693z"/>
	<path d="M215.191,249.342c0.792-0.013,1.375,0.55,1.379,1.333c0.005,0.755-0.617,1.382-1.362,1.374
		c-0.72-0.008-1.328-0.605-1.345-1.321C213.844,249.934,214.399,249.355,215.191,249.342z"/>
	<path d="M218.828,158.648c0.792-0.013,1.375,0.55,1.379,1.333c0.005,0.755-0.617,1.382-1.362,1.374
		c-0.72-0.008-1.328-0.605-1.345-1.321C217.481,159.241,218.036,158.661,218.828,158.648z"/>
	<path d="M306.015,245.917c0.792-0.013,1.375,0.55,1.379,1.333c0.005,0.755-0.617,1.382-1.362,1.374
		c-0.72-0.008-1.328-0.605-1.345-1.321C304.668,246.509,305.223,245.93,306.015,245.917z"/>
	<path d="M309.671,249.491c0.792-0.013,1.375,0.55,1.379,1.333c0.005,0.755-0.617,1.382-1.362,1.374
		c-0.72-0.008-1.328-0.605-1.345-1.321C308.325,250.084,308.879,249.505,309.671,249.491z"/>
	<path d="M209.746,260.303c-2.209-0.068-3.975-2.007-3.879-4.261c0.097-2.293,1.935-3.966,4.235-3.856
		c2.185,0.105,3.787,1.859,3.747,4.103C213.808,258.62,212.017,260.372,209.746,260.303z"/>
	<path d="M309.431,209.369c-1.062,0-53.964,0.016-78.331-0.051c-0.444-0.933-1.35-1.567-2.462-1.62
		c-1.693-0.081-3.045,1.15-3.117,2.837c-0.07,1.658,1.229,3.085,2.854,3.135c1.25,0.038,2.302-0.673,2.765-1.752
		c14.732-0.068,49.618-0.047,49.618-0.047l-4.956,5.837c0,0-11.599,0-15.115,0c-0.397-1.058-1.359-1.794-2.56-1.851
		c-1.693-0.081-3.045,1.15-3.116,2.837c-0.07,1.658,1.229,3.085,2.854,3.135c1.35,0.041,2.469-0.793,2.865-2.019
		c2.442,0,16.408,0,16.408,0l6.66-7.875c0,0,23.545-0.067,25.631-0.067C309.387,210.905,309.47,210.214,309.431,209.369z"/>
	<path d="M303.585,204.62c-0.044-0.963,0.038-1.654,0-2.5c-1.062,0-35.739,0.016-60.106-0.051c-0.444-0.933-1.35-1.567-2.462-1.62
		c-1.693-0.081-3.045,1.15-3.117,2.837c-0.07,1.658,1.229,3.085,2.854,3.135c1.25,0.038,2.302-0.673,2.765-1.752
		C248.268,204.669,301.14,204.62,303.585,204.62z"/>
	<path d="M215.474,197.775c1.062,0,39.911-0.016,64.278,0.051c0.444,0.933,1.35,1.567,2.462,1.62
		c1.693,0.081,3.045-1.15,3.117-2.837c0.07-1.658-1.229-3.085-2.854-3.135c-1.25-0.038-2.302,0.673-2.765,1.752
		c-14.732,0.068-35.832,0.047-35.832,0.047l4.956-5.837c0,0,11.599,0,15.115,0c0.397,1.058,1.359,1.794,2.56,1.851
		c1.693,0.081,3.045-1.15,3.116-2.837c0.07-1.658-1.229-3.085-2.854-3.135c-1.35-0.041-2.469,0.793-2.865,2.019
		c-2.442,0-16.408,0-16.408,0l-6.66,7.875c0,0-23.279,0.067-25.365,0.067C215.518,196.239,215.435,196.93,215.474,197.775z"/>
</g>
<g>
	<path d="M82.272,323.059c0.297,2.802,2.703,4.12,5.867,4.12c2.934,0,4.713-1.153,4.713-3.493c0-3.264-3.461-3.329-6.295-3.988
		c-3.164-0.725-7.119-1.978-7.119-6.69c0-4.252,3.164-6.56,8.107-6.56c4.45,0,7.646,1.846,8.768,5.834l-3.461,0.923
		c-0.626-2.241-2.307-3.526-5.339-3.526c-2.967,0-4.384,1.22-4.384,3.197c0,2.67,2.67,3.229,5.966,3.889
		c3.428,0.659,7.448,1.846,7.448,6.922c0,4.449-3.131,6.724-8.404,6.724c-3.922,0-8.404-1.253-9.36-6.395L82.272,323.059z"/>
	<path d="M107.187,318.774l-3.626,3.856v7.35h-3.626v-23.071h3.626v6.921v4.516h0.065l3.329-3.658l7.087-7.778h4.35l-8.503,9.262
		l9.262,13.81h-4.252L107.187,318.774z"/>
	<path d="M132.265,329.98h-3.658v-9.723l-8.801-13.349l4.219-0.033l4.614,7.186c1.055,1.614,1.846,2.867,1.879,2.9h0.065
		c0.033-0.033,0.791-1.286,1.846-2.868l4.746-7.185h3.923l-8.833,13.349V329.98z"/>
	<path d="M147.521,312.875h-0.065c0,0.033,0.065,2.769,0.065,5.669v11.437h-3.626v-23.071h3.691l12.262,16.875h0.099
		c0-0.033-0.066-2.802-0.066-5.405v-11.47h3.626v23.071h-3.691L147.521,312.875z"/>
	<path d="M168.116,306.909h15.951v3.395h-12.326v6.032h9.459v3.395h-9.459v6.855h12.426v3.395h-16.051V306.909z"/>
	<path d="M198.139,310.304v19.677h-3.626v-19.677h-7.646v-3.395h18.919v3.395H198.139z"/>
	<path d="M217.479,306.909h15.953v3.395h-12.327v6.032h9.459v3.395h-9.459v6.855h12.426v3.395h-16.052V306.909z"/>
	<path d="M255.116,329.98c0-2.208,0.033-2.505,0.033-2.769h-0.066c-1.187,1.253-3.922,3.197-7.844,3.197
		c-6.526,0-11.833-4.779-11.833-11.997c0-7.186,5.108-11.965,11.932-11.965c5.273,0,9.097,2.9,10.547,6.428l-3.56,0.955
		c-0.791-1.449-2.835-3.955-7.119-3.955c-4.812,0-8.141,3.329-8.141,8.537c0,5.24,3.559,8.569,8.438,8.569
		c3.955,0,6.624-2.109,7.481-3.56v-2.571h-6.493v-3.361h9.888v12.491H255.116z"/>
	<path d="M262.495,306.909h3.625v19.677h11.568v3.395h-15.193V306.909z"/>
	<path d="M289.748,306.909c7.054,0,12.195,4.581,12.195,11.635c0,7.086-5.175,11.437-12.063,11.437h-8.734v-23.071H289.748z
		 M289.683,326.586c4.581,0,8.602-2.505,8.602-8.042c0-5.505-3.987-8.24-8.733-8.24h-4.779v16.282H289.683z"/>
	<path d="M335.227,323.389c-1.78,4.384-5.933,7.021-10.877,7.021c-6.757,0-11.865-4.779-11.865-12.03
		c0-7.152,5.076-11.932,11.898-11.932c5.307,0,9.063,2.9,10.58,6.428l-3.593,0.955c-0.956-1.647-3.098-3.955-7.119-3.955
		c-4.812,0-8.107,3.329-8.107,8.537c0,5.273,3.46,8.569,8.041,8.569c3.527,0,6.197-1.846,7.482-4.549L335.227,323.389z"/>
	<path d="M342.771,324.608l-2.176,5.372h-3.823l9.525-23.071h4.054l9.492,23.071h-3.889l-2.143-5.372H342.771z M350.252,315.742
		c-0.824-2.043-1.879-4.68-1.912-4.713h-0.099c-0.033,0.033-1.121,2.67-1.944,4.713l-2.208,5.57h8.404L350.252,315.742z"/>
	<path d="M370.319,306.909c5.471,0,8.767,2.637,8.767,7.448c0,4.647-3.296,7.416-8.767,7.416h-3.89v8.207h-3.626v-23.071H370.319z
		 M370.418,318.576c3.361,0,5.042-1.516,5.042-4.186c0-2.769-1.812-4.152-5.042-4.152h-3.988v8.338H370.418z"/>
	<path d="M382.214,306.909h3.626v23.071h-3.626V306.909z"/>
	<path d="M400.571,310.304v19.677h-3.626v-19.677h-7.646v-3.395h18.919v3.395H400.571z"/>
	<path d="M412.401,324.608l-2.176,5.372h-3.823l9.525-23.071h4.054l9.492,23.071h-3.889l-2.143-5.372H412.401z M419.883,315.742
		c-0.824-2.043-1.879-4.68-1.912-4.713h-0.099c-0.033,0.033-1.121,2.67-1.944,4.713l-2.208,5.57h8.404L419.883,315.742z"/>
	<path d="M432.435,306.909h3.626v19.677h11.568v3.395h-15.194V306.909z"/>
</g>
</svg>
