<svg width="86" height="48" viewBox="0 0 86 48" fill="none" xmlns="http://www.w3.org/2000/svg">
<path d="M48.8004 24C48.8004 37.2534 38.027 48.0001 24.731 48.0001C21.5751 48.0043 18.4492 47.3868 15.5319 46.183C12.6146 44.9792 9.96298 43.2125 7.72843 40.9839C5.49388 38.7553 3.72016 36.1084 2.50856 33.1943C1.29696 30.2802 0.671192 27.156 0.666992 24C0.666992 10.7414 11.4403 2.90341e-05 24.731 2.90341e-05C27.8874 -0.00487715 31.0138 0.612049 33.9317 1.81557C36.8497 3.0191 39.5019 4.78564 41.737 7.01432C43.9722 9.243 45.7464 11.8902 46.9583 14.8046C48.1702 17.719 48.7962 20.8437 48.8004 24ZM75.2004 24C75.2004 36.4801 69.8137 46.5921 63.1684 46.5921C56.523 46.5921 51.1364 36.4747 51.1364 24C51.1364 11.52 56.523 1.40803 63.1684 1.40803C69.8137 1.40803 75.2004 11.5254 75.2004 24ZM86.0004 24C86.0004 35.1787 84.1071 44.2401 81.7657 44.2401C79.4297 44.2401 77.5364 35.1734 77.5364 24C77.5364 12.8214 79.4297 3.76003 81.7711 3.76003C84.1071 3.76003 86.0004 12.8214 86.0004 24Z" fill="black"/>
</svg>
